<ttFont>
    <TTGlyph name="A" xMin="35" yMin="0" xMax="782" yMax="732">
      <contour>
        <pt x="40" y="40" on="1"/>
        <pt x="117" y="40" on="1"/>
        <pt x="215" y="214" on="0"/>
        <pt x="411" y="558" on="0"/>
        <pt x="508" y="732" on="1"/>
        <pt x="558" y="558" on="0"/>
        <pt x="655" y="214" on="0"/>
        <pt x="704" y="40" on="1"/>
        <pt x="782" y="40" on="1"/>
        <pt x="777" y="0" on="1"/>
        <pt x="584" y="0" on="1"/>
        <pt x="589" y="40" on="1"/>
        <pt x="662" y="40" on="1"/>
        <pt x="643" y="105" on="0"/>
        <pt x="607" y="234" on="0"/>
        <pt x="588" y="300" on="1"/>
        <pt x="307" y="300" on="1"/>
        <pt x="270" y="234" on="0"/>
        <pt x="198" y="105" on="0"/>
        <pt x="160" y="40" on="1"/>
        <pt x="233" y="40" on="1"/>
        <pt x="228" y="0" on="1"/>
        <pt x="35" y="0" on="1"/>
      </contour>
      <contour>
        <pt x="500" y="611" on="1"/>
        <pt x="495" y="639" on="1"/>
        <pt x="494" y="637" on="0"/>
        <pt x="489" y="629" on="0"/>
        <pt x="487" y="624" on="1"/>
        <pt x="484" y="618" on="0"/>
        <pt x="481" y="611" on="1"/>
        <pt x="467" y="585" on="0"/>
        <pt x="432" y="520" on="0"/>
        <pt x="391" y="449" on="0"/>
        <pt x="349" y="375" on="0"/>
        <pt x="330" y="340" on="1"/>
        <pt x="577" y="340" on="1"/>
      </contour>
    </TTGlyph>
    <TTGlyph name="AE" xMin="35" yMin="0" xMax="825" yMax="700">
      <contour>
        <pt x="763" y="546" on="1"/>
        <pt x="779" y="660" on="1"/>
        <pt x="532" y="660" on="1"/>
        <pt x="492" y="373" on="1"/>
        <pt x="740" y="373" on="1"/>
        <pt x="734" y="333" on="1"/>
        <pt x="486" y="333" on="1"/>
        <pt x="445" y="40" on="1"/>
        <pt x="706" y="40" on="1"/>
        <pt x="722" y="154" on="1"/>
        <pt x="762" y="154" on="1"/>
        <pt x="741" y="0" on="1"/>
        <pt x="398" y="0" on="1"/>
        <pt x="439" y="295" on="1"/>
        <pt x="305" y="295" on="1"/>
        <pt x="269" y="231" on="0"/>
        <pt x="197" y="104" on="0"/>
        <pt x="160" y="40" on="1"/>
        <pt x="233" y="40" on="1"/>
        <pt x="228" y="0" on="1"/>
        <pt x="35" y="0" on="1"/>
        <pt x="40" y="40" on="1"/>
        <pt x="118" y="40" on="1"/>
        <pt x="212" y="206" on="0"/>
        <pt x="396" y="534" on="0"/>
        <pt x="490" y="700" on="1"/>
        <pt x="825" y="700" on="1"/>
        <pt x="803" y="546" on="1"/>
      </contour>
      <contour>
        <pt x="445" y="335" on="1"/>
        <pt x="485" y="619" on="1"/>
        <pt x="450" y="547" on="0"/>
        <pt x="367" y="406" on="0"/>
        <pt x="327" y="335" on="1"/>
      </contour>
    </TTGlyph>
    <TTGlyph name="Aacute" xMin="35" yMin="0" xMax="782" yMax="883">
      <component glyphName="acute" x="399" y="271" flags="0x4"/>
      <component glyphName="A" x="0" y="0" flags="0x4"/>
    </TTGlyph>
    <TTGlyph name="Acircumflex" xMin="35" yMin="0" xMax="782" yMax="931">
      <component glyphName="asciicircum" x="289" y="271" flags="0x4"/>
      <component glyphName="A" x="0" y="0" flags="0x4"/>
    </TTGlyph>
    <TTGlyph name="Adieresis" xMin="35" yMin="0" xMax="782" yMax="831">
      <component glyphName="dieresis" x="323" y="290" flags="0x4"/>
      <component glyphName="A" x="0" y="0" flags="0x4"/>
    </TTGlyph>
    <TTGlyph name="Agrave" xMin="35" yMin="0" xMax="782" yMax="883">
      <component glyphName="A" x="0" y="0" flags="0x204"/>
      <component glyphName="grave" x="432" y="271" flags="0x4"/>
    </TTGlyph>
    <TTGlyph name="Aring" xMin="35" yMin="0" xMax="782" yMax="909">
      <component glyphName="A" x="0" y="0" flags="0x204"/>
      <component glyphName="ring" x="338" y="296" flags="0x4"/>
    </TTGlyph>
    <TTGlyph name="Atilde" xMin="35" yMin="0" xMax="782" yMax="839">
      <component glyphName="asciitilde" x="228" y="294" flags="0x4"/>
      <component glyphName="A" x="0" y="0" flags="0x4"/>
    </TTGlyph>
    <TTGlyph name="B" xMin="35" yMin="0" xMax="545" yMax="700">
      <contour>
        <pt x="40" y="40" on="1"/>
        <pt x="101" y="40" on="1"/>
        <pt x="188" y="660" on="1"/>
        <pt x="127" y="660" on="1"/>
        <pt x="133" y="700" on="1"/>
        <pt x="354" y="700" on="1"/>
        <pt x="401" y="700" on="0"/>
        <pt x="475" y="680" on="0"/>
        <pt x="524" y="638" on="0"/>
        <pt x="545" y="571" on="0"/>
        <pt x="538" y="525" on="1"/>
        <pt x="530" y="463" on="0"/>
        <pt x="456" y="369" on="0"/>
        <pt x="390" y="352" on="1"/>
        <pt x="419" y="346" on="0"/>
        <pt x="469" y="318" on="0"/>
        <pt x="504" y="274" on="0"/>
        <pt x="521" y="216" on="0"/>
        <pt x="516" y="180" on="1"/>
        <pt x="510" y="135" on="0"/>
        <pt x="464" y="68" on="0"/>
        <pt x="397" y="23" on="0"/>
        <pt x="316" y="0" on="0"/>
        <pt x="274" y="0" on="1"/>
        <pt x="35" y="0" on="1"/>
      </contour>
      <contour>
        <pt x="183" y="332" on="1"/>
        <pt x="142" y="40" on="1"/>
        <pt x="275" y="40" on="1"/>
        <pt x="312" y="40" on="0"/>
        <pt x="380" y="58" on="0"/>
        <pt x="434" y="94" on="0"/>
        <pt x="470" y="147" on="0"/>
        <pt x="475" y="183" on="1"/>
        <pt x="481" y="222" on="0"/>
        <pt x="455" y="278" on="0"/>
        <pt x="406" y="315" on="0"/>
        <pt x="337" y="332" on="0"/>
        <pt x="299" y="332" on="1"/>
      </contour>
      <contour>
        <pt x="230" y="660" on="1"/>
        <pt x="189" y="372" on="1"/>
        <pt x="321" y="372" on="1"/>
        <pt x="392" y="372" on="0"/>
        <pt x="487" y="455" on="0"/>
        <pt x="496" y="522" on="1"/>
        <pt x="506" y="596" on="0"/>
        <pt x="428" y="660" on="0"/>
        <pt x="358" y="660" on="1"/>
      </contour>
    </TTGlyph>
    <TTGlyph name="C" xMin="74" yMin="-8" xMax="668" yMax="708">
      <contour>
        <pt x="612" y="546" on="1"/>
        <pt x="625" y="632" on="1"/>
        <pt x="595" y="649" on="0"/>
        <pt x="524" y="668" on="0"/>
        <pt x="486" y="668" on="1"/>
        <pt x="421" y="668" on="0"/>
        <pt x="299" y="617" on="0"/>
        <pt x="202" y="530" on="0"/>
        <pt x="136" y="414" on="0"/>
        <pt x="127" y="348" on="1"/>
        <pt x="118" y="283" on="0"/>
        <pt x="151" y="168" on="0"/>
        <pt x="224" y="82" on="0"/>
        <pt x="330" y="32" on="0"/>
        <pt x="395" y="32" on="1"/>
        <pt x="440" y="32" on="0"/>
        <pt x="523" y="55" on="0"/>
        <pt x="562" y="76" on="1"/>
        <pt x="581" y="42" on="1"/>
        <pt x="537" y="19" on="0"/>
        <pt x="443" y="-8" on="0"/>
        <pt x="392" y="-8" on="1"/>
        <pt x="318" y="-8" on="0"/>
        <pt x="196" y="48" on="0"/>
        <pt x="112" y="145" on="0"/>
        <pt x="74" y="275" on="0"/>
        <pt x="85" y="349" on="1"/>
        <pt x="95" y="423" on="0"/>
        <pt x="170" y="554" on="0"/>
        <pt x="280" y="651" on="0"/>
        <pt x="418" y="708" on="0"/>
        <pt x="492" y="708" on="1"/>
        <pt x="543" y="708" on="0"/>
        <pt x="631" y="682" on="0"/>
        <pt x="668" y="658" on="1"/>
        <pt x="652" y="546" on="1"/>
      </contour>
    </TTGlyph>
    <TTGlyph name="Ccedilla" xMin="107" yMin="-234" xMax="700" yMax="708">
      <contour>
        <pt x="633" y="465" on="1"/>
        <pt x="656" y="632" on="1"/>
        <pt x="627" y="649" on="0"/>
        <pt x="556" y="668" on="0"/>
        <pt x="518" y="668" on="1"/>
        <pt x="453" y="668" on="0"/>
        <pt x="331" y="617" on="0"/>
        <pt x="233" y="530" on="0"/>
        <pt x="167" y="414" on="0"/>
        <pt x="158" y="348" on="1"/>
        <pt x="149" y="283" on="0"/>
        <pt x="182" y="168" on="0"/>
        <pt x="255" y="82" on="0"/>
        <pt x="362" y="32" on="0"/>
        <pt x="427" y="32" on="1"/>
        <pt x="472" y="32" on="0"/>
        <pt x="555" y="55" on="0"/>
        <pt x="593" y="76" on="1"/>
        <pt x="613" y="42" on="1"/>
        <pt x="570" y="19" on="0"/>
        <pt x="478" y="-7" on="0"/>
        <pt x="429" y="-8" on="1"/>
        <pt x="427" y="-19" on="0"/>
        <pt x="429" y="-21" on="1"/>
        <pt x="431" y="-39" on="0"/>
        <pt x="453" y="-54" on="0"/>
        <pt x="463" y="-61" on="1"/>
        <pt x="483" y="-76" on="0"/>
        <pt x="496" y="-115" on="0"/>
        <pt x="493" y="-133" on="1"/>
        <pt x="486" y="-181" on="0"/>
        <pt x="428" y="-234" on="0"/>
        <pt x="387" y="-234" on="1"/>
        <pt x="358" y="-234" on="0"/>
        <pt x="312" y="-202" on="0"/>
        <pt x="306" y="-169" on="1"/>
        <pt x="334" y="-157" on="1"/>
        <pt x="337" y="-176" on="0"/>
        <pt x="365" y="-201" on="0"/>
        <pt x="388" y="-201" on="1"/>
        <pt x="416" y="-201" on="0"/>
        <pt x="456" y="-163" on="0"/>
        <pt x="460" y="-135" on="1"/>
        <pt x="463" y="-110" on="0"/>
        <pt x="443" y="-83" on="0"/>
        <pt x="417" y="-63" on="0"/>
        <pt x="395" y="-42" on="0"/>
        <pt x="398" y="-23" on="1"/>
        <pt x="400" y="-7" on="1"/>
        <pt x="331" y="-3" on="0"/>
        <pt x="217" y="56" on="0"/>
        <pt x="141" y="152" on="0"/>
        <pt x="107" y="278" on="0"/>
        <pt x="117" y="349" on="1"/>
        <pt x="127" y="423" on="0"/>
        <pt x="202" y="554" on="0"/>
        <pt x="312" y="651" on="0"/>
        <pt x="450" y="708" on="0"/>
        <pt x="524" y="708" on="1"/>
        <pt x="575" y="708" on="0"/>
        <pt x="663" y="682" on="0"/>
        <pt x="700" y="658" on="1"/>
        <pt x="673" y="465" on="1"/>
      </contour>
    </TTGlyph>
    <TTGlyph name="D" xMin="35" yMin="0" xMax="657" yMax="700">
      <contour>
        <pt x="40" y="40" on="1"/>
        <pt x="103" y="40" on="1"/>
        <pt x="190" y="660" on="1"/>
        <pt x="127" y="660" on="1"/>
        <pt x="133" y="700" on="1"/>
        <pt x="343" y="700" on="1"/>
        <pt x="415" y="700" on="0"/>
        <pt x="536" y="651" on="0"/>
        <pt x="619" y="560" on="0"/>
        <pt x="657" y="430" on="0"/>
        <pt x="646" y="350" on="1"/>
        <pt x="637" y="291" on="0"/>
        <pt x="579" y="167" on="0"/>
        <pt x="473" y="65" on="0"/>
        <pt x="317" y="0" on="0"/>
        <pt x="211" y="0" on="1"/>
        <pt x="35" y="0" on="1"/>
      </contour>
      <contour>
        <pt x="232" y="660" on="1"/>
        <pt x="144" y="40" on="1"/>
        <pt x="231" y="40" on="1"/>
        <pt x="314" y="40" on="0"/>
        <pt x="446" y="93" on="0"/>
        <pt x="540" y="180" on="0"/>
        <pt x="597" y="291" on="0"/>
        <pt x="605" y="350" on="1"/>
        <pt x="615" y="421" on="0"/>
        <pt x="582" y="536" on="0"/>
        <pt x="508" y="617" on="0"/>
        <pt x="401" y="660" on="0"/>
        <pt x="337" y="660" on="1"/>
      </contour>
    </TTGlyph>
    <TTGlyph name="E" xMin="35" yMin="0" xMax="620" yMax="700">
      <contour>
        <pt x="40" y="40" on="1"/>
        <pt x="112" y="40" on="1"/>
        <pt x="199" y="660" on="1"/>
        <pt x="127" y="660" on="1"/>
        <pt x="133" y="700" on="1"/>
        <pt x="620" y="700" on="1"/>
        <pt x="598" y="546" on="1"/>
        <pt x="558" y="546" on="1"/>
        <pt x="574" y="660" on="1"/>
        <pt x="241" y="660" on="1"/>
        <pt x="200" y="373" on="1"/>
        <pt x="535" y="373" on="1"/>
        <pt x="529" y="333" on="1"/>
        <pt x="194" y="333" on="1"/>
        <pt x="153" y="40" on="1"/>
        <pt x="501" y="40" on="1"/>
        <pt x="517" y="154" on="1"/>
        <pt x="557" y="154" on="1"/>
        <pt x="536" y="0" on="1"/>
        <pt x="35" y="0" on="1"/>
      </contour>
    </TTGlyph>
    <TTGlyph name="Eacute" xMin="35" yMin="0" xMax="620" yMax="883">
      <component glyphName="E" x="0" y="0" flags="0x204"/>
      <component glyphName="acute" x="300" y="271" flags="0x4"/>
    </TTGlyph>
    <TTGlyph name="Ecircumflex" xMin="35" yMin="0" xMax="620" yMax="931">
      <component glyphName="E" x="0" y="0" flags="0x204"/>
      <component glyphName="asciicircum" x="179" y="271" flags="0x4"/>
    </TTGlyph>
    <TTGlyph name="Edieresis" xMin="35" yMin="0" xMax="620" yMax="831">
      <component glyphName="E" x="0" y="0" flags="0x204"/>
      <component glyphName="dieresis" x="211" y="290" flags="0x4"/>
    </TTGlyph>
    <TTGlyph name="Egrave" xMin="35" yMin="0" xMax="620" yMax="883">
      <component glyphName="E" x="0" y="0" flags="0x204"/>
      <component glyphName="grave" x="308" y="271" flags="0x4"/>
    </TTGlyph>
    <TTGlyph name="Eth" xMin="35" yMin="0" xMax="657" yMax="700">
      <contour>
        <pt x="96" y="372" on="1"/>
        <pt x="149" y="372" on="1"/>
        <pt x="190" y="660" on="1"/>
        <pt x="127" y="660" on="1"/>
        <pt x="133" y="700" on="1"/>
        <pt x="343" y="700" on="1"/>
        <pt x="415" y="700" on="0"/>
        <pt x="536" y="651" on="0"/>
        <pt x="619" y="560" on="0"/>
        <pt x="657" y="430" on="0"/>
        <pt x="646" y="350" on="1"/>
        <pt x="637" y="291" on="0"/>
        <pt x="579" y="167" on="0"/>
        <pt x="473" y="65" on="0"/>
        <pt x="317" y="0" on="0"/>
        <pt x="211" y="0" on="1"/>
        <pt x="35" y="0" on="1"/>
        <pt x="40" y="40" on="1"/>
        <pt x="103" y="40" on="1"/>
        <pt x="144" y="331" on="1"/>
        <pt x="90" y="331" on="1"/>
      </contour>
      <contour>
        <pt x="232" y="660" on="1"/>
        <pt x="191" y="372" on="1"/>
        <pt x="398" y="372" on="1"/>
        <pt x="392" y="331" on="1"/>
        <pt x="185" y="331" on="1"/>
        <pt x="145" y="41" on="1"/>
        <pt x="232" y="41" on="1"/>
        <pt x="315" y="41" on="0"/>
        <pt x="446" y="94" on="0"/>
        <pt x="540" y="180" on="0"/>
        <pt x="597" y="291" on="0"/>
        <pt x="605" y="350" on="1"/>
        <pt x="615" y="421" on="0"/>
        <pt x="582" y="536" on="0"/>
        <pt x="508" y="617" on="0"/>
        <pt x="401" y="660" on="0"/>
        <pt x="337" y="660" on="1"/>
      </contour>
    </TTGlyph>
    <TTGlyph name="F" xMin="35" yMin="0" xMax="620" yMax="700">
      <contour>
        <pt x="40" y="40" on="1"/>
        <pt x="112" y="40" on="1"/>
        <pt x="199" y="660" on="1"/>
        <pt x="127" y="660" on="1"/>
        <pt x="133" y="700" on="1"/>
        <pt x="620" y="700" on="1"/>
        <pt x="598" y="546" on="1"/>
        <pt x="558" y="546" on="1"/>
        <pt x="574" y="660" on="1"/>
        <pt x="241" y="660" on="1"/>
        <pt x="200" y="373" on="1"/>
        <pt x="535" y="373" on="1"/>
        <pt x="529" y="333" on="1"/>
        <pt x="194" y="333" on="1"/>
        <pt x="153" y="40" on="1"/>
        <pt x="241" y="40" on="1"/>
        <pt x="236" y="0" on="1"/>
        <pt x="35" y="0" on="1"/>
      </contour>
    </TTGlyph>
    <TTGlyph name="G" xMin="23" yMin="-10" xMax="617" yMax="706">
      <contour>
        <pt x="565" y="298" on="1"/>
        <pt x="560" y="258" on="1"/>
        <pt x="529" y="40" on="1"/>
        <pt x="486" y="17" on="0"/>
        <pt x="392" y="-10" on="0"/>
        <pt x="341" y="-10" on="1"/>
        <pt x="267" y="-10" on="0"/>
        <pt x="145" y="46" on="0"/>
        <pt x="61" y="143" on="0"/>
        <pt x="23" y="273" on="0"/>
        <pt x="33" y="347" on="1"/>
        <pt x="43" y="421" on="0"/>
        <pt x="118" y="552" on="0"/>
        <pt x="229" y="649" on="0"/>
        <pt x="367" y="706" on="0"/>
        <pt x="441" y="706" on="1"/>
        <pt x="492" y="706" on="0"/>
        <pt x="579" y="680" on="0"/>
        <pt x="617" y="656" on="1"/>
        <pt x="589" y="622" on="1"/>
        <pt x="557" y="643" on="0"/>
        <pt x="479" y="666" on="0"/>
        <pt x="435" y="666" on="1"/>
        <pt x="370" y="666" on="0"/>
        <pt x="248" y="615" on="0"/>
        <pt x="151" y="528" on="0"/>
        <pt x="84" y="412" on="0"/>
        <pt x="75" y="346" on="1"/>
        <pt x="66" y="281" on="0"/>
        <pt x="99" y="166" on="0"/>
        <pt x="172" y="80" on="0"/>
        <pt x="279" y="30" on="0"/>
        <pt x="344" y="30" on="1"/>
        <pt x="420" y="30" on="0"/>
        <pt x="491" y="64" on="1"/>
        <pt x="518" y="258" on="1"/>
        <pt x="374" y="258" on="1"/>
        <pt x="379" y="298" on="1"/>
      </contour>
    </TTGlyph>
    <TTGlyph name="H" xMin="35" yMin="0" xMax="801" yMax="700">
      <contour>
        <pt x="600" y="700" on="1"/>
        <pt x="801" y="700" on="1"/>
        <pt x="796" y="660" on="1"/>
        <pt x="718" y="660" on="1"/>
        <pt x="631" y="40" on="1"/>
        <pt x="708" y="40" on="1"/>
        <pt x="703" y="0" on="1"/>
        <pt x="502" y="0" on="1"/>
        <pt x="507" y="40" on="1"/>
        <pt x="589" y="40" on="1"/>
        <pt x="630" y="333" on="1"/>
        <pt x="200" y="333" on="1"/>
        <pt x="159" y="40" on="1"/>
        <pt x="241" y="40" on="1"/>
        <pt x="236" y="0" on="1"/>
        <pt x="35" y="0" on="1"/>
        <pt x="40" y="40" on="1"/>
        <pt x="118" y="40" on="1"/>
        <pt x="205" y="660" on="1"/>
        <pt x="127" y="660" on="1"/>
        <pt x="133" y="700" on="1"/>
        <pt x="334" y="700" on="1"/>
        <pt x="329" y="660" on="1"/>
        <pt x="247" y="660" on="1"/>
        <pt x="206" y="373" on="1"/>
        <pt x="636" y="373" on="1"/>
        <pt x="676" y="660" on="1"/>
        <pt x="595" y="660" on="1"/>
      </contour>
    </TTGlyph>
    <TTGlyph name="I" xMin="35" yMin="0" xMax="334" yMax="700">
      <contour>
        <pt x="40" y="40" on="1"/>
        <pt x="118" y="40" on="1"/>
        <pt x="205" y="660" on="1"/>
        <pt x="127" y="660" on="1"/>
        <pt x="133" y="700" on="1"/>
        <pt x="334" y="700" on="1"/>
        <pt x="329" y="660" on="1"/>
        <pt x="247" y="660" on="1"/>
        <pt x="159" y="40" on="1"/>
        <pt x="241" y="40" on="1"/>
        <pt x="236" y="0" on="1"/>
        <pt x="35" y="0" on="1"/>
      </contour>
    </TTGlyph>
    <TTGlyph name="Iacute" xMin="35" yMin="0" xMax="376" yMax="883">
      <component glyphName="I" x="0" y="0" flags="0x204"/>
      <component glyphName="acute" x="125" y="271" flags="0x4"/>
    </TTGlyph>
    <TTGlyph name="Icircumflex" xMin="35" yMin="0" xMax="362" yMax="931">
      <component glyphName="I" x="0" y="0" flags="0x4"/>
      <component glyphName="asciicircum" x="23" y="271" flags="0x4"/>
    </TTGlyph>
    <TTGlyph name="Idieresis" xMin="35" yMin="0" xMax="366" yMax="831">
      <component glyphName="I" x="0" y="0" flags="0x204"/>
      <component glyphName="dieresis" x="61" y="290" flags="0x4"/>
    </TTGlyph>
    <TTGlyph name="Igrave" xMin="35" yMin="0" xMax="334" yMax="883">
      <component glyphName="I" x="0" y="0" flags="0x204"/>
      <component glyphName="grave" x="153" y="271" flags="0x4"/>
    </TTGlyph>
    <TTGlyph name="J" xMin="-24" yMin="-143" xMax="300" yMax="700">
      <contour>
        <pt x="93" y="700" on="1"/>
        <pt x="300" y="700" on="1"/>
        <pt x="214" y="90" on="1"/>
        <pt x="206" y="34" on="0"/>
        <pt x="162" y="-51" on="0"/>
        <pt x="98" y="-110" on="0"/>
        <pt x="19" y="-142" on="0"/>
        <pt x="-24" y="-143" on="1"/>
        <pt x="-19" y="-103" on="1"/>
        <pt x="17" y="-101" on="0"/>
        <pt x="81" y="-73" on="0"/>
        <pt x="132" y="-23" on="0"/>
        <pt x="167" y="48" on="0"/>
        <pt x="173" y="93" on="1"/>
        <pt x="253" y="660" on="1"/>
        <pt x="87" y="660" on="1"/>
      </contour>
    </TTGlyph>
    <TTGlyph name="K" xMin="35" yMin="0" xMax="704" yMax="700">
      <contour>
        <pt x="463" y="40" on="1"/>
        <pt x="523" y="40" on="1"/>
        <pt x="466" y="128" on="0"/>
        <pt x="352" y="305" on="0"/>
        <pt x="295" y="394" on="1"/>
        <pt x="196" y="311" on="1"/>
        <pt x="187" y="243" on="0"/>
        <pt x="169" y="108" on="0"/>
        <pt x="159" y="40" on="1"/>
        <pt x="241" y="40" on="1"/>
        <pt x="236" y="0" on="1"/>
        <pt x="35" y="0" on="1"/>
        <pt x="40" y="40" on="1"/>
        <pt x="117" y="40" on="1"/>
        <pt x="204" y="660" on="1"/>
        <pt x="127" y="660" on="1"/>
        <pt x="133" y="700" on="1"/>
        <pt x="326" y="700" on="1"/>
        <pt x="321" y="660" on="1"/>
        <pt x="246" y="660" on="1"/>
        <pt x="207" y="386" on="1"/>
        <pt x="206" y="378" on="0"/>
        <pt x="203" y="364" on="0"/>
        <pt x="201" y="356" on="1"/>
        <pt x="222" y="377" on="1"/>
        <pt x="558" y="660" on="1"/>
        <pt x="505" y="660" on="1"/>
        <pt x="511" y="700" on="1"/>
        <pt x="704" y="700" on="1"/>
        <pt x="698" y="660" on="1"/>
        <pt x="612" y="660" on="1"/>
        <pt x="327" y="421" on="1"/>
        <pt x="390" y="325" on="0"/>
        <pt x="512" y="135" on="0"/>
        <pt x="574" y="40" on="1"/>
        <pt x="656" y="40" on="1"/>
        <pt x="651" y="0" on="1"/>
        <pt x="458" y="0" on="1"/>
      </contour>
    </TTGlyph>
    <TTGlyph name="L" xMin="35" yMin="0" xMax="554" yMax="700">
      <contour>
        <pt x="40" y="40" on="1"/>
        <pt x="109" y="40" on="1"/>
        <pt x="196" y="660" on="1"/>
        <pt x="127" y="660" on="1"/>
        <pt x="133" y="700" on="1"/>
        <pt x="326" y="700" on="1"/>
        <pt x="321" y="660" on="1"/>
        <pt x="238" y="660" on="1"/>
        <pt x="150" y="40" on="1"/>
        <pt x="498" y="40" on="1"/>
        <pt x="514" y="154" on="1"/>
        <pt x="554" y="154" on="1"/>
        <pt x="533" y="0" on="1"/>
        <pt x="35" y="0" on="1"/>
      </contour>
    </TTGlyph>
    <TTGlyph name="M" xMin="35" yMin="0" xMax="1027" yMax="700">
      <contour>
        <pt x="922" y="700" on="1"/>
        <pt x="1027" y="700" on="1"/>
        <pt x="1021" y="660" on="1"/>
        <pt x="940" y="660" on="1"/>
        <pt x="853" y="40" on="1"/>
        <pt x="937" y="40" on="1"/>
        <pt x="932" y="0" on="1"/>
        <pt x="731" y="0" on="1"/>
        <pt x="736" y="40" on="1"/>
        <pt x="811" y="40" on="1"/>
        <pt x="887" y="575" on="1"/>
        <pt x="887" y="576" on="0"/>
        <pt x="889" y="588" on="0"/>
        <pt x="892" y="601" on="0"/>
        <pt x="894" y="613" on="0"/>
        <pt x="894" y="615" on="1"/>
        <pt x="890" y="610" on="0"/>
        <pt x="880" y="597" on="0"/>
        <pt x="873" y="589" on="1"/>
        <pt x="855" y="569" on="0"/>
        <pt x="803" y="511" on="0"/>
        <pt x="741" y="443" on="0"/>
        <pt x="672" y="367" on="0"/>
        <pt x="603" y="291" on="0"/>
        <pt x="536" y="218" on="0"/>
        <pt x="508" y="187" on="1"/>
        <pt x="452" y="277" on="0"/>
        <pt x="373" y="403" on="0"/>
        <pt x="315" y="496" on="0"/>
        <pt x="272" y="564" on="0"/>
        <pt x="252" y="596" on="1"/>
        <pt x="241" y="615" on="1"/>
        <pt x="240" y="604" on="0"/>
        <pt x="239" y="585" on="0"/>
        <pt x="238" y="575" on="1"/>
        <pt x="163" y="40" on="1"/>
        <pt x="241" y="40" on="1"/>
        <pt x="236" y="0" on="1"/>
        <pt x="35" y="0" on="1"/>
        <pt x="40" y="40" on="1"/>
        <pt x="121" y="40" on="1"/>
        <pt x="208" y="660" on="1"/>
        <pt x="127" y="660" on="1"/>
        <pt x="133" y="700" on="1"/>
        <pt x="238" y="700" on="1"/>
        <pt x="252" y="678" on="0"/>
        <pt x="316" y="575" on="0"/>
        <pt x="397" y="446" on="0"/>
        <pt x="482" y="310" on="0"/>
        <pt x="517" y="255" on="1"/>
        <pt x="619" y="366" on="0"/>
        <pt x="820" y="589" on="0"/>
      </contour>
    </TTGlyph>
    <TTGlyph name="N" xMin="39" yMin="-32" xMax="913" yMax="700">
      <contour>
        <pt x="45" y="40" on="1"/>
        <pt x="126" y="40" on="1"/>
        <pt x="212" y="660" on="1"/>
        <pt x="131" y="660" on="1"/>
        <pt x="137" y="700" on="1"/>
        <pt x="245" y="700" on="1"/>
        <pt x="686" y="88" on="1"/>
        <pt x="701" y="62" on="1"/>
        <pt x="703" y="94" on="1"/>
        <pt x="782" y="660" on="1"/>
        <pt x="706" y="660" on="1"/>
        <pt x="712" y="700" on="1"/>
        <pt x="913" y="700" on="1"/>
        <pt x="907" y="660" on="1"/>
        <pt x="823" y="660" on="1"/>
        <pt x="727" y="-32" on="1"/>
        <pt x="263" y="607" on="1"/>
        <pt x="248" y="629" on="1"/>
        <pt x="246" y="601" on="1"/>
        <pt x="167" y="40" on="1"/>
        <pt x="246" y="40" on="1"/>
        <pt x="240" y="0" on="1"/>
        <pt x="39" y="0" on="1"/>
      </contour>
    </TTGlyph>
    <TTGlyph name="Ntilde" xMin="39" yMin="-32" xMax="913" yMax="838">
      <component glyphName="N" x="0" y="0" flags="0x4"/>
      <component glyphName="asciitilde" x="231" y="293" flags="0x4"/>
    </TTGlyph>
    <TTGlyph name="O" xMin="74" yMin="-8" xMax="811" yMax="708">
      <contour>
        <pt x="85" y="349" on="1"/>
        <pt x="95" y="423" on="0"/>
        <pt x="170" y="554" on="0"/>
        <pt x="280" y="651" on="0"/>
        <pt x="418" y="708" on="0"/>
        <pt x="492" y="708" on="1"/>
        <pt x="566" y="708" on="0"/>
        <pt x="689" y="651" on="0"/>
        <pt x="773" y="554" on="0"/>
        <pt x="811" y="423" on="0"/>
        <pt x="801" y="349" on="1"/>
        <pt x="790" y="275" on="0"/>
        <pt x="715" y="145" on="0"/>
        <pt x="604" y="48" on="0"/>
        <pt x="466" y="-8" on="0"/>
        <pt x="392" y="-8" on="1"/>
        <pt x="318" y="-8" on="0"/>
        <pt x="196" y="48" on="0"/>
        <pt x="112" y="145" on="0"/>
        <pt x="74" y="275" on="0"/>
      </contour>
      <contour>
        <pt x="127" y="348" on="1"/>
        <pt x="118" y="282" on="0"/>
        <pt x="151" y="167" on="0"/>
        <pt x="224" y="82" on="0"/>
        <pt x="331" y="32" on="0"/>
        <pt x="396" y="32" on="1"/>
        <pt x="461" y="32" on="0"/>
        <pt x="584" y="82" on="0"/>
        <pt x="683" y="168" on="0"/>
        <pt x="750" y="283" on="0"/>
        <pt x="759" y="349" on="1"/>
        <pt x="768" y="415" on="0"/>
        <pt x="734" y="531" on="0"/>
        <pt x="660" y="618" on="0"/>
        <pt x="552" y="668" on="0"/>
        <pt x="487" y="668" on="1"/>
        <pt x="422" y="668" on="0"/>
        <pt x="300" y="617" on="0"/>
        <pt x="202" y="530" on="0"/>
        <pt x="136" y="414" on="0"/>
      </contour>
    </TTGlyph>
    <TTGlyph name="Oacute" xMin="74" yMin="-8" xMax="811" yMax="883">
      <component glyphName="O" x="0" y="0" flags="0x204"/>
      <component glyphName="acute" x="391" y="271" flags="0x4"/>
    </TTGlyph>
    <TTGlyph name="Ocircumflex" xMin="74" yMin="-8" xMax="811" yMax="931">
      <component glyphName="O" x="0" y="0" flags="0x204"/>
      <component glyphName="asciicircum" x="280" y="271" flags="0x4"/>
    </TTGlyph>
    <TTGlyph name="Odieresis" xMin="74" yMin="-8" xMax="811" yMax="831">
      <component glyphName="O" x="0" y="0" flags="0x204"/>
      <component glyphName="dieresis" x="312" y="290" flags="0x4"/>
    </TTGlyph>
    <TTGlyph name="Ograve" xMin="74" yMin="-8" xMax="811" yMax="883">
      <component glyphName="O" x="0" y="0" flags="0x204"/>
      <component glyphName="grave" x="423" y="271" flags="0x4"/>
    </TTGlyph>
    <TTGlyph name="Oslash" xMin="74" yMin="-12" xMax="812" yMax="712">
      <contour>
        <pt x="127" y="348" on="1"/>
        <pt x="117" y="282" on="0"/>
        <pt x="151" y="166" on="0"/>
        <pt x="189" y="123" on="1"/>
        <pt x="309" y="245" on="0"/>
        <pt x="544" y="485" on="0"/>
        <pt x="664" y="606" on="1"/>
        <pt x="629" y="635" on="0"/>
        <pt x="539" y="668" on="0"/>
        <pt x="487" y="668" on="1"/>
        <pt x="422" y="668" on="0"/>
        <pt x="300" y="617" on="0"/>
        <pt x="202" y="530" on="0"/>
        <pt x="136" y="414" on="0"/>
      </contour>
      <contour>
        <pt x="396" y="32" on="1"/>
        <pt x="461" y="32" on="0"/>
        <pt x="584" y="82" on="0"/>
        <pt x="683" y="168" on="0"/>
        <pt x="751" y="283" on="0"/>
        <pt x="760" y="349" on="1"/>
        <pt x="770" y="418" on="0"/>
        <pt x="731" y="537" on="0"/>
        <pt x="689" y="581" on="1"/>
        <pt x="569" y="460" on="0"/>
        <pt x="334" y="219" on="0"/>
        <pt x="214" y="98" on="1"/>
        <pt x="249" y="66" on="0"/>
        <pt x="341" y="32" on="0"/>
      </contour>
      <contour>
        <pt x="85" y="349" on="1"/>
        <pt x="95" y="423" on="0"/>
        <pt x="170" y="554" on="0"/>
        <pt x="280" y="651" on="0"/>
        <pt x="418" y="708" on="0"/>
        <pt x="492" y="708" on="1"/>
        <pt x="552" y="708" on="0"/>
        <pt x="655" y="671" on="0"/>
        <pt x="696" y="637" on="1"/>
        <pt x="714" y="656" on="0"/>
        <pt x="751" y="693" on="0"/>
        <pt x="769" y="712" on="1"/>
        <pt x="782" y="700" on="0"/>
        <pt x="794" y="687" on="1"/>
        <pt x="775" y="668" on="0"/>
        <pt x="739" y="632" on="0"/>
        <pt x="721" y="613" on="1"/>
        <pt x="768" y="564" on="0"/>
        <pt x="812" y="427" on="0"/>
        <pt x="801" y="349" on="1"/>
        <pt x="790" y="275" on="0"/>
        <pt x="716" y="145" on="0"/>
        <pt x="605" y="48" on="0"/>
        <pt x="466" y="-8" on="0"/>
        <pt x="392" y="-8" on="1"/>
        <pt x="330" y="-8" on="0"/>
        <pt x="224" y="32" on="0"/>
        <pt x="183" y="67" on="1"/>
        <pt x="164" y="47" on="0"/>
        <pt x="126" y="8" on="0"/>
        <pt x="106" y="-12" on="1"/>
        <pt x="100" y="-5" on="0"/>
        <pt x="87" y="7" on="0"/>
        <pt x="81" y="14" on="1"/>
        <pt x="101" y="34" on="0"/>
        <pt x="138" y="72" on="0"/>
        <pt x="158" y="92" on="1"/>
        <pt x="114" y="141" on="0"/>
        <pt x="74" y="273" on="0"/>
      </contour>
    </TTGlyph>
    <TTGlyph name="Otilde" xMin="74" yMin="-8" xMax="811" yMax="872">
      <component glyphName="O" x="0" y="0" flags="0x204"/>
      <component glyphName="asciitilde" x="222" y="327" flags="0x4"/>
    </TTGlyph>
    <TTGlyph name="P" xMin="35" yMin="0" xMax="540" yMax="700">
      <contour>
        <pt x="40" y="40" on="1"/>
        <pt x="101" y="40" on="1"/>
        <pt x="188" y="660" on="1"/>
        <pt x="127" y="660" on="1"/>
        <pt x="133" y="700" on="1"/>
        <pt x="344" y="700" on="1"/>
        <pt x="375" y="700" on="0"/>
        <pt x="447" y="680" on="0"/>
        <pt x="505" y="636" on="0"/>
        <pt x="540" y="566" on="0"/>
        <pt x="533" y="517" on="1"/>
        <pt x="520" y="431" on="0"/>
        <pt x="396" y="329" on="0"/>
        <pt x="293" y="329" on="1"/>
        <pt x="183" y="329" on="1"/>
        <pt x="142" y="40" on="1"/>
        <pt x="241" y="40" on="1"/>
        <pt x="236" y="0" on="1"/>
        <pt x="35" y="0" on="1"/>
      </contour>
      <contour>
        <pt x="189" y="370" on="1"/>
        <pt x="292" y="370" on="1"/>
        <pt x="344" y="370" on="0"/>
        <pt x="417" y="398" on="0"/>
        <pt x="464" y="442" on="0"/>
        <pt x="488" y="493" on="0"/>
        <pt x="491" y="517" on="1"/>
        <pt x="495" y="545" on="0"/>
        <pt x="475" y="597" on="0"/>
        <pt x="433" y="637" on="0"/>
        <pt x="372" y="660" on="0"/>
        <pt x="334" y="660" on="1"/>
        <pt x="230" y="660" on="1"/>
      </contour>
    </TTGlyph>
    <TTGlyph name="Q" xMin="74" yMin="-8" xMax="811" yMax="708">
      <contour>
        <pt x="127" y="348" on="1"/>
        <pt x="118" y="283" on="0"/>
        <pt x="151" y="168" on="0"/>
        <pt x="224" y="82" on="0"/>
        <pt x="330" y="32" on="0"/>
        <pt x="395" y="32" on="1"/>
        <pt x="461" y="32" on="0"/>
        <pt x="584" y="82" on="0"/>
        <pt x="683" y="168" on="0"/>
        <pt x="750" y="283" on="0"/>
        <pt x="759" y="349" on="1"/>
        <pt x="768" y="415" on="0"/>
        <pt x="734" y="531" on="0"/>
        <pt x="660" y="618" on="0"/>
        <pt x="551" y="668" on="0"/>
        <pt x="486" y="668" on="1"/>
        <pt x="421" y="668" on="0"/>
        <pt x="299" y="617" on="0"/>
        <pt x="202" y="530" on="0"/>
        <pt x="136" y="414" on="0"/>
      </contour>
      <contour>
        <pt x="85" y="349" on="1"/>
        <pt x="95" y="423" on="0"/>
        <pt x="170" y="554" on="0"/>
        <pt x="280" y="651" on="0"/>
        <pt x="418" y="708" on="0"/>
        <pt x="492" y="708" on="1"/>
        <pt x="566" y="708" on="0"/>
        <pt x="689" y="651" on="0"/>
        <pt x="773" y="554" on="0"/>
        <pt x="811" y="423" on="0"/>
        <pt x="801" y="349" on="1"/>
        <pt x="793" y="298" on="0"/>
        <pt x="752" y="204" on="0"/>
        <pt x="691" y="125" on="0"/>
        <pt x="612" y="61" on="0"/>
        <pt x="567" y="40" on="1"/>
        <pt x="780" y="40" on="1"/>
        <pt x="774" y="0" on="1"/>
        <pt x="467" y="0" on="1"/>
        <pt x="427" y="-8" on="0"/>
        <pt x="392" y="-8" on="1"/>
        <pt x="318" y="-8" on="0"/>
        <pt x="196" y="48" on="0"/>
        <pt x="112" y="145" on="0"/>
        <pt x="74" y="275" on="0"/>
      </contour>
    </TTGlyph>
    <TTGlyph name="R" xMin="35" yMin="0" xMax="542" yMax="700">
      <contour>
        <pt x="40" y="40" on="1"/>
        <pt x="101" y="40" on="1"/>
        <pt x="188" y="660" on="1"/>
        <pt x="127" y="660" on="1"/>
        <pt x="133" y="700" on="1"/>
        <pt x="344" y="700" on="1"/>
        <pt x="375" y="700" on="0"/>
        <pt x="447" y="680" on="0"/>
        <pt x="505" y="636" on="0"/>
        <pt x="540" y="566" on="0"/>
        <pt x="533" y="517" on="1"/>
        <pt x="522" y="445" on="0"/>
        <pt x="432" y="350" on="0"/>
        <pt x="357" y="335" on="1"/>
        <pt x="454" y="40" on="1"/>
        <pt x="542" y="40" on="1"/>
        <pt x="537" y="0" on="1"/>
        <pt x="423" y="0" on="1"/>
        <pt x="313" y="331" on="1"/>
        <pt x="302" y="330" on="0"/>
        <pt x="278" y="329" on="0"/>
        <pt x="267" y="329" on="1"/>
        <pt x="183" y="329" on="1"/>
        <pt x="142" y="40" on="1"/>
        <pt x="241" y="40" on="1"/>
        <pt x="236" y="0" on="1"/>
        <pt x="35" y="0" on="1"/>
      </contour>
      <contour>
        <pt x="189" y="370" on="1"/>
        <pt x="292" y="370" on="1"/>
        <pt x="344" y="370" on="0"/>
        <pt x="417" y="398" on="0"/>
        <pt x="464" y="442" on="0"/>
        <pt x="488" y="493" on="0"/>
        <pt x="491" y="517" on="1"/>
        <pt x="495" y="545" on="0"/>
        <pt x="475" y="597" on="0"/>
        <pt x="433" y="637" on="0"/>
        <pt x="372" y="660" on="0"/>
        <pt x="334" y="660" on="1"/>
        <pt x="230" y="660" on="1"/>
      </contour>
    </TTGlyph>
    <TTGlyph name="S" xMin="48" yMin="-8" xMax="493" yMax="704">
      <contour>
        <pt x="48" y="76" on="1"/>
        <pt x="62" y="182" on="1"/>
        <pt x="102" y="182" on="1"/>
        <pt x="89" y="92" on="1"/>
        <pt x="114" y="67" on="0"/>
        <pt x="189" y="32" on="0"/>
        <pt x="244" y="32" on="1"/>
        <pt x="277" y="32" on="0"/>
        <pt x="343" y="53" on="0"/>
        <pt x="396" y="92" on="0"/>
        <pt x="433" y="148" on="0"/>
        <pt x="438" y="184" on="1"/>
        <pt x="444" y="228" on="0"/>
        <pt x="423" y="284" on="0"/>
        <pt x="379" y="320" on="0"/>
        <pt x="320" y="342" on="0"/>
        <pt x="258" y="361" on="0"/>
        <pt x="198" y="383" on="0"/>
        <pt x="152" y="419" on="0"/>
        <pt x="128" y="474" on="0"/>
        <pt x="132" y="517" on="1"/>
        <pt x="135" y="550" on="0"/>
        <pt x="164" y="617" on="0"/>
        <pt x="216" y="670" on="0"/>
        <pt x="291" y="704" on="0"/>
        <pt x="341" y="704" on="1"/>
        <pt x="375" y="704" on="0"/>
        <pt x="459" y="686" on="0"/>
        <pt x="493" y="654" on="1"/>
        <pt x="478" y="546" on="1"/>
        <pt x="438" y="546" on="1"/>
        <pt x="451" y="634" on="1"/>
        <pt x="433" y="646" on="0"/>
        <pt x="375" y="664" on="0"/>
        <pt x="334" y="664" on="1"/>
        <pt x="299" y="664" on="0"/>
        <pt x="244" y="641" on="0"/>
        <pt x="203" y="602" on="0"/>
        <pt x="179" y="551" on="0"/>
        <pt x="175" y="524" on="1"/>
        <pt x="170" y="488" on="0"/>
        <pt x="194" y="442" on="0"/>
        <pt x="239" y="412" on="0"/>
        <pt x="299" y="392" on="0"/>
        <pt x="362" y="372" on="0"/>
        <pt x="421" y="345" on="0"/>
        <pt x="465" y="302" on="0"/>
        <pt x="487" y="236" on="0"/>
        <pt x="481" y="186" on="1"/>
        <pt x="475" y="142" on="0"/>
        <pt x="432" y="70" on="0"/>
        <pt x="367" y="19" on="0"/>
        <pt x="286" y="-8" on="0"/>
        <pt x="243" y="-8" on="1"/>
        <pt x="204" y="-8" on="0"/>
        <pt x="140" y="8" on="0"/>
        <pt x="90" y="33" on="0"/>
        <pt x="57" y="63" on="0"/>
      </contour>
    </TTGlyph>
    <TTGlyph name="T" xMin="111" yMin="0" xMax="686" yMax="700">
      <contour>
        <pt x="214" y="40" on="1"/>
        <pt x="296" y="40" on="1"/>
        <pt x="383" y="660" on="1"/>
        <pt x="167" y="660" on="1"/>
        <pt x="151" y="546" on="1"/>
        <pt x="111" y="546" on="1"/>
        <pt x="133" y="700" on="1"/>
        <pt x="686" y="700" on="1"/>
        <pt x="664" y="546" on="1"/>
        <pt x="624" y="546" on="1"/>
        <pt x="640" y="660" on="1"/>
        <pt x="425" y="660" on="1"/>
        <pt x="337" y="40" on="1"/>
        <pt x="415" y="40" on="1"/>
        <pt x="410" y="0" on="1"/>
        <pt x="209" y="0" on="1"/>
      </contour>
    </TTGlyph>
    <TTGlyph name="Thorn" xMin="35" yMin="0" xMax="527" yMax="700">
      <contour>
        <pt x="40" y="40" on="1"/>
        <pt x="111" y="40" on="1"/>
        <pt x="198" y="660" on="1"/>
        <pt x="127" y="660" on="1"/>
        <pt x="133" y="700" on="1"/>
        <pt x="326" y="700" on="1"/>
        <pt x="321" y="660" on="1"/>
        <pt x="240" y="660" on="1"/>
        <pt x="223" y="535" on="1"/>
        <pt x="331" y="535" on="1"/>
        <pt x="362" y="535" on="0"/>
        <pt x="434" y="515" on="0"/>
        <pt x="493" y="471" on="0"/>
        <pt x="527" y="401" on="0"/>
        <pt x="520" y="352" on="1"/>
        <pt x="508" y="266" on="0"/>
        <pt x="384" y="164" on="0"/>
        <pt x="281" y="164" on="1"/>
        <pt x="170" y="164" on="1"/>
        <pt x="153" y="40" on="1"/>
        <pt x="241" y="40" on="1"/>
        <pt x="236" y="0" on="1"/>
        <pt x="35" y="0" on="1"/>
      </contour>
      <contour>
        <pt x="176" y="205" on="1"/>
        <pt x="279" y="205" on="1"/>
        <pt x="331" y="205" on="0"/>
        <pt x="405" y="233" on="0"/>
        <pt x="451" y="277" on="0"/>
        <pt x="475" y="328" on="0"/>
        <pt x="478" y="352" on="1"/>
        <pt x="482" y="380" on="0"/>
        <pt x="463" y="432" on="0"/>
        <pt x="421" y="472" on="0"/>
        <pt x="359" y="495" on="0"/>
        <pt x="322" y="495" on="1"/>
        <pt x="217" y="495" on="1"/>
      </contour>
    </TTGlyph>
    <TTGlyph name="U" xMin="128" yMin="-8" xMax="760" yMax="700">
      <contour>
        <pt x="134" y="700" on="1"/>
        <pt x="335" y="700" on="1"/>
        <pt x="330" y="660" on="1"/>
        <pt x="247" y="660" on="1"/>
        <pt x="187" y="229" on="1"/>
        <pt x="180" y="181" on="0"/>
        <pt x="198" y="108" on="0"/>
        <pt x="243" y="58" on="0"/>
        <pt x="310" y="32" on="0"/>
        <pt x="353" y="32" on="1"/>
        <pt x="395" y="32" on="0"/>
        <pt x="470" y="58" on="0"/>
        <pt x="529" y="108" on="0"/>
        <pt x="568" y="181" on="0"/>
        <pt x="575" y="229" on="1"/>
        <pt x="636" y="660" on="1"/>
        <pt x="553" y="660" on="1"/>
        <pt x="559" y="700" on="1"/>
        <pt x="760" y="700" on="1"/>
        <pt x="754" y="660" on="1"/>
        <pt x="677" y="660" on="1"/>
        <pt x="616" y="226" on="1"/>
        <pt x="608" y="169" on="0"/>
        <pt x="560" y="81" on="0"/>
        <pt x="488" y="22" on="0"/>
        <pt x="398" y="-8" on="0"/>
        <pt x="348" y="-8" on="1"/>
        <pt x="297" y="-8" on="0"/>
        <pt x="215" y="22" on="0"/>
        <pt x="160" y="81" on="0"/>
        <pt x="136" y="169" on="0"/>
        <pt x="144" y="226" on="1"/>
        <pt x="205" y="660" on="1"/>
        <pt x="128" y="660" on="1"/>
      </contour>
    </TTGlyph>
    <TTGlyph name="Uacute" xMin="128" yMin="-8" xMax="760" yMax="883">
      <component glyphName="U" x="0" y="0" flags="0x204"/>
      <component glyphName="acute" x="337" y="271" flags="0x4"/>
    </TTGlyph>
    <TTGlyph name="Ucircumflex" xMin="128" yMin="-8" xMax="760" yMax="931">
      <component glyphName="U" x="0" y="0" flags="0x204"/>
      <component glyphName="asciicircum" x="236" y="271" flags="0x4"/>
    </TTGlyph>
    <TTGlyph name="Udieresis" xMin="128" yMin="-8" xMax="760" yMax="832">
      <component glyphName="U" x="0" y="0" flags="0x204"/>
      <component glyphName="dieresis" x="272" y="291" flags="0x4"/>
    </TTGlyph>
    <TTGlyph name="Ugrave" xMin="128" yMin="-8" xMax="760" yMax="883">
      <component glyphName="U" x="0" y="0" flags="0x204"/>
      <component glyphName="grave" x="382" y="271" flags="0x4"/>
    </TTGlyph>
    <TTGlyph name="V" xMin="131" yMin="-32" xMax="897" yMax="700">
      <contour>
        <pt x="137" y="700" on="1"/>
        <pt x="338" y="700" on="1"/>
        <pt x="333" y="660" on="1"/>
        <pt x="258" y="660" on="1"/>
        <pt x="299" y="516" on="0"/>
        <pt x="379" y="232" on="0"/>
        <pt x="421" y="89" on="1"/>
        <pt x="425" y="61" on="1"/>
        <pt x="439" y="89" on="1"/>
        <pt x="519" y="232" on="0"/>
        <pt x="679" y="516" on="0"/>
        <pt x="760" y="660" on="1"/>
        <pt x="691" y="660" on="1"/>
        <pt x="696" y="700" on="1"/>
        <pt x="897" y="700" on="1"/>
        <pt x="892" y="660" on="1"/>
        <pt x="802" y="660" on="1"/>
        <pt x="705" y="486" on="0"/>
        <pt x="510" y="142" on="0"/>
        <pt x="413" y="-32" on="1"/>
        <pt x="363" y="142" on="0"/>
        <pt x="265" y="486" on="0"/>
        <pt x="215" y="660" on="1"/>
        <pt x="131" y="660" on="1"/>
      </contour>
    </TTGlyph>
    <TTGlyph name="W" xMin="131" yMin="-32" xMax="1270" yMax="700">
      <contour>
        <pt x="137" y="700" on="1"/>
        <pt x="338" y="700" on="1"/>
        <pt x="333" y="660" on="1"/>
        <pt x="258" y="660" on="1"/>
        <pt x="299" y="516" on="0"/>
        <pt x="378" y="232" on="0"/>
        <pt x="421" y="89" on="1"/>
        <pt x="425" y="61" on="1"/>
        <pt x="473" y="161" on="0"/>
        <pt x="591" y="359" on="0"/>
        <pt x="646" y="457" on="1"/>
        <pt x="632" y="508" on="0"/>
        <pt x="603" y="609" on="0"/>
        <pt x="588" y="660" on="1"/>
        <pt x="504" y="660" on="1"/>
        <pt x="510" y="700" on="1"/>
        <pt x="711" y="700" on="1"/>
        <pt x="705" y="660" on="1"/>
        <pt x="631" y="660" on="1"/>
        <pt x="671" y="516" on="0"/>
        <pt x="751" y="232" on="0"/>
        <pt x="793" y="89" on="1"/>
        <pt x="798" y="61" on="1"/>
        <pt x="811" y="89" on="1"/>
        <pt x="892" y="232" on="0"/>
        <pt x="1051" y="516" on="0"/>
        <pt x="1132" y="660" on="1"/>
        <pt x="1063" y="660" on="1"/>
        <pt x="1069" y="700" on="1"/>
        <pt x="1270" y="700" on="1"/>
        <pt x="1265" y="660" on="1"/>
        <pt x="1175" y="660" on="1"/>
        <pt x="1078" y="486" on="0"/>
        <pt x="882" y="142" on="0"/>
        <pt x="785" y="-32" on="1"/>
        <pt x="666" y="385" on="1"/>
        <pt x="661" y="412" on="1"/>
        <pt x="606" y="301" on="0"/>
        <pt x="474" y="77" on="0"/>
        <pt x="413" y="-32" on="1"/>
        <pt x="363" y="142" on="0"/>
        <pt x="265" y="486" on="0"/>
        <pt x="215" y="660" on="1"/>
        <pt x="131" y="660" on="1"/>
      </contour>
    </TTGlyph>
    <TTGlyph name="X" xMin="35" yMin="0" xMax="767" yMax="700">
      <contour>
        <pt x="133" y="700" on="1"/>
        <pt x="334" y="700" on="1"/>
        <pt x="329" y="660" on="1"/>
        <pt x="271" y="660" on="1"/>
        <pt x="304" y="597" on="0"/>
        <pt x="368" y="471" on="0"/>
        <pt x="400" y="408" on="1"/>
        <pt x="407" y="390" on="1"/>
        <pt x="420" y="408" on="1"/>
        <pt x="617" y="660" on="1"/>
        <pt x="560" y="660" on="1"/>
        <pt x="565" y="700" on="1"/>
        <pt x="767" y="700" on="1"/>
        <pt x="761" y="660" on="1"/>
        <pt x="667" y="660" on="1"/>
        <pt x="607" y="582" on="0"/>
        <pt x="488" y="431" on="0"/>
        <pt x="428" y="354" on="1"/>
        <pt x="467" y="275" on="0"/>
        <pt x="548" y="119" on="0"/>
        <pt x="588" y="40" on="1"/>
        <pt x="674" y="40" on="1"/>
        <pt x="669" y="0" on="1"/>
        <pt x="467" y="0" on="1"/>
        <pt x="472" y="40" on="1"/>
        <pt x="536" y="40" on="1"/>
        <pt x="418" y="271" on="1"/>
        <pt x="412" y="283" on="0"/>
        <pt x="400" y="311" on="0"/>
        <pt x="393" y="323" on="1"/>
        <pt x="381" y="304" on="1"/>
        <pt x="329" y="237" on="0"/>
        <pt x="226" y="106" on="0"/>
        <pt x="174" y="40" on="1"/>
        <pt x="241" y="40" on="1"/>
        <pt x="236" y="0" on="1"/>
        <pt x="35" y="0" on="1"/>
        <pt x="40" y="40" on="1"/>
        <pt x="123" y="40" on="1"/>
        <pt x="374" y="359" on="1"/>
        <pt x="221" y="660" on="1"/>
        <pt x="127" y="660" on="1"/>
      </contour>
    </TTGlyph>
    <TTGlyph name="Y" xMin="127" yMin="0" xMax="809" yMax="700">
      <contour>
        <pt x="280" y="40" on="1"/>
        <pt x="354" y="40" on="1"/>
        <pt x="385" y="265" on="1"/>
        <pt x="340" y="364" on="0"/>
        <pt x="250" y="561" on="0"/>
        <pt x="205" y="660" on="1"/>
        <pt x="127" y="660" on="1"/>
        <pt x="133" y="700" on="1"/>
        <pt x="334" y="700" on="1"/>
        <pt x="329" y="660" on="1"/>
        <pt x="256" y="660" on="1"/>
        <pt x="294" y="577" on="0"/>
        <pt x="370" y="413" on="0"/>
        <pt x="407" y="330" on="1"/>
        <pt x="415" y="302" on="1"/>
        <pt x="416" y="302" on="1"/>
        <pt x="431" y="330" on="1"/>
        <pt x="674" y="660" on="1"/>
        <pt x="603" y="660" on="1"/>
        <pt x="608" y="700" on="1"/>
        <pt x="809" y="700" on="1"/>
        <pt x="804" y="660" on="1"/>
        <pt x="725" y="660" on="1"/>
        <pt x="652" y="560" on="0"/>
        <pt x="507" y="364" on="0"/>
        <pt x="434" y="265" on="1"/>
        <pt x="403" y="40" on="1"/>
        <pt x="481" y="40" on="1"/>
        <pt x="476" y="0" on="1"/>
        <pt x="275" y="0" on="1"/>
      </contour>
    </TTGlyph>
    <TTGlyph name="Yacute" xMin="127" yMin="0" xMax="809" yMax="883">
      <component glyphName="Y" x="0" y="0" flags="0x204"/>
      <component glyphName="acute" x="374" y="271" flags="0x4"/>
    </TTGlyph>
    <TTGlyph name="Z" xMin="35" yMin="0" xMax="663" yMax="735">
      <contour>
        <pt x="622" y="201" on="1"/>
        <pt x="594" y="0" on="1"/>
        <pt x="35" y="0" on="1"/>
        <pt x="40" y="40" on="1"/>
        <pt x="605" y="660" on="1"/>
        <pt x="144" y="660" on="1"/>
        <pt x="155" y="735" on="1"/>
        <pt x="197" y="735" on="1"/>
        <pt x="192" y="700" on="1"/>
        <pt x="663" y="700" on="1"/>
        <pt x="657" y="660" on="1"/>
        <pt x="93" y="40" on="1"/>
        <pt x="559" y="40" on="1"/>
        <pt x="582" y="201" on="1"/>
      </contour>
    </TTGlyph>
    <TTGlyph name="a" xMin="56" yMin="-7" xMax="509" yMax="383">
      <contour>
        <pt x="62" y="188" on="1"/>
        <pt x="68" y="228" on="0"/>
        <pt x="108" y="299" on="0"/>
        <pt x="169" y="352" on="0"/>
        <pt x="245" y="383" on="0"/>
        <pt x="286" y="383" on="1"/>
        <pt x="315" y="383" on="0"/>
        <pt x="365" y="366" on="0"/>
        <pt x="403" y="339" on="0"/>
        <pt x="428" y="304" on="0"/>
        <pt x="432" y="287" on="1"/>
        <pt x="435" y="309" on="0"/>
        <pt x="444" y="353" on="0"/>
        <pt x="448" y="375" on="1"/>
        <pt x="482" y="375" on="1"/>
        <pt x="435" y="40" on="1"/>
        <pt x="509" y="40" on="1"/>
        <pt x="503" y="0" on="1"/>
        <pt x="392" y="0" on="1"/>
        <pt x="398" y="40" on="1"/>
        <pt x="400" y="52" on="0"/>
        <pt x="402" y="75" on="0"/>
        <pt x="404" y="86" on="1"/>
        <pt x="395" y="69" on="0"/>
        <pt x="362" y="35" on="0"/>
        <pt x="317" y="9" on="0"/>
        <pt x="262" y="-7" on="0"/>
        <pt x="232" y="-7" on="1"/>
        <pt x="191" y="-7" on="0"/>
        <pt x="123" y="24" on="0"/>
        <pt x="77" y="76" on="0"/>
        <pt x="56" y="147" on="0"/>
      </contour>
      <contour>
        <pt x="104" y="188" on="1"/>
        <pt x="99" y="156" on="0"/>
        <pt x="115" y="100" on="0"/>
        <pt x="151" y="58" on="0"/>
        <pt x="204" y="34" on="0"/>
        <pt x="237" y="34" on="1"/>
        <pt x="270" y="34" on="0"/>
        <pt x="330" y="58" on="0"/>
        <pt x="378" y="100" on="0"/>
        <pt x="409" y="156" on="0"/>
        <pt x="414" y="188" on="1"/>
        <pt x="418" y="220" on="0"/>
        <pt x="402" y="277" on="0"/>
        <pt x="366" y="319" on="0"/>
        <pt x="313" y="343" on="0"/>
        <pt x="280" y="343" on="1"/>
        <pt x="247" y="343" on="0"/>
        <pt x="188" y="319" on="0"/>
        <pt x="140" y="277" on="0"/>
        <pt x="108" y="220" on="0"/>
      </contour>
    </TTGlyph>
    <TTGlyph name="aacute" xMin="56" yMin="-7" xMax="509" yMax="612">
      <component glyphName="a" x="0" y="0" flags="0x204"/>
      <component glyphName="acute" x="208" y="0" flags="0x4"/>
    </TTGlyph>
    <TTGlyph name="acircumflex" xMin="56" yMin="-7" xMax="509" yMax="660">
      <component glyphName="a" x="0" y="0" flags="0x204"/>
      <component glyphName="asciicircum" x="104" y="0" flags="0x4"/>
    </TTGlyph>
    <TTGlyph name="acute" xMin="100" yMin="479" xMax="251" yMax="612">
      <contour>
        <pt x="100" y="479" on="1"/>
        <pt x="127" y="512" on="0"/>
        <pt x="181" y="579" on="0"/>
        <pt x="208" y="612" on="1"/>
        <pt x="251" y="612" on="1"/>
        <pt x="222" y="579" on="0"/>
        <pt x="162" y="512" on="0"/>
        <pt x="133" y="479" on="1"/>
      </contour>
    </TTGlyph>
    <TTGlyph name="adieresis" xMin="56" yMin="-7" xMax="509" yMax="541">
      <component glyphName="a" x="0" y="0" flags="0x204"/>
      <component glyphName="dieresis" x="131" y="0" flags="0x4"/>
    </TTGlyph>
    <TTGlyph name="ae" xMin="45" yMin="-10" xMax="593" yMax="382">
      <contour>
        <pt x="383" y="241" on="1"/>
        <pt x="378" y="203" on="1"/>
        <pt x="420" y="218" on="0"/>
        <pt x="501" y="249" on="0"/>
        <pt x="543" y="264" on="1"/>
        <pt x="530" y="299" on="0"/>
        <pt x="473" y="341" on="0"/>
        <pt x="435" y="341" on="1"/>
        <pt x="418" y="341" on="0"/>
        <pt x="387" y="334" on="0"/>
        <pt x="373" y="329" on="1"/>
        <pt x="384" y="315" on="0"/>
        <pt x="388" y="272" on="0"/>
      </contour>
      <contour>
        <pt x="330" y="160" on="1"/>
        <pt x="251" y="160" on="1"/>
        <pt x="236" y="160" on="0"/>
        <pt x="185" y="160" on="0"/>
        <pt x="134" y="149" on="0"/>
        <pt x="95" y="125" on="0"/>
        <pt x="92" y="101" on="1"/>
        <pt x="89" y="79" on="0"/>
        <pt x="107" y="52" on="0"/>
        <pt x="139" y="37" on="0"/>
        <pt x="180" y="31" on="0"/>
        <pt x="199" y="31" on="1"/>
        <pt x="218" y="31" on="0"/>
        <pt x="259" y="37" on="0"/>
        <pt x="294" y="53" on="0"/>
        <pt x="319" y="82" on="0"/>
        <pt x="322" y="106" on="1"/>
      </contour>
      <contour>
        <pt x="130" y="309" on="1"/>
        <pt x="125" y="316" on="0"/>
        <pt x="114" y="330" on="0"/>
        <pt x="108" y="337" on="1"/>
        <pt x="120" y="346" on="0"/>
        <pt x="153" y="363" on="0"/>
        <pt x="191" y="375" on="0"/>
        <pt x="231" y="382" on="0"/>
        <pt x="248" y="382" on="1"/>
        <pt x="322" y="382" on="0"/>
        <pt x="353" y="363" on="1"/>
        <pt x="397" y="382" on="0"/>
        <pt x="441" y="382" on="1"/>
        <pt x="471" y="382" on="0"/>
        <pt x="522" y="361" on="0"/>
        <pt x="561" y="323" on="0"/>
        <pt x="588" y="272" on="0"/>
        <pt x="593" y="241" on="1"/>
        <pt x="537" y="221" on="0"/>
        <pt x="427" y="179" on="0"/>
        <pt x="372" y="159" on="1"/>
        <pt x="367" y="128" on="1"/>
        <pt x="363" y="99" on="0"/>
        <pt x="346" y="60" on="0"/>
        <pt x="329" y="45" on="1"/>
        <pt x="355" y="32" on="0"/>
        <pt x="392" y="32" on="1"/>
        <pt x="423" y="32" on="0"/>
        <pt x="480" y="54" on="0"/>
        <pt x="503" y="74" on="1"/>
        <pt x="524" y="44" on="1"/>
        <pt x="495" y="19" on="0"/>
        <pt x="425" y="-9" on="0"/>
        <pt x="386" y="-9" on="1"/>
        <pt x="336" y="-9" on="0"/>
        <pt x="299" y="12" on="1"/>
        <pt x="261" y="-10" on="0"/>
        <pt x="193" y="-10" on="1"/>
        <pt x="157" y="-10" on="0"/>
        <pt x="100" y="1" on="0"/>
        <pt x="62" y="26" on="0"/>
        <pt x="45" y="69" on="0"/>
        <pt x="50" y="102" on="1"/>
        <pt x="54" y="130" on="0"/>
        <pt x="85" y="169" on="0"/>
        <pt x="130" y="193" on="0"/>
        <pt x="184" y="203" on="0"/>
        <pt x="213" y="203" on="1"/>
        <pt x="336" y="203" on="1"/>
        <pt x="341" y="243" on="1"/>
        <pt x="345" y="268" on="0"/>
        <pt x="342" y="305" on="0"/>
        <pt x="321" y="329" on="0"/>
        <pt x="278" y="341" on="0"/>
        <pt x="241" y="341" on="1"/>
        <pt x="227" y="341" on="0"/>
        <pt x="196" y="335" on="0"/>
        <pt x="165" y="326" on="0"/>
        <pt x="139" y="315" on="0"/>
      </contour>
    </TTGlyph>
    <TTGlyph name="agrave" xMin="56" yMin="-7" xMax="509" yMax="612">
      <component glyphName="a" x="0" y="0" flags="0x204"/>
      <component glyphName="grave" x="215" y="0" flags="0x4"/>
    </TTGlyph>
    <TTGlyph name="ampersand" xMin="77" yMin="-19" xMax="600" yMax="748">
      <contour>
        <pt x="456" y="375" on="1"/>
        <pt x="600" y="375" on="1"/>
        <pt x="594" y="334" on="1"/>
        <pt x="493" y="334" on="1"/>
        <pt x="483" y="266" on="1"/>
        <pt x="479" y="230" on="0"/>
        <pt x="465" y="146" on="0"/>
        <pt x="442" y="108" on="1"/>
        <pt x="492" y="3" on="1"/>
        <pt x="457" y="-19" on="1"/>
        <pt x="415" y="68" on="1"/>
        <pt x="383" y="33" on="0"/>
        <pt x="296" y="-8" on="0"/>
        <pt x="248" y="-8" on="1"/>
        <pt x="210" y="-8" on="0"/>
        <pt x="148" y="17" on="0"/>
        <pt x="102" y="62" on="0"/>
        <pt x="77" y="123" on="0"/>
        <pt x="77" y="158" on="1"/>
        <pt x="77" y="199" on="0"/>
        <pt x="107" y="274" on="0"/>
        <pt x="159" y="332" on="0"/>
        <pt x="229" y="372" on="0"/>
        <pt x="268" y="379" on="1"/>
        <pt x="213" y="496" on="1"/>
        <pt x="195" y="533" on="0"/>
        <pt x="195" y="573" on="1"/>
        <pt x="195" y="600" on="0"/>
        <pt x="219" y="662" on="0"/>
        <pt x="265" y="714" on="0"/>
        <pt x="333" y="748" on="0"/>
        <pt x="377" y="748" on="1"/>
        <pt x="414" y="748" on="0"/>
        <pt x="477" y="722" on="0"/>
        <pt x="500" y="706" on="1"/>
        <pt x="478" y="672" on="1"/>
        <pt x="456" y="686" on="0"/>
        <pt x="402" y="709" on="0"/>
        <pt x="372" y="709" on="1"/>
        <pt x="339" y="709" on="0"/>
        <pt x="288" y="681" on="0"/>
        <pt x="254" y="639" on="0"/>
        <pt x="237" y="591" on="0"/>
        <pt x="237" y="572" on="1"/>
        <pt x="237" y="539" on="0"/>
        <pt x="252" y="508" on="1"/>
        <pt x="413" y="168" on="1"/>
        <pt x="430" y="192" on="0"/>
        <pt x="435" y="223" on="1"/>
      </contour>
      <contour>
        <pt x="120" y="187" on="1"/>
        <pt x="119" y="181" on="0"/>
        <pt x="118" y="169" on="0"/>
        <pt x="118" y="164" on="1"/>
        <pt x="118" y="136" on="0"/>
        <pt x="138" y="88" on="0"/>
        <pt x="174" y="53" on="0"/>
        <pt x="224" y="33" on="0"/>
        <pt x="254" y="33" on="1"/>
        <pt x="297" y="33" on="0"/>
        <pt x="372" y="74" on="0"/>
        <pt x="396" y="107" on="1"/>
        <pt x="286" y="341" on="1"/>
        <pt x="254" y="338" on="0"/>
        <pt x="198" y="313" on="0"/>
        <pt x="153" y="273" on="0"/>
        <pt x="124" y="219" on="0"/>
      </contour>
    </TTGlyph>
    <TTGlyph name="aring" xMin="56" yMin="-7" xMax="509" yMax="613">
      <component glyphName="a" x="0" y="0" flags="0x204"/>
      <component glyphName="ring" x="131" y="0" flags="0x4"/>
    </TTGlyph>
    <TTGlyph name="asciicircum" xMin="99" yMin="479" xMax="339" yMax="660">
      <contour>
        <pt x="244" y="660" on="1"/>
        <pt x="268" y="615" on="0"/>
        <pt x="315" y="524" on="0"/>
        <pt x="339" y="479" on="1"/>
        <pt x="306" y="479" on="1"/>
        <pt x="288" y="509" on="0"/>
        <pt x="253" y="570" on="0"/>
        <pt x="236" y="600" on="1"/>
        <pt x="210" y="570" on="0"/>
        <pt x="158" y="509" on="0"/>
        <pt x="132" y="479" on="1"/>
        <pt x="99" y="479" on="1"/>
        <pt x="135" y="524" on="0"/>
        <pt x="208" y="615" on="0"/>
      </contour>
    </TTGlyph>
    <TTGlyph name="asciitilde" xMin="130" yMin="455" xMax="435" yMax="545">
      <contour>
        <pt x="272" y="491" on="1"/>
        <pt x="258" y="508" on="0"/>
        <pt x="237" y="519" on="0"/>
        <pt x="223" y="519" on="1"/>
        <pt x="215" y="519" on="0"/>
        <pt x="195" y="515" on="0"/>
        <pt x="176" y="504" on="0"/>
        <pt x="158" y="484" on="0"/>
        <pt x="154" y="468" on="1"/>
        <pt x="148" y="469" on="0"/>
        <pt x="135" y="469" on="0"/>
        <pt x="130" y="470" on="1"/>
        <pt x="133" y="489" on="0"/>
        <pt x="153" y="517" on="0"/>
        <pt x="180" y="536" on="0"/>
        <pt x="211" y="545" on="0"/>
        <pt x="225" y="545" on="1"/>
        <pt x="246" y="545" on="0"/>
        <pt x="279" y="526" on="0"/>
        <pt x="293" y="509" on="1"/>
        <pt x="306" y="492" on="0"/>
        <pt x="328" y="481" on="0"/>
        <pt x="342" y="481" on="1"/>
        <pt x="349" y="481" on="0"/>
        <pt x="369" y="485" on="0"/>
        <pt x="389" y="496" on="0"/>
        <pt x="406" y="516" on="0"/>
        <pt x="410" y="532" on="1"/>
        <pt x="416" y="531" on="0"/>
        <pt x="429" y="531" on="0"/>
        <pt x="435" y="530" on="1"/>
        <pt x="427" y="492" on="0"/>
        <pt x="369" y="455" on="0"/>
        <pt x="340" y="455" on="1"/>
        <pt x="319" y="455" on="0"/>
        <pt x="286" y="474" on="0"/>
      </contour>
    </TTGlyph>
    <TTGlyph name="asterisk" xMin="26" yMin="434" xMax="309" yMax="720">
      <contour>
        <pt x="208" y="575" on="1"/>
        <pt x="230" y="562" on="0"/>
        <pt x="272" y="536" on="0"/>
        <pt x="293" y="522" on="1"/>
        <pt x="287" y="513" on="0"/>
        <pt x="273" y="494" on="0"/>
        <pt x="266" y="484" on="1"/>
        <pt x="182" y="538" on="1"/>
        <pt x="177" y="512" on="0"/>
        <pt x="170" y="460" on="0"/>
        <pt x="165" y="434" on="1"/>
        <pt x="125" y="434" on="1"/>
        <pt x="140" y="538" on="1"/>
        <pt x="92" y="513" on="0"/>
        <pt x="42" y="486" on="1"/>
        <pt x="38" y="496" on="0"/>
        <pt x="30" y="515" on="0"/>
        <pt x="26" y="525" on="1"/>
        <pt x="50" y="538" on="0"/>
        <pt x="99" y="563" on="0"/>
        <pt x="124" y="576" on="1"/>
        <pt x="103" y="590" on="0"/>
        <pt x="62" y="616" on="0"/>
        <pt x="41" y="630" on="1"/>
        <pt x="47" y="639" on="0"/>
        <pt x="60" y="657" on="0"/>
        <pt x="65" y="665" on="1"/>
        <pt x="87" y="651" on="0"/>
        <pt x="129" y="625" on="0"/>
        <pt x="150" y="611" on="1"/>
        <pt x="166" y="720" on="1"/>
        <pt x="210" y="720" on="1"/>
        <pt x="205" y="693" on="0"/>
        <pt x="198" y="639" on="0"/>
        <pt x="193" y="611" on="1"/>
        <pt x="219" y="625" on="0"/>
        <pt x="269" y="651" on="0"/>
        <pt x="294" y="664" on="1"/>
        <pt x="303" y="648" on="0"/>
        <pt x="309" y="629" on="1"/>
        <pt x="284" y="615" on="0"/>
        <pt x="234" y="589" on="0"/>
      </contour>
    </TTGlyph>
    <TTGlyph name="at" xMin="70" yMin="-217" xMax="906" yMax="595">
      <contour>
        <pt x="332" y="188" on="1"/>
        <pt x="327" y="156" on="0"/>
        <pt x="343" y="100" on="0"/>
        <pt x="379" y="58" on="0"/>
        <pt x="433" y="34" on="0"/>
        <pt x="466" y="34" on="1"/>
        <pt x="499" y="34" on="0"/>
        <pt x="558" y="58" on="0"/>
        <pt x="606" y="100" on="0"/>
        <pt x="637" y="156" on="0"/>
        <pt x="642" y="188" on="1"/>
        <pt x="647" y="220" on="0"/>
        <pt x="631" y="277" on="0"/>
        <pt x="595" y="319" on="0"/>
        <pt x="542" y="343" on="0"/>
        <pt x="509" y="343" on="1"/>
        <pt x="476" y="343" on="0"/>
        <pt x="417" y="319" on="0"/>
        <pt x="369" y="277" on="0"/>
        <pt x="337" y="220" on="0"/>
      </contour>
      <contour>
        <pt x="894" y="188" on="1"/>
        <pt x="883" y="131" on="0"/>
        <pt x="843" y="58" on="0"/>
        <pt x="792" y="16" on="0"/>
        <pt x="736" y="0" on="0"/>
        <pt x="710" y="0" on="1"/>
        <pt x="620" y="0" on="1"/>
        <pt x="626" y="40" on="1"/>
        <pt x="628" y="52" on="0"/>
        <pt x="631" y="75" on="0"/>
        <pt x="633" y="86" on="1"/>
        <pt x="624" y="69" on="0"/>
        <pt x="590" y="35" on="0"/>
        <pt x="545" y="9" on="0"/>
        <pt x="490" y="-7" on="0"/>
        <pt x="460" y="-7" on="1"/>
        <pt x="419" y="-7" on="0"/>
        <pt x="351" y="24" on="0"/>
        <pt x="305" y="76" on="0"/>
        <pt x="284" y="147" on="0"/>
        <pt x="290" y="188" on="1"/>
        <pt x="296" y="228" on="0"/>
        <pt x="337" y="299" on="0"/>
        <pt x="398" y="352" on="0"/>
        <pt x="474" y="383" on="0"/>
        <pt x="515" y="383" on="1"/>
        <pt x="544" y="383" on="0"/>
        <pt x="593" y="366" on="0"/>
        <pt x="631" y="339" on="0"/>
        <pt x="655" y="305" on="0"/>
        <pt x="660" y="287" on="1"/>
        <pt x="664" y="309" on="0"/>
        <pt x="672" y="353" on="0"/>
        <pt x="677" y="375" on="1"/>
        <pt x="711" y="375" on="1"/>
        <pt x="664" y="40" on="1"/>
        <pt x="719" y="40" on="1"/>
        <pt x="768" y="40" on="0"/>
        <pt x="838" y="110" on="0"/>
        <pt x="852" y="188" on="1"/>
        <pt x="863" y="264" on="0"/>
        <pt x="825" y="398" on="0"/>
        <pt x="740" y="497" on="0"/>
        <pt x="615" y="554" on="0"/>
        <pt x="540" y="554" on="1"/>
        <pt x="464" y="554" on="0"/>
        <pt x="323" y="497" on="0"/>
        <pt x="210" y="398" on="0"/>
        <pt x="134" y="264" on="0"/>
        <pt x="123" y="188" on="1"/>
        <pt x="113" y="112" on="0"/>
        <pt x="152" y="-20" on="0"/>
        <pt x="237" y="-119" on="0"/>
        <pt x="362" y="-176" on="0"/>
        <pt x="437" y="-176" on="1"/>
        <pt x="498" y="-176" on="0"/>
        <pt x="611" y="-140" on="0"/>
        <pt x="662" y="-108" on="1"/>
        <pt x="683" y="-138" on="1"/>
        <pt x="628" y="-176" on="0"/>
        <pt x="497" y="-217" on="0"/>
        <pt x="431" y="-217" on="1"/>
        <pt x="347" y="-217" on="0"/>
        <pt x="208" y="-153" on="0"/>
        <pt x="114" y="-43" on="0"/>
        <pt x="70" y="105" on="0"/>
        <pt x="82" y="189" on="1"/>
        <pt x="94" y="273" on="0"/>
        <pt x="178" y="421" on="0"/>
        <pt x="304" y="531" on="0"/>
        <pt x="462" y="595" on="0"/>
        <pt x="546" y="595" on="1"/>
        <pt x="630" y="595" on="0"/>
        <pt x="769" y="531" on="0"/>
        <pt x="863" y="421" on="0"/>
        <pt x="906" y="273" on="0"/>
      </contour>
    </TTGlyph>
    <TTGlyph name="atilde" xMin="56" yMin="-7" xMax="509" yMax="545">
      <component glyphName="a" x="0" y="0" flags="0x204"/>
      <component glyphName="asciitilde" x="18" y="0" flags="0x4"/>
    </TTGlyph>
    <TTGlyph name="b" xMin="35" yMin="-7" xMax="536" yMax="750">
      <contour>
        <pt x="41" y="40" on="1"/>
        <pt x="115" y="40" on="1"/>
        <pt x="210" y="710" on="1"/>
        <pt x="139" y="710" on="1"/>
        <pt x="145" y="750" on="1"/>
        <pt x="257" y="750" on="1"/>
        <pt x="199" y="337" on="1"/>
        <pt x="196" y="325" on="0"/>
        <pt x="191" y="300" on="0"/>
        <pt x="188" y="288" on="1"/>
        <pt x="197" y="306" on="0"/>
        <pt x="232" y="340" on="0"/>
        <pt x="277" y="367" on="0"/>
        <pt x="332" y="383" on="0"/>
        <pt x="361" y="383" on="1"/>
        <pt x="402" y="383" on="0"/>
        <pt x="470" y="352" on="0"/>
        <pt x="515" y="299" on="0"/>
        <pt x="536" y="228" on="0"/>
        <pt x="530" y="188" on="1"/>
        <pt x="524" y="147" on="0"/>
        <pt x="484" y="76" on="0"/>
        <pt x="423" y="24" on="0"/>
        <pt x="347" y="-7" on="0"/>
        <pt x="306" y="-7" on="1"/>
        <pt x="276" y="-7" on="0"/>
        <pt x="225" y="9" on="0"/>
        <pt x="187" y="35" on="0"/>
        <pt x="163" y="69" on="0"/>
        <pt x="159" y="86" on="1"/>
        <pt x="157" y="75" on="0"/>
        <pt x="155" y="52" on="0"/>
        <pt x="153" y="40" on="1"/>
        <pt x="147" y="0" on="1"/>
        <pt x="35" y="0" on="1"/>
      </contour>
      <contour>
        <pt x="488" y="188" on="1"/>
        <pt x="492" y="220" on="0"/>
        <pt x="477" y="277" on="0"/>
        <pt x="441" y="319" on="0"/>
        <pt x="388" y="343" on="0"/>
        <pt x="355" y="343" on="1"/>
        <pt x="322" y="343" on="0"/>
        <pt x="262" y="319" on="0"/>
        <pt x="214" y="277" on="0"/>
        <pt x="182" y="220" on="0"/>
        <pt x="178" y="188" on="1"/>
        <pt x="173" y="156" on="0"/>
        <pt x="189" y="100" on="0"/>
        <pt x="225" y="58" on="0"/>
        <pt x="278" y="34" on="0"/>
        <pt x="311" y="34" on="1"/>
        <pt x="344" y="34" on="0"/>
        <pt x="404" y="58" on="0"/>
        <pt x="452" y="100" on="0"/>
        <pt x="483" y="156" on="0"/>
      </contour>
    </TTGlyph>
    <TTGlyph name="backslash" xMin="63" yMin="-19" xMax="280" yMax="736">
      <contour>
        <pt x="109" y="736" on="1"/>
        <pt x="152" y="546" on="0"/>
        <pt x="237" y="171" on="0"/>
        <pt x="280" y="-19" on="1"/>
        <pt x="234" y="-19" on="1"/>
        <pt x="191" y="171" on="0"/>
        <pt x="106" y="546" on="0"/>
        <pt x="63" y="736" on="1"/>
      </contour>
    </TTGlyph>
    <TTGlyph name="bar" xMin="96" yMin="-232" xMax="268" yMax="700">
      <contour>
        <pt x="96" y="-232" on="1"/>
        <pt x="226" y="700" on="1"/>
        <pt x="268" y="700" on="1"/>
        <pt x="138" y="-232" on="1"/>
      </contour>
    </TTGlyph>
    <TTGlyph name="braceleft" xMin="89" yMin="-148" xMax="381" yMax="746">
      <contour>
        <pt x="89" y="275" on="1"/>
        <pt x="97" y="321" on="1"/>
        <pt x="121" y="322" on="0"/>
        <pt x="156" y="349" on="0"/>
        <pt x="179" y="389" on="0"/>
        <pt x="192" y="436" on="0"/>
        <pt x="195" y="456" on="1"/>
        <pt x="218" y="628" on="1"/>
        <pt x="224" y="674" on="0"/>
        <pt x="248" y="722" on="0"/>
        <pt x="278" y="743" on="0"/>
        <pt x="314" y="746" on="0"/>
        <pt x="334" y="746" on="1"/>
        <pt x="381" y="746" on="1"/>
        <pt x="376" y="705" on="1"/>
        <pt x="324" y="705" on="1"/>
        <pt x="293" y="705" on="0"/>
        <pt x="265" y="658" on="0"/>
        <pt x="256" y="597" on="1"/>
        <pt x="236" y="455" on="1"/>
        <pt x="230" y="414" on="0"/>
        <pt x="211" y="361" on="0"/>
        <pt x="188" y="326" on="0"/>
        <pt x="162" y="306" on="0"/>
        <pt x="149" y="299" on="1"/>
        <pt x="160" y="292" on="0"/>
        <pt x="180" y="271" on="0"/>
        <pt x="194" y="235" on="0"/>
        <pt x="198" y="182" on="0"/>
        <pt x="192" y="142" on="1"/>
        <pt x="173" y="1" on="1"/>
        <pt x="164" y="-61" on="0"/>
        <pt x="178" y="-108" on="0"/>
        <pt x="209" y="-108" on="1"/>
        <pt x="261" y="-108" on="1"/>
        <pt x="255" y="-148" on="1"/>
        <pt x="208" y="-148" on="1"/>
        <pt x="187" y="-148" on="0"/>
        <pt x="151" y="-145" on="0"/>
        <pt x="128" y="-120" on="0"/>
        <pt x="121" y="-63" on="0"/>
        <pt x="129" y="-9" on="1"/>
        <pt x="149" y="140" on="1"/>
        <pt x="152" y="160" on="0"/>
        <pt x="152" y="207" on="0"/>
        <pt x="140" y="247" on="0"/>
        <pt x="113" y="274" on="0"/>
      </contour>
    </TTGlyph>
    <TTGlyph name="braceright" xMin="65" yMin="-148" xMax="357" yMax="746">
      <contour>
        <pt x="357" y="321" on="1"/>
        <pt x="349" y="275" on="1"/>
        <pt x="320" y="273" on="0"/>
        <pt x="284" y="238" on="0"/>
        <pt x="262" y="189" on="0"/>
        <pt x="251" y="136" on="0"/>
        <pt x="248" y="118" on="1"/>
        <pt x="228" y="-30" on="1"/>
        <pt x="222" y="-77" on="0"/>
        <pt x="198" y="-125" on="0"/>
        <pt x="168" y="-146" on="0"/>
        <pt x="131" y="-148" on="0"/>
        <pt x="112" y="-148" on="1"/>
        <pt x="65" y="-148" on="1"/>
        <pt x="71" y="-108" on="1"/>
        <pt x="123" y="-108" on="1"/>
        <pt x="138" y="-108" on="0"/>
        <pt x="160" y="-97" on="0"/>
        <pt x="175" y="-72" on="0"/>
        <pt x="185" y="-30" on="0"/>
        <pt x="190" y="1" on="1"/>
        <pt x="213" y="165" on="1"/>
        <pt x="217" y="197" on="0"/>
        <pt x="237" y="243" on="0"/>
        <pt x="261" y="274" on="0"/>
        <pt x="287" y="293" on="0"/>
        <pt x="297" y="299" on="1"/>
        <pt x="286" y="306" on="0"/>
        <pt x="266" y="326" on="0"/>
        <pt x="252" y="361" on="0"/>
        <pt x="248" y="414" on="0"/>
        <pt x="254" y="455" on="1"/>
        <pt x="273" y="597" on="1"/>
        <pt x="282" y="659" on="0"/>
        <pt x="268" y="705" on="0"/>
        <pt x="237" y="705" on="1"/>
        <pt x="185" y="705" on="1"/>
        <pt x="191" y="746" on="1"/>
        <pt x="238" y="746" on="1"/>
        <pt x="257" y="746" on="0"/>
        <pt x="292" y="744" on="0"/>
        <pt x="317" y="723" on="0"/>
        <pt x="326" y="674" on="0"/>
        <pt x="320" y="628" on="1"/>
        <pt x="300" y="478" on="1"/>
        <pt x="297" y="460" on="0"/>
        <pt x="293" y="407" on="0"/>
        <pt x="301" y="358" on="0"/>
        <pt x="328" y="322" on="0"/>
      </contour>
    </TTGlyph>
    <TTGlyph name="bracketleft" xMin="20" yMin="-149" xMax="320" yMax="746">
      <contour>
        <pt x="20" y="-149" on="1"/>
        <pt x="26" y="-108" on="1"/>
        <pt x="145" y="746" on="1"/>
        <pt x="320" y="746" on="1"/>
        <pt x="314" y="705" on="1"/>
        <pt x="182" y="705" on="1"/>
        <pt x="68" y="-108" on="1"/>
        <pt x="200" y="-108" on="1"/>
        <pt x="195" y="-149" on="1"/>
      </contour>
    </TTGlyph>
    <TTGlyph name="bracketright" xMin="14" yMin="-149" xMax="313" yMax="746">
      <contour>
        <pt x="313" y="746" on="1"/>
        <pt x="193" y="-111" on="1"/>
        <pt x="188" y="-149" on="1"/>
        <pt x="14" y="-149" on="1"/>
        <pt x="19" y="-108" on="1"/>
        <pt x="151" y="-108" on="1"/>
        <pt x="265" y="705" on="1"/>
        <pt x="133" y="705" on="1"/>
        <pt x="138" y="746" on="1"/>
      </contour>
    </TTGlyph>
    <TTGlyph name="brokenbar" xMin="89" yMin="-233" xMax="262" yMax="700">
      <contour>
        <pt x="131" y="-233" on="1"/>
        <pt x="89" y="-233" on="1"/>
        <pt x="138" y="117" on="1"/>
        <pt x="180" y="117" on="1"/>
      </contour>
      <contour>
        <pt x="212" y="350" on="1"/>
        <pt x="170" y="350" on="1"/>
        <pt x="220" y="700" on="1"/>
        <pt x="262" y="700" on="1"/>
      </contour>
    </TTGlyph>
    <TTGlyph name="bullet" xMin="157" yMin="211" xMax="347" yMax="391">
      <contour>
        <pt x="162" y="300" on="1"/>
        <pt x="165" y="319" on="0"/>
        <pt x="183" y="352" on="0"/>
        <pt x="211" y="377" on="0"/>
        <pt x="245" y="391" on="0"/>
        <pt x="264" y="391" on="1"/>
        <pt x="302" y="391" on="0"/>
        <pt x="347" y="338" on="0"/>
        <pt x="342" y="300" on="1"/>
        <pt x="339" y="281" on="0"/>
        <pt x="321" y="249" on="0"/>
        <pt x="293" y="225" on="0"/>
        <pt x="258" y="211" on="0"/>
        <pt x="239" y="211" on="1"/>
        <pt x="201" y="211" on="0"/>
        <pt x="157" y="262" on="0"/>
      </contour>
    </TTGlyph>
    <TTGlyph name="c" xMin="56" yMin="-7" xMax="404" yMax="383">
      <contour>
        <pt x="361" y="36" on="1"/>
        <pt x="332" y="16" on="0"/>
        <pt x="267" y="-7" on="0"/>
        <pt x="231" y="-7" on="1"/>
        <pt x="190" y="-7" on="0"/>
        <pt x="123" y="24" on="0"/>
        <pt x="77" y="76" on="0"/>
        <pt x="56" y="147" on="0"/>
        <pt x="62" y="188" on="1"/>
        <pt x="68" y="228" on="0"/>
        <pt x="108" y="300" on="0"/>
        <pt x="169" y="352" on="0"/>
        <pt x="245" y="383" on="0"/>
        <pt x="286" y="383" on="1"/>
        <pt x="322" y="383" on="0"/>
        <pt x="382" y="360" on="0"/>
        <pt x="404" y="340" on="1"/>
        <pt x="390" y="242" on="1"/>
        <pt x="352" y="242" on="1"/>
        <pt x="363" y="316" on="1"/>
        <pt x="346" y="329" on="0"/>
        <pt x="304" y="343" on="0"/>
        <pt x="280" y="343" on="1"/>
        <pt x="247" y="343" on="0"/>
        <pt x="187" y="319" on="0"/>
        <pt x="140" y="277" on="0"/>
        <pt x="108" y="220" on="0"/>
        <pt x="104" y="188" on="1"/>
        <pt x="99" y="156" on="0"/>
        <pt x="115" y="100" on="0"/>
        <pt x="151" y="58" on="0"/>
        <pt x="203" y="34" on="0"/>
        <pt x="236" y="34" on="1"/>
        <pt x="265" y="34" on="0"/>
        <pt x="317" y="51" on="0"/>
        <pt x="339" y="67" on="1"/>
      </contour>
    </TTGlyph>
    <TTGlyph name="ccedilla" xMin="46" yMin="-234" xMax="393" yMax="383">
      <contour>
        <pt x="328" y="67" on="1"/>
        <pt x="349" y="36" on="1"/>
        <pt x="343" y="31" on="0"/>
        <pt x="308" y="14" on="0"/>
        <pt x="268" y="-2" on="0"/>
        <pt x="232" y="-12" on="0"/>
        <pt x="225" y="-10" on="1"/>
        <pt x="223" y="-22" on="0"/>
        <pt x="230" y="-38" on="0"/>
        <pt x="240" y="-49" on="0"/>
        <pt x="254" y="-57" on="0"/>
        <pt x="260" y="-61" on="1"/>
        <pt x="280" y="-76" on="0"/>
        <pt x="292" y="-115" on="0"/>
        <pt x="289" y="-133" on="1"/>
        <pt x="283" y="-178" on="0"/>
        <pt x="232" y="-226" on="0"/>
        <pt x="198" y="-231" on="1"/>
        <pt x="179" y="-234" on="0"/>
        <pt x="163" y="-230" on="1"/>
        <pt x="140" y="-226" on="0"/>
        <pt x="107" y="-196" on="0"/>
        <pt x="102" y="-169" on="1"/>
        <pt x="131" y="-157" on="1"/>
        <pt x="134" y="-177" on="0"/>
        <pt x="162" y="-201" on="0"/>
        <pt x="185" y="-201" on="1"/>
        <pt x="213" y="-201" on="0"/>
        <pt x="252" y="-163" on="0"/>
        <pt x="256" y="-135" on="1"/>
        <pt x="259" y="-110" on="0"/>
        <pt x="239" y="-83" on="0"/>
        <pt x="213" y="-63" on="0"/>
        <pt x="192" y="-42" on="0"/>
        <pt x="194" y="-23" on="1"/>
        <pt x="197" y="-4" on="1"/>
        <pt x="161" y="0" on="0"/>
        <pt x="102" y="32" on="0"/>
        <pt x="63" y="83" on="0"/>
        <pt x="46" y="150" on="0"/>
        <pt x="51" y="188" on="1"/>
        <pt x="57" y="228" on="0"/>
        <pt x="97" y="300" on="0"/>
        <pt x="158" y="352" on="0"/>
        <pt x="234" y="383" on="0"/>
        <pt x="275" y="383" on="1"/>
        <pt x="310" y="383" on="0"/>
        <pt x="371" y="360" on="0"/>
        <pt x="393" y="340" on="1"/>
        <pt x="380" y="241" on="1"/>
        <pt x="341" y="241" on="1"/>
        <pt x="351" y="316" on="1"/>
        <pt x="316" y="343" on="0"/>
        <pt x="269" y="343" on="1"/>
        <pt x="236" y="343" on="0"/>
        <pt x="176" y="319" on="0"/>
        <pt x="129" y="277" on="0"/>
        <pt x="97" y="220" on="0"/>
        <pt x="93" y="188" on="1"/>
        <pt x="88" y="156" on="0"/>
        <pt x="104" y="100" on="0"/>
        <pt x="139" y="58" on="0"/>
        <pt x="192" y="34" on="0"/>
        <pt x="225" y="34" on="1"/>
        <pt x="281" y="34" on="0"/>
      </contour>
    </TTGlyph>
    <TTGlyph name="cedilla" xMin="126" yMin="-234" xMax="316" yMax="0">
      <contour>
        <pt x="222" y="0" on="1"/>
        <pt x="251" y="0" on="1"/>
        <pt x="250" y="-6" on="1"/>
        <pt x="248" y="-20" on="0"/>
        <pt x="253" y="-37" on="0"/>
        <pt x="264" y="-49" on="0"/>
        <pt x="277" y="-57" on="0"/>
        <pt x="283" y="-61" on="1"/>
        <pt x="303" y="-76" on="0"/>
        <pt x="316" y="-115" on="0"/>
        <pt x="314" y="-133" on="1"/>
        <pt x="307" y="-181" on="0"/>
        <pt x="249" y="-234" on="0"/>
        <pt x="208" y="-234" on="1"/>
        <pt x="179" y="-234" on="0"/>
        <pt x="132" y="-202" on="0"/>
        <pt x="126" y="-169" on="1"/>
        <pt x="134" y="-166" on="0"/>
        <pt x="147" y="-160" on="0"/>
        <pt x="155" y="-157" on="1"/>
        <pt x="158" y="-176" on="0"/>
        <pt x="186" y="-201" on="0"/>
        <pt x="209" y="-201" on="1"/>
        <pt x="237" y="-201" on="0"/>
        <pt x="276" y="-163" on="0"/>
        <pt x="280" y="-135" on="1"/>
        <pt x="284" y="-110" on="0"/>
        <pt x="264" y="-83" on="0"/>
        <pt x="238" y="-63" on="0"/>
        <pt x="216" y="-42" on="0"/>
        <pt x="219" y="-23" on="1"/>
      </contour>
    </TTGlyph>
    <TTGlyph name="cent" xMin="66" yMin="-68" xMax="414" yMax="438">
      <contour>
        <pt x="349" y="67" on="1"/>
        <pt x="370" y="36" on="1"/>
        <pt x="318" y="-3" on="0"/>
        <pt x="251" y="-6" on="1"/>
        <pt x="243" y="-68" on="1"/>
        <pt x="201" y="-68" on="1"/>
        <pt x="209" y="-3" on="1"/>
        <pt x="174" y="2" on="0"/>
        <pt x="119" y="36" on="0"/>
        <pt x="82" y="87" on="0"/>
        <pt x="66" y="152" on="0"/>
        <pt x="71" y="188" on="1"/>
        <pt x="76" y="224" on="0"/>
        <pt x="111" y="290" on="0"/>
        <pt x="162" y="341" on="0"/>
        <pt x="227" y="375" on="0"/>
        <pt x="263" y="380" on="1"/>
        <pt x="272" y="438" on="1"/>
        <pt x="314" y="438" on="1"/>
        <pt x="306" y="383" on="1"/>
        <pt x="338" y="381" on="0"/>
        <pt x="394" y="359" on="0"/>
        <pt x="414" y="340" on="1"/>
        <pt x="413" y="339" on="1"/>
        <pt x="412" y="335" on="0"/>
        <pt x="412" y="328" on="1"/>
        <pt x="399" y="241" on="1"/>
        <pt x="361" y="241" on="1"/>
        <pt x="372" y="316" on="1"/>
        <pt x="358" y="327" on="0"/>
        <pt x="321" y="341" on="0"/>
        <pt x="300" y="341" on="1"/>
        <pt x="256" y="34" on="1"/>
        <pt x="281" y="36" on="0"/>
        <pt x="329" y="53" on="0"/>
      </contour>
      <contour>
        <pt x="113" y="188" on="1"/>
        <pt x="105" y="131" on="0"/>
        <pt x="163" y="49" on="0"/>
        <pt x="215" y="39" on="1"/>
        <pt x="257" y="336" on="1"/>
        <pt x="230" y="332" on="0"/>
        <pt x="181" y="306" on="0"/>
        <pt x="143" y="266" on="0"/>
        <pt x="117" y="216" on="0"/>
      </contour>
    </TTGlyph>
    <TTGlyph name="colon" xMin="32" yMin="0" xMax="136" yMax="316">
      <contour>
        <pt x="69" y="283" on="1"/>
        <pt x="71" y="297" on="0"/>
        <pt x="94" y="316" on="0"/>
        <pt x="107" y="316" on="1"/>
        <pt x="119" y="316" on="0"/>
        <pt x="136" y="297" on="0"/>
        <pt x="134" y="283" on="1"/>
        <pt x="132" y="269" on="0"/>
        <pt x="110" y="250" on="0"/>
        <pt x="97" y="250" on="1"/>
        <pt x="84" y="250" on="0"/>
        <pt x="67" y="269" on="0"/>
      </contour>
      <contour>
        <pt x="34" y="33" on="1"/>
        <pt x="36" y="47" on="0"/>
        <pt x="59" y="66" on="0"/>
        <pt x="72" y="66" on="1"/>
        <pt x="84" y="66" on="0"/>
        <pt x="101" y="47" on="0"/>
        <pt x="99" y="33" on="1"/>
        <pt x="97" y="19" on="0"/>
        <pt x="75" y="0" on="0"/>
        <pt x="62" y="0" on="1"/>
        <pt x="49" y="0" on="0"/>
        <pt x="32" y="19" on="0"/>
      </contour>
    </TTGlyph>
    <TTGlyph name="comma" xMin="2" yMin="-120" xMax="155" yMax="86">
      <contour>
        <pt x="155" y="86" on="1"/>
        <pt x="126" y="34" on="0"/>
        <pt x="69" y="-68" on="0"/>
        <pt x="40" y="-120" on="1"/>
        <pt x="2" y="-120" on="1"/>
        <pt x="29" y="-68" on="0"/>
        <pt x="81" y="34" on="0"/>
        <pt x="108" y="86" on="1"/>
      </contour>
    </TTGlyph>
    <TTGlyph name="copyright" xMin="169" yMin="115" xMax="702" yMax="630">
      <contour>
        <pt x="402" y="138" on="1"/>
        <pt x="451" y="138" on="0"/>
        <pt x="541" y="173" on="0"/>
        <pt x="614" y="236" on="0"/>
        <pt x="662" y="321" on="0"/>
        <pt x="669" y="371" on="1"/>
        <pt x="676" y="422" on="0"/>
        <pt x="652" y="508" on="0"/>
        <pt x="597" y="571" on="0"/>
        <pt x="517" y="607" on="0"/>
        <pt x="468" y="607" on="1"/>
        <pt x="420" y="607" on="0"/>
        <pt x="330" y="571" on="0"/>
        <pt x="258" y="508" on="0"/>
        <pt x="209" y="422" on="0"/>
        <pt x="202" y="371" on="1"/>
        <pt x="195" y="321" on="0"/>
        <pt x="219" y="236" on="0"/>
        <pt x="274" y="173" on="0"/>
        <pt x="354" y="138" on="0"/>
      </contour>
      <contour>
        <pt x="400" y="115" on="1"/>
        <pt x="346" y="115" on="0"/>
        <pt x="257" y="154" on="0"/>
        <pt x="197" y="223" on="0"/>
        <pt x="169" y="317" on="0"/>
        <pt x="177" y="372" on="1"/>
        <pt x="185" y="428" on="0"/>
        <pt x="239" y="522" on="0"/>
        <pt x="318" y="591" on="0"/>
        <pt x="418" y="630" on="0"/>
        <pt x="472" y="630" on="1"/>
        <pt x="526" y="630" on="0"/>
        <pt x="615" y="591" on="0"/>
        <pt x="675" y="522" on="0"/>
        <pt x="702" y="428" on="0"/>
        <pt x="694" y="372" on="1"/>
        <pt x="686" y="317" on="0"/>
        <pt x="633" y="223" on="0"/>
        <pt x="553" y="154" on="0"/>
        <pt x="454" y="115" on="0"/>
      </contour>
      <contour>
        <pt x="519" y="464" on="1"/>
        <pt x="524" y="503" on="1"/>
        <pt x="495" y="519" on="0"/>
        <pt x="462" y="519" on="1"/>
        <pt x="432" y="519" on="0"/>
        <pt x="377" y="496" on="0"/>
        <pt x="333" y="457" on="0"/>
        <pt x="303" y="404" on="0"/>
        <pt x="299" y="374" on="1"/>
        <pt x="295" y="345" on="0"/>
        <pt x="310" y="293" on="0"/>
        <pt x="343" y="254" on="0"/>
        <pt x="391" y="231" on="0"/>
        <pt x="420" y="231" on="1"/>
        <pt x="440" y="231" on="0"/>
        <pt x="478" y="242" on="0"/>
        <pt x="496" y="251" on="1"/>
        <pt x="505" y="236" on="1"/>
        <pt x="485" y="225" on="0"/>
        <pt x="442" y="213" on="0"/>
        <pt x="419" y="213" on="1"/>
        <pt x="386" y="213" on="0"/>
        <pt x="330" y="239" on="0"/>
        <pt x="293" y="283" on="0"/>
        <pt x="275" y="342" on="0"/>
        <pt x="280" y="375" on="1"/>
        <pt x="285" y="409" on="0"/>
        <pt x="319" y="468" on="0"/>
        <pt x="368" y="512" on="0"/>
        <pt x="431" y="537" on="0"/>
        <pt x="464" y="537" on="1"/>
        <pt x="509" y="537" on="0"/>
        <pt x="544" y="515" on="1"/>
        <pt x="537" y="464" on="1"/>
      </contour>
    </TTGlyph>
    <TTGlyph name="currency" xMin="103" yMin="210" xMax="432" yMax="506">
      <contour>
        <pt x="166" y="361" on="1"/>
        <pt x="163" y="340" on="0"/>
        <pt x="174" y="302" on="0"/>
        <pt x="198" y="274" on="0"/>
        <pt x="233" y="258" on="0"/>
        <pt x="254" y="258" on="1"/>
        <pt x="275" y="258" on="0"/>
        <pt x="314" y="274" on="0"/>
        <pt x="346" y="302" on="0"/>
        <pt x="367" y="340" on="0"/>
        <pt x="370" y="361" on="1"/>
        <pt x="373" y="382" on="0"/>
        <pt x="362" y="419" on="0"/>
        <pt x="339" y="447" on="0"/>
        <pt x="304" y="463" on="0"/>
        <pt x="283" y="463" on="1"/>
        <pt x="262" y="463" on="0"/>
        <pt x="223" y="447" on="0"/>
        <pt x="191" y="419" on="0"/>
        <pt x="169" y="382" on="0"/>
      </contour>
      <contour>
        <pt x="124" y="361" on="1"/>
        <pt x="132" y="409" on="0"/>
        <pt x="164" y="444" on="1"/>
        <pt x="157" y="452" on="0"/>
        <pt x="144" y="469" on="0"/>
        <pt x="136" y="477" on="1"/>
        <pt x="170" y="506" on="1"/>
        <pt x="198" y="474" on="1"/>
        <pt x="218" y="488" on="0"/>
        <pt x="263" y="504" on="0"/>
        <pt x="288" y="504" on="1"/>
        <pt x="312" y="504" on="0"/>
        <pt x="354" y="487" on="0"/>
        <pt x="370" y="473" on="1"/>
        <pt x="406" y="506" on="1"/>
        <pt x="432" y="476" on="1"/>
        <pt x="396" y="445" on="1"/>
        <pt x="407" y="427" on="0"/>
        <pt x="416" y="384" on="0"/>
        <pt x="412" y="361" on="1"/>
        <pt x="409" y="336" on="0"/>
        <pt x="387" y="293" on="0"/>
        <pt x="370" y="275" on="1"/>
        <pt x="399" y="240" on="1"/>
        <pt x="366" y="211" on="1"/>
        <pt x="358" y="219" on="0"/>
        <pt x="343" y="237" on="0"/>
        <pt x="335" y="245" on="1"/>
        <pt x="294" y="218" on="0"/>
        <pt x="248" y="218" on="1"/>
        <pt x="200" y="218" on="0"/>
        <pt x="168" y="244" on="1"/>
        <pt x="129" y="210" on="1"/>
        <pt x="103" y="239" on="1"/>
        <pt x="142" y="274" on="1"/>
        <pt x="118" y="312" on="0"/>
      </contour>
    </TTGlyph>
    <TTGlyph name="d" xMin="56" yMin="-7" xMax="535" yMax="750">
      <contour>
        <pt x="398" y="40" on="1"/>
        <pt x="400" y="52" on="0"/>
        <pt x="402" y="75" on="0"/>
        <pt x="404" y="86" on="1"/>
        <pt x="395" y="69" on="0"/>
        <pt x="362" y="35" on="0"/>
        <pt x="317" y="9" on="0"/>
        <pt x="262" y="-7" on="0"/>
        <pt x="232" y="-7" on="1"/>
        <pt x="191" y="-7" on="0"/>
        <pt x="123" y="24" on="0"/>
        <pt x="77" y="76" on="0"/>
        <pt x="56" y="147" on="0"/>
        <pt x="62" y="188" on="1"/>
        <pt x="68" y="228" on="0"/>
        <pt x="108" y="299" on="0"/>
        <pt x="169" y="352" on="0"/>
        <pt x="245" y="383" on="0"/>
        <pt x="286" y="383" on="1"/>
        <pt x="315" y="383" on="0"/>
        <pt x="364" y="367" on="0"/>
        <pt x="402" y="340" on="0"/>
        <pt x="427" y="306" on="0"/>
        <pt x="432" y="288" on="1"/>
        <pt x="434" y="309" on="0"/>
        <pt x="438" y="351" on="0"/>
        <pt x="440" y="372" on="1"/>
        <pt x="488" y="710" on="1"/>
        <pt x="417" y="710" on="1"/>
        <pt x="423" y="750" on="1"/>
        <pt x="535" y="750" on="1"/>
        <pt x="435" y="40" on="1"/>
        <pt x="509" y="40" on="1"/>
        <pt x="503" y="0" on="1"/>
        <pt x="392" y="0" on="1"/>
      </contour>
      <contour>
        <pt x="104" y="188" on="1"/>
        <pt x="99" y="156" on="0"/>
        <pt x="115" y="100" on="0"/>
        <pt x="151" y="58" on="0"/>
        <pt x="204" y="34" on="0"/>
        <pt x="237" y="34" on="1"/>
        <pt x="270" y="34" on="0"/>
        <pt x="330" y="58" on="0"/>
        <pt x="378" y="100" on="0"/>
        <pt x="409" y="156" on="0"/>
        <pt x="414" y="188" on="1"/>
        <pt x="418" y="220" on="0"/>
        <pt x="402" y="277" on="0"/>
        <pt x="366" y="319" on="0"/>
        <pt x="313" y="343" on="0"/>
        <pt x="280" y="343" on="1"/>
        <pt x="247" y="343" on="0"/>
        <pt x="188" y="319" on="0"/>
        <pt x="140" y="277" on="0"/>
        <pt x="108" y="220" on="0"/>
      </contour>
    </TTGlyph>
    <TTGlyph name="degree" xMin="58" yMin="474" xMax="240" yMax="646">
      <contour>
        <pt x="141" y="503" on="1"/>
        <pt x="165" y="503" on="0"/>
        <pt x="203" y="536" on="0"/>
        <pt x="206" y="560" on="1"/>
        <pt x="210" y="583" on="0"/>
        <pt x="181" y="616" on="0"/>
        <pt x="157" y="616" on="1"/>
        <pt x="134" y="616" on="0"/>
        <pt x="96" y="583" on="0"/>
        <pt x="92" y="560" on="1"/>
        <pt x="89" y="536" on="0"/>
        <pt x="118" y="503" on="0"/>
      </contour>
      <contour>
        <pt x="63" y="559" on="1"/>
        <pt x="68" y="596" on="0"/>
        <pt x="125" y="646" on="0"/>
        <pt x="162" y="646" on="1"/>
        <pt x="198" y="646" on="0"/>
        <pt x="240" y="596" on="0"/>
        <pt x="235" y="559" on="1"/>
        <pt x="230" y="523" on="0"/>
        <pt x="174" y="474" on="0"/>
        <pt x="138" y="474" on="1"/>
        <pt x="101" y="474" on="0"/>
        <pt x="58" y="523" on="0"/>
      </contour>
    </TTGlyph>
    <TTGlyph name="dieresis" xMin="71" yMin="475" xMax="305" yMax="541">
      <contour>
        <pt x="238" y="508" on="1"/>
        <pt x="240" y="522" on="0"/>
        <pt x="263" y="541" on="0"/>
        <pt x="276" y="541" on="1"/>
        <pt x="288" y="541" on="0"/>
        <pt x="305" y="522" on="0"/>
        <pt x="303" y="508" on="1"/>
        <pt x="301" y="494" on="0"/>
        <pt x="280" y="475" on="0"/>
        <pt x="267" y="475" on="1"/>
        <pt x="254" y="475" on="0"/>
        <pt x="236" y="494" on="0"/>
      </contour>
      <contour>
        <pt x="73" y="508" on="1"/>
        <pt x="75" y="522" on="0"/>
        <pt x="97" y="541" on="0"/>
        <pt x="110" y="541" on="1"/>
        <pt x="123" y="541" on="0"/>
        <pt x="140" y="522" on="0"/>
        <pt x="138" y="508" on="1"/>
        <pt x="136" y="494" on="0"/>
        <pt x="114" y="475" on="0"/>
        <pt x="102" y="475" on="1"/>
        <pt x="89" y="475" on="0"/>
        <pt x="71" y="494" on="0"/>
      </contour>
    </TTGlyph>
    <TTGlyph name="divide" xMin="68" yMin="71" xMax="433" yMax="387">
      <contour>
        <pt x="428" y="208" on="1"/>
        <pt x="68" y="208" on="1"/>
        <pt x="73" y="249" on="1"/>
        <pt x="433" y="249" on="1"/>
      </contour>
      <contour>
        <pt x="235" y="354" on="1"/>
        <pt x="237" y="368" on="0"/>
        <pt x="260" y="387" on="0"/>
        <pt x="273" y="387" on="1"/>
        <pt x="285" y="387" on="0"/>
        <pt x="302" y="368" on="0"/>
        <pt x="300" y="354" on="1"/>
        <pt x="298" y="340" on="0"/>
        <pt x="276" y="321" on="0"/>
        <pt x="263" y="321" on="1"/>
        <pt x="250" y="321" on="0"/>
        <pt x="233" y="340" on="0"/>
      </contour>
      <contour>
        <pt x="200" y="104" on="1"/>
        <pt x="202" y="118" on="0"/>
        <pt x="225" y="137" on="0"/>
        <pt x="238" y="137" on="1"/>
        <pt x="250" y="137" on="0"/>
        <pt x="267" y="118" on="0"/>
        <pt x="265" y="104" on="1"/>
        <pt x="263" y="90" on="0"/>
        <pt x="241" y="71" on="0"/>
        <pt x="228" y="71" on="1"/>
        <pt x="215" y="71" on="0"/>
        <pt x="198" y="90" on="0"/>
      </contour>
    </TTGlyph>
    <TTGlyph name="dollar" xMin="-2" yMin="-68" xMax="443" yMax="764">
      <contour>
        <pt x="388" y="546" on="1"/>
        <pt x="401" y="634" on="1"/>
        <pt x="386" y="645" on="0"/>
        <pt x="337" y="661" on="0"/>
        <pt x="303" y="663" on="1"/>
        <pt x="265" y="387" on="1"/>
        <pt x="298" y="376" on="0"/>
        <pt x="363" y="351" on="0"/>
        <pt x="412" y="307" on="0"/>
        <pt x="437" y="239" on="0"/>
        <pt x="431" y="186" on="1"/>
        <pt x="425" y="144" on="0"/>
        <pt x="385" y="74" on="0"/>
        <pt x="325" y="24" on="0"/>
        <pt x="250" y="-5" on="0"/>
        <pt x="209" y="-7" on="1"/>
        <pt x="200" y="-68" on="1"/>
        <pt x="159" y="-68" on="1"/>
        <pt x="167" y="-6" on="1"/>
        <pt x="132" y="-4" on="0"/>
        <pt x="77" y="13" on="0"/>
        <pt x="34" y="37" on="0"/>
        <pt x="5" y="64" on="0"/>
        <pt x="-2" y="76" on="1"/>
        <pt x="12" y="182" on="1"/>
        <pt x="52" y="182" on="1"/>
        <pt x="39" y="92" on="1"/>
        <pt x="61" y="69" on="0"/>
        <pt x="125" y="36" on="0"/>
        <pt x="173" y="34" on="1"/>
        <pt x="219" y="357" on="1"/>
        <pt x="190" y="366" on="0"/>
        <pt x="137" y="389" on="0"/>
        <pt x="98" y="424" on="0"/>
        <pt x="78" y="477" on="0"/>
        <pt x="82" y="517" on="1"/>
        <pt x="85" y="548" on="0"/>
        <pt x="111" y="611" on="0"/>
        <pt x="157" y="663" on="0"/>
        <pt x="224" y="699" on="0"/>
        <pt x="268" y="702" on="1"/>
        <pt x="276" y="764" on="1"/>
        <pt x="317" y="764" on="1"/>
        <pt x="309" y="703" on="1"/>
        <pt x="341" y="701" on="0"/>
        <pt x="414" y="681" on="0"/>
        <pt x="443" y="654" on="1"/>
        <pt x="428" y="546" on="1"/>
      </contour>
      <contour>
        <pt x="388" y="184" on="1"/>
        <pt x="394" y="224" on="0"/>
        <pt x="376" y="278" on="0"/>
        <pt x="338" y="313" on="0"/>
        <pt x="287" y="335" on="0"/>
        <pt x="259" y="344" on="1"/>
        <pt x="214" y="34" on="1"/>
        <pt x="245" y="37" on="0"/>
        <pt x="303" y="60" on="0"/>
        <pt x="351" y="98" on="0"/>
        <pt x="383" y="151" on="0"/>
      </contour>
      <contour>
        <pt x="125" y="524" on="1"/>
        <pt x="121" y="495" on="0"/>
        <pt x="135" y="456" on="0"/>
        <pt x="163" y="428" on="0"/>
        <pt x="202" y="409" on="0"/>
        <pt x="225" y="401" on="1"/>
        <pt x="262" y="660" on="1"/>
        <pt x="232" y="657" on="0"/>
        <pt x="184" y="632" on="0"/>
        <pt x="150" y="595" on="0"/>
        <pt x="128" y="549" on="0"/>
      </contour>
    </TTGlyph>
    <TTGlyph name="dotlessi" xMin="35" yMin="0" xMax="233" yMax="375">
      <contour>
        <pt x="40" y="40" on="1"/>
        <pt x="117" y="40" on="1"/>
        <pt x="159" y="335" on="1"/>
        <pt x="81" y="335" on="1"/>
        <pt x="87" y="375" on="1"/>
        <pt x="206" y="375" on="1"/>
        <pt x="159" y="40" on="1"/>
        <pt x="233" y="40" on="1"/>
        <pt x="228" y="0" on="1"/>
        <pt x="35" y="0" on="1"/>
      </contour>
    </TTGlyph>
    <TTGlyph name="e" xMin="56" yMin="-7" xMax="438" yMax="383">
      <contour>
        <pt x="280" y="343" on="1"/>
        <pt x="243" y="343" on="0"/>
        <pt x="177" y="312" on="0"/>
        <pt x="128" y="261" on="0"/>
        <pt x="101" y="194" on="0"/>
        <pt x="103" y="159" on="1"/>
        <pt x="175" y="186" on="0"/>
        <pt x="317" y="239" on="0"/>
        <pt x="388" y="266" on="1"/>
        <pt x="375" y="300" on="0"/>
        <pt x="318" y="343" on="0"/>
      </contour>
      <contour>
        <pt x="438" y="243" on="1"/>
        <pt x="356" y="212" on="0"/>
        <pt x="192" y="151" on="0"/>
        <pt x="110" y="120" on="1"/>
        <pt x="122" y="82" on="0"/>
        <pt x="189" y="34" on="0"/>
        <pt x="236" y="34" on="1"/>
        <pt x="267" y="34" on="0"/>
        <pt x="324" y="56" on="0"/>
        <pt x="347" y="76" on="1"/>
        <pt x="353" y="68" on="0"/>
        <pt x="364" y="53" on="0"/>
        <pt x="369" y="45" on="1"/>
        <pt x="340" y="21" on="0"/>
        <pt x="270" y="-7" on="0"/>
        <pt x="231" y="-7" on="1"/>
        <pt x="190" y="-7" on="0"/>
        <pt x="123" y="24" on="0"/>
        <pt x="77" y="76" on="0"/>
        <pt x="56" y="147" on="0"/>
        <pt x="62" y="188" on="1"/>
        <pt x="68" y="228" on="0"/>
        <pt x="108" y="300" on="0"/>
        <pt x="169" y="352" on="0"/>
        <pt x="245" y="383" on="0"/>
        <pt x="286" y="383" on="1"/>
        <pt x="316" y="383" on="0"/>
        <pt x="367" y="362" on="0"/>
        <pt x="406" y="325" on="0"/>
        <pt x="433" y="274" on="0"/>
      </contour>
    </TTGlyph>
    <TTGlyph name="eacute" xMin="56" yMin="-7" xMax="438" yMax="612">
      <component glyphName="e" x="0" y="0" flags="0x204"/>
      <component glyphName="acute" x="177" y="0" flags="0x4"/>
    </TTGlyph>
    <TTGlyph name="ecircumflex" xMin="56" yMin="-7" xMax="438" yMax="660">
      <component glyphName="e" x="0" y="0" flags="0x204"/>
      <component glyphName="asciicircum" x="83" y="0" flags="0x4"/>
    </TTGlyph>
    <TTGlyph name="edieresis" xMin="56" yMin="-7" xMax="438" yMax="541">
      <component glyphName="e" x="0" y="0" flags="0x204"/>
      <component glyphName="dieresis" x="71" y="0" flags="0x4"/>
    </TTGlyph>
    <TTGlyph name="egrave" xMin="56" yMin="-7" xMax="438" yMax="612">
      <component glyphName="e" x="0" y="0" flags="0x204"/>
      <component glyphName="grave" x="183" y="0" flags="0x4"/>
    </TTGlyph>
    <TTGlyph name="eight" xMin="22" yMin="-8" xMax="456" yMax="658">
      <contour>
        <pt x="170" y="506" on="1"/>
        <pt x="164" y="463" on="0"/>
        <pt x="219" y="407" on="0"/>
        <pt x="265" y="407" on="1"/>
        <pt x="311" y="407" on="0"/>
        <pt x="380" y="463" on="0"/>
        <pt x="386" y="506" on="1"/>
        <pt x="389" y="528" on="0"/>
        <pt x="379" y="568" on="0"/>
        <pt x="355" y="599" on="0"/>
        <pt x="318" y="617" on="0"/>
        <pt x="295" y="617" on="1"/>
        <pt x="272" y="617" on="0"/>
        <pt x="230" y="599" on="0"/>
        <pt x="196" y="568" on="0"/>
        <pt x="173" y="528" on="0"/>
      </contour>
      <contour>
        <pt x="71" y="201" on="1"/>
        <pt x="66" y="167" on="0"/>
        <pt x="83" y="106" on="0"/>
        <pt x="121" y="59" on="0"/>
        <pt x="177" y="32" on="0"/>
        <pt x="212" y="32" on="1"/>
        <pt x="247" y="32" on="0"/>
        <pt x="313" y="59" on="0"/>
        <pt x="365" y="106" on="0"/>
        <pt x="400" y="167" on="0"/>
        <pt x="405" y="201" on="1"/>
        <pt x="410" y="235" on="0"/>
        <pt x="392" y="294" on="0"/>
        <pt x="352" y="339" on="0"/>
        <pt x="294" y="366" on="0"/>
        <pt x="260" y="366" on="1"/>
        <pt x="225" y="366" on="0"/>
        <pt x="161" y="340" on="0"/>
        <pt x="110" y="295" on="0"/>
        <pt x="76" y="235" on="0"/>
      </contour>
      <contour>
        <pt x="28" y="201" on="1"/>
        <pt x="37" y="267" on="0"/>
        <pt x="125" y="368" on="0"/>
        <pt x="186" y="390" on="1"/>
        <pt x="155" y="406" on="0"/>
        <pt x="123" y="470" on="0"/>
        <pt x="129" y="510" on="1"/>
        <pt x="133" y="540" on="0"/>
        <pt x="163" y="594" on="0"/>
        <pt x="210" y="635" on="0"/>
        <pt x="267" y="658" on="0"/>
        <pt x="298" y="658" on="1"/>
        <pt x="329" y="658" on="0"/>
        <pt x="381" y="634" on="0"/>
        <pt x="416" y="593" on="0"/>
        <pt x="432" y="539" on="0"/>
        <pt x="428" y="508" on="1"/>
        <pt x="423" y="469" on="0"/>
        <pt x="373" y="407" on="0"/>
        <pt x="338" y="390" on="1"/>
        <pt x="395" y="369" on="0"/>
        <pt x="456" y="267" on="0"/>
        <pt x="447" y="201" on="1"/>
        <pt x="441" y="158" on="0"/>
        <pt x="396" y="82" on="0"/>
        <pt x="331" y="25" on="0"/>
        <pt x="250" y="-8" on="0"/>
        <pt x="207" y="-8" on="1"/>
        <pt x="164" y="-8" on="0"/>
        <pt x="93" y="25" on="0"/>
        <pt x="44" y="82" on="0"/>
        <pt x="22" y="158" on="0"/>
      </contour>
    </TTGlyph>
    <TTGlyph name="emdash" xMin="99" yMin="177" xMax="606" yMax="218">
      <contour>
        <pt x="99" y="177" on="1"/>
        <pt x="104" y="218" on="1"/>
        <pt x="606" y="218" on="1"/>
        <pt x="601" y="177" on="1"/>
      </contour>
    </TTGlyph>
    <TTGlyph name="endash" xMin="100" yMin="177" xMax="406" yMax="218">
      <contour>
        <pt x="100" y="177" on="1"/>
        <pt x="105" y="218" on="1"/>
        <pt x="406" y="218" on="1"/>
        <pt x="401" y="177" on="1"/>
      </contour>
    </TTGlyph>
    <TTGlyph name="equal" xMin="83" yMin="135" xMax="622" yMax="370">
      <contour>
        <pt x="595" y="176" on="1"/>
        <pt x="589" y="135" on="1"/>
        <pt x="83" y="135" on="1"/>
        <pt x="89" y="176" on="1"/>
      </contour>
      <contour>
        <pt x="622" y="370" on="1"/>
        <pt x="616" y="329" on="1"/>
        <pt x="110" y="329" on="1"/>
        <pt x="116" y="370" on="1"/>
      </contour>
    </TTGlyph>
    <TTGlyph name="eth" xMin="57" yMin="-6" xMax="463" yMax="731">
      <contour>
        <pt x="104" y="188" on="1"/>
        <pt x="99" y="156" on="0"/>
        <pt x="115" y="100" on="0"/>
        <pt x="151" y="58" on="0"/>
        <pt x="205" y="35" on="0"/>
        <pt x="238" y="35" on="1"/>
        <pt x="271" y="35" on="0"/>
        <pt x="331" y="60" on="0"/>
        <pt x="379" y="102" on="0"/>
        <pt x="410" y="158" on="0"/>
        <pt x="415" y="190" on="1"/>
        <pt x="419" y="223" on="0"/>
        <pt x="402" y="279" on="0"/>
        <pt x="366" y="321" on="0"/>
        <pt x="312" y="344" on="0"/>
        <pt x="279" y="344" on="1"/>
        <pt x="246" y="344" on="0"/>
        <pt x="186" y="319" on="0"/>
        <pt x="139" y="277" on="0"/>
        <pt x="108" y="220" on="0"/>
      </contour>
      <contour>
        <pt x="199" y="541" on="1"/>
        <pt x="219" y="559" on="0"/>
        <pt x="258" y="596" on="0"/>
        <pt x="278" y="614" on="1"/>
        <pt x="239" y="664" on="0"/>
        <pt x="197" y="703" on="1"/>
        <pt x="205" y="710" on="0"/>
        <pt x="221" y="724" on="0"/>
        <pt x="229" y="731" on="1"/>
        <pt x="271" y="695" on="0"/>
        <pt x="311" y="644" on="1"/>
        <pt x="328" y="661" on="0"/>
        <pt x="363" y="693" on="0"/>
        <pt x="380" y="710" on="1"/>
        <pt x="386" y="704" on="0"/>
        <pt x="398" y="692" on="0"/>
        <pt x="405" y="686" on="1"/>
        <pt x="385" y="668" on="0"/>
        <pt x="349" y="633" on="0"/>
        <pt x="330" y="615" on="1"/>
        <pt x="361" y="570" on="0"/>
        <pt x="413" y="465" on="0"/>
        <pt x="449" y="355" on="0"/>
        <pt x="463" y="244" on="0"/>
        <pt x="456" y="192" on="1"/>
        <pt x="451" y="151" on="0"/>
        <pt x="411" y="80" on="0"/>
        <pt x="351" y="26" on="0"/>
        <pt x="275" y="-5" on="0"/>
        <pt x="234" y="-6" on="1"/>
        <pt x="193" y="-6" on="0"/>
        <pt x="125" y="23" on="0"/>
        <pt x="79" y="76" on="0"/>
        <pt x="57" y="146" on="0"/>
        <pt x="62" y="187" on="1"/>
        <pt x="67" y="227" on="0"/>
        <pt x="107" y="299" on="0"/>
        <pt x="167" y="352" on="0"/>
        <pt x="243" y="384" on="0"/>
        <pt x="284" y="384" on="1"/>
        <pt x="321" y="385" on="0"/>
        <pt x="381" y="354" on="0"/>
        <pt x="400" y="328" on="1"/>
        <pt x="393" y="378" on="0"/>
        <pt x="346" y="511" on="0"/>
        <pt x="297" y="583" on="1"/>
        <pt x="279" y="566" on="0"/>
        <pt x="242" y="532" on="0"/>
        <pt x="224" y="515" on="1"/>
        <pt x="218" y="522" on="0"/>
        <pt x="206" y="534" on="0"/>
      </contour>
    </TTGlyph>
    <TTGlyph name="exclam" xMin="19" yMin="22" xMax="171" yMax="750">
      <contour>
        <pt x="48" y="22" on="1"/>
        <pt x="36" y="22" on="0"/>
        <pt x="19" y="41" on="0"/>
        <pt x="21" y="55" on="1"/>
        <pt x="22" y="69" on="0"/>
        <pt x="46" y="88" on="0"/>
        <pt x="58" y="88" on="1"/>
        <pt x="70" y="88" on="0"/>
        <pt x="87" y="69" on="0"/>
        <pt x="85" y="55" on="1"/>
        <pt x="83" y="41" on="0"/>
        <pt x="61" y="22" on="0"/>
      </contour>
      <contour>
        <pt x="130" y="750" on="1"/>
        <pt x="171" y="750" on="1"/>
        <pt x="89" y="166" on="1"/>
        <pt x="48" y="166" on="1"/>
      </contour>
    </TTGlyph>
    <TTGlyph name="exclamdown" xMin="82" yMin="-210" xMax="234" yMax="518">
      <contour>
        <pt x="205" y="518" on="1"/>
        <pt x="218" y="518" on="0"/>
        <pt x="234" y="499" on="0"/>
        <pt x="232" y="485" on="1"/>
        <pt x="230" y="471" on="0"/>
        <pt x="208" y="452" on="0"/>
        <pt x="196" y="452" on="1"/>
        <pt x="183" y="452" on="0"/>
        <pt x="166" y="471" on="0"/>
        <pt x="168" y="485" on="1"/>
        <pt x="171" y="499" on="0"/>
        <pt x="193" y="518" on="0"/>
      </contour>
      <contour>
        <pt x="164" y="374" on="1"/>
        <pt x="205" y="374" on="1"/>
        <pt x="123" y="-210" on="1"/>
        <pt x="82" y="-210" on="1"/>
      </contour>
    </TTGlyph>
    <TTGlyph name="f" xMin="35" yMin="0" xMax="408" yMax="750">
      <contour>
        <pt x="40" y="40" on="1"/>
        <pt x="101" y="40" on="1"/>
        <pt x="142" y="334" on="1"/>
        <pt x="81" y="334" on="1"/>
        <pt x="87" y="375" on="1"/>
        <pt x="148" y="375" on="1"/>
        <pt x="168" y="518" on="1"/>
        <pt x="176" y="573" on="0"/>
        <pt x="220" y="659" on="0"/>
        <pt x="285" y="717" on="0"/>
        <pt x="364" y="748" on="0"/>
        <pt x="408" y="750" on="1"/>
        <pt x="402" y="710" on="1"/>
        <pt x="368" y="709" on="0"/>
        <pt x="304" y="683" on="0"/>
        <pt x="252" y="633" on="0"/>
        <pt x="216" y="563" on="0"/>
        <pt x="210" y="519" on="1"/>
        <pt x="189" y="375" on="1"/>
        <pt x="314" y="375" on="1"/>
        <pt x="309" y="334" on="1"/>
        <pt x="184" y="334" on="1"/>
        <pt x="142" y="40" on="1"/>
        <pt x="233" y="40" on="1"/>
        <pt x="228" y="0" on="1"/>
        <pt x="35" y="0" on="1"/>
      </contour>
    </TTGlyph>
    <TTGlyph name="five" xMin="72" yMin="-8" xMax="476" yMax="650">
      <contour>
        <pt x="476" y="650" on="1"/>
        <pt x="462" y="549" on="1"/>
        <pt x="422" y="549" on="1"/>
        <pt x="430" y="609" on="1"/>
        <pt x="225" y="609" on="1"/>
        <pt x="195" y="392" on="1"/>
        <pt x="212" y="399" on="0"/>
        <pt x="247" y="407" on="0"/>
        <pt x="266" y="407" on="1"/>
        <pt x="309" y="407" on="0"/>
        <pt x="381" y="375" on="0"/>
        <pt x="431" y="319" on="0"/>
        <pt x="454" y="244" on="0"/>
        <pt x="448" y="201" on="1"/>
        <pt x="442" y="158" on="0"/>
        <pt x="397" y="82" on="0"/>
        <pt x="331" y="25" on="0"/>
        <pt x="250" y="-8" on="0"/>
        <pt x="207" y="-8" on="1"/>
        <pt x="165" y="-8" on="0"/>
        <pt x="96" y="23" on="0"/>
        <pt x="72" y="50" on="1"/>
        <pt x="107" y="78" on="1"/>
        <pt x="125" y="57" on="0"/>
        <pt x="179" y="33" on="0"/>
        <pt x="212" y="33" on="1"/>
        <pt x="247" y="33" on="0"/>
        <pt x="313" y="60" on="0"/>
        <pt x="365" y="106" on="0"/>
        <pt x="401" y="167" on="0"/>
        <pt x="406" y="201" on="1"/>
        <pt x="410" y="235" on="0"/>
        <pt x="392" y="295" on="0"/>
        <pt x="352" y="340" on="0"/>
        <pt x="294" y="366" on="0"/>
        <pt x="259" y="366" on="1"/>
        <pt x="224" y="366" on="0"/>
        <pt x="162" y="342" on="0"/>
        <pt x="142" y="321" on="1"/>
        <pt x="152" y="390" on="1"/>
        <pt x="189" y="650" on="1"/>
      </contour>
    </TTGlyph>
    <TTGlyph name="four" xMin="16" yMin="0" xMax="485" yMax="658">
      <contour>
        <pt x="243" y="40" on="1"/>
        <pt x="320" y="40" on="1"/>
        <pt x="340" y="183" on="1"/>
        <pt x="16" y="183" on="1"/>
        <pt x="449" y="658" on="1"/>
        <pt x="388" y="224" on="1"/>
        <pt x="485" y="224" on="1"/>
        <pt x="479" y="183" on="1"/>
        <pt x="382" y="183" on="1"/>
        <pt x="362" y="40" on="1"/>
        <pt x="445" y="40" on="1"/>
        <pt x="439" y="0" on="1"/>
        <pt x="238" y="0" on="1"/>
      </contour>
      <contour>
        <pt x="389" y="535" on="1"/>
        <pt x="107" y="224" on="1"/>
        <pt x="346" y="224" on="1"/>
      </contour>
    </TTGlyph>
    <TTGlyph name="g" xMin="90" yMin="-250" xMax="591" yMax="383">
      <contour>
        <pt x="482" y="375" on="1"/>
        <pt x="591" y="375" on="1"/>
        <pt x="585" y="335" on="1"/>
        <pt x="510" y="335" on="1"/>
        <pt x="458" y="-35" on="1"/>
        <pt x="451" y="-84" on="0"/>
        <pt x="410" y="-163" on="0"/>
        <pt x="351" y="-219" on="0"/>
        <pt x="278" y="-249" on="0"/>
        <pt x="238" y="-250" on="1"/>
        <pt x="196" y="-249" on="0"/>
        <pt x="115" y="-219" on="0"/>
        <pt x="92" y="-190" on="1"/>
        <pt x="126" y="-159" on="1"/>
        <pt x="145" y="-183" on="0"/>
        <pt x="209" y="-207" on="0"/>
        <pt x="243" y="-207" on="1"/>
        <pt x="274" y="-207" on="0"/>
        <pt x="332" y="-182" on="0"/>
        <pt x="380" y="-136" on="0"/>
        <pt x="412" y="-71" on="0"/>
        <pt x="418" y="-32" on="1"/>
        <pt x="427" y="40" on="1"/>
        <pt x="430" y="51" on="0"/>
        <pt x="435" y="74" on="0"/>
        <pt x="438" y="85" on="1"/>
        <pt x="427" y="67" on="0"/>
        <pt x="393" y="34" on="0"/>
        <pt x="348" y="9" on="0"/>
        <pt x="295" y="-7" on="0"/>
        <pt x="266" y="-7" on="1"/>
        <pt x="225" y="-7" on="0"/>
        <pt x="157" y="24" on="0"/>
        <pt x="111" y="76" on="0"/>
        <pt x="90" y="147" on="0"/>
        <pt x="96" y="188" on="1"/>
        <pt x="102" y="228" on="0"/>
        <pt x="142" y="299" on="0"/>
        <pt x="203" y="352" on="0"/>
        <pt x="279" y="383" on="0"/>
        <pt x="320" y="383" on="1"/>
        <pt x="349" y="383" on="0"/>
        <pt x="399" y="366" on="0"/>
        <pt x="437" y="339" on="0"/>
        <pt x="462" y="304" on="0"/>
        <pt x="466" y="287" on="1"/>
        <pt x="470" y="309" on="0"/>
        <pt x="478" y="353" on="0"/>
      </contour>
      <contour>
        <pt x="138" y="188" on="1"/>
        <pt x="133" y="156" on="0"/>
        <pt x="149" y="100" on="0"/>
        <pt x="185" y="58" on="0"/>
        <pt x="238" y="34" on="0"/>
        <pt x="271" y="34" on="1"/>
        <pt x="304" y="34" on="0"/>
        <pt x="364" y="58" on="0"/>
        <pt x="412" y="100" on="0"/>
        <pt x="443" y="156" on="0"/>
        <pt x="448" y="188" on="1"/>
        <pt x="452" y="220" on="0"/>
        <pt x="436" y="277" on="0"/>
        <pt x="400" y="319" on="0"/>
        <pt x="347" y="343" on="0"/>
        <pt x="314" y="343" on="1"/>
        <pt x="281" y="343" on="0"/>
        <pt x="222" y="319" on="0"/>
        <pt x="174" y="277" on="0"/>
        <pt x="142" y="220" on="0"/>
      </contour>
    </TTGlyph>
    <TTGlyph name="germandbls" xMin="36" yMin="-8" xMax="547" yMax="658">
      <contour>
        <pt x="42" y="40" on="1"/>
        <pt x="115" y="40" on="1"/>
        <pt x="160" y="356" on="1"/>
        <pt x="97" y="356" on="1"/>
        <pt x="102" y="396" on="1"/>
        <pt x="165" y="396" on="1"/>
        <pt x="169" y="425" on="1"/>
        <pt x="177" y="480" on="0"/>
        <pt x="221" y="566" on="0"/>
        <pt x="282" y="625" on="0"/>
        <pt x="358" y="657" on="0"/>
        <pt x="397" y="658" on="1"/>
        <pt x="428" y="657" on="0"/>
        <pt x="478" y="633" on="0"/>
        <pt x="513" y="592" on="0"/>
        <pt x="528" y="538" on="0"/>
        <pt x="524" y="507" on="1"/>
        <pt x="519" y="469" on="0"/>
        <pt x="469" y="406" on="0"/>
        <pt x="434" y="389" on="1"/>
        <pt x="462" y="379" on="0"/>
        <pt x="506" y="342" on="0"/>
        <pt x="535" y="293" on="0"/>
        <pt x="547" y="233" on="0"/>
        <pt x="543" y="200" on="1"/>
        <pt x="537" y="157" on="0"/>
        <pt x="492" y="81" on="0"/>
        <pt x="427" y="25" on="0"/>
        <pt x="346" y="-8" on="0"/>
        <pt x="303" y="-8" on="1"/>
        <pt x="250" y="-8" on="0"/>
        <pt x="208" y="17" on="1"/>
        <pt x="230" y="53" on="1"/>
        <pt x="263" y="32" on="0"/>
        <pt x="307" y="32" on="1"/>
        <pt x="342" y="32" on="0"/>
        <pt x="408" y="59" on="0"/>
        <pt x="461" y="105" on="0"/>
        <pt x="496" y="166" on="0"/>
        <pt x="501" y="200" on="1"/>
        <pt x="505" y="234" on="0"/>
        <pt x="487" y="294" on="0"/>
        <pt x="447" y="339" on="0"/>
        <pt x="389" y="365" on="0"/>
        <pt x="355" y="365" on="1"/>
        <pt x="356" y="370" on="0"/>
        <pt x="356" y="380" on="0"/>
        <pt x="357" y="386" on="1"/>
        <pt x="360" y="407" on="1"/>
        <pt x="382" y="407" on="0"/>
        <pt x="424" y="421" on="0"/>
        <pt x="457" y="447" on="0"/>
        <pt x="479" y="483" on="0"/>
        <pt x="482" y="505" on="1"/>
        <pt x="485" y="527" on="0"/>
        <pt x="475" y="567" on="0"/>
        <pt x="451" y="599" on="0"/>
        <pt x="415" y="617" on="0"/>
        <pt x="392" y="617" on="1"/>
        <pt x="360" y="617" on="0"/>
        <pt x="300" y="590" on="0"/>
        <pt x="251" y="540" on="0"/>
        <pt x="217" y="469" on="0"/>
        <pt x="211" y="425" on="1"/>
        <pt x="151" y="0" on="1"/>
        <pt x="36" y="0" on="1"/>
      </contour>
    </TTGlyph>
    <TTGlyph name="grave" xMin="-15" yMin="479" xMax="90" yMax="612">
      <contour>
        <pt x="27" y="612" on="1"/>
        <pt x="44" y="579" on="0"/>
        <pt x="74" y="512" on="0"/>
        <pt x="90" y="479" on="1"/>
        <pt x="57" y="479" on="1"/>
        <pt x="38" y="512" on="0"/>
        <pt x="3" y="579" on="0"/>
        <pt x="-15" y="612" on="1"/>
      </contour>
    </TTGlyph>
    <TTGlyph name="greater" xMin="79" yMin="-15" xMax="553" yMax="491">
      <contour>
        <pt x="79" y="-15" on="1"/>
        <pt x="87" y="40" on="1"/>
        <pt x="180" y="90" on="0"/>
        <pt x="365" y="188" on="0"/>
        <pt x="459" y="238" on="1"/>
        <pt x="380" y="288" on="0"/>
        <pt x="222" y="386" on="0"/>
        <pt x="143" y="436" on="1"/>
        <pt x="150" y="491" on="1"/>
        <pt x="251" y="428" on="0"/>
        <pt x="451" y="301" on="0"/>
        <pt x="553" y="238" on="1"/>
        <pt x="434" y="175" on="0"/>
        <pt x="198" y="48" on="0"/>
      </contour>
    </TTGlyph>
    <TTGlyph name="guillemotleft" xMin="139" yMin="77" xMax="504" yMax="400">
      <contour>
        <pt x="459" y="77" on="1"/>
        <pt x="310" y="239" on="1"/>
        <pt x="359" y="280" on="0"/>
        <pt x="455" y="359" on="0"/>
        <pt x="504" y="400" on="1"/>
        <pt x="498" y="352" on="1"/>
        <pt x="435" y="297" on="0"/>
        <pt x="370" y="239" on="1"/>
        <pt x="393" y="210" on="0"/>
        <pt x="442" y="154" on="0"/>
        <pt x="465" y="125" on="1"/>
      </contour>
      <contour>
        <pt x="288" y="77" on="1"/>
        <pt x="139" y="239" on="1"/>
        <pt x="188" y="280" on="0"/>
        <pt x="284" y="359" on="0"/>
        <pt x="333" y="400" on="1"/>
        <pt x="327" y="352" on="1"/>
        <pt x="295" y="323" on="0"/>
        <pt x="231" y="268" on="0"/>
        <pt x="199" y="239" on="1"/>
        <pt x="222" y="210" on="0"/>
        <pt x="271" y="154" on="0"/>
        <pt x="294" y="125" on="1"/>
      </contour>
    </TTGlyph>
    <TTGlyph name="guillemotright" xMin="117" yMin="77" xMax="481" yMax="400">
      <contour>
        <pt x="123" y="125" on="1"/>
        <pt x="155" y="154" on="0"/>
        <pt x="218" y="210" on="0"/>
        <pt x="250" y="239" on="1"/>
        <pt x="227" y="268" on="0"/>
        <pt x="179" y="324" on="0"/>
        <pt x="156" y="352" on="1"/>
        <pt x="162" y="400" on="1"/>
        <pt x="199" y="359" on="0"/>
        <pt x="273" y="280" on="0"/>
        <pt x="310" y="239" on="1"/>
        <pt x="117" y="77" on="1"/>
      </contour>
      <contour>
        <pt x="294" y="125" on="1"/>
        <pt x="326" y="154" on="0"/>
        <pt x="389" y="210" on="0"/>
        <pt x="421" y="239" on="1"/>
        <pt x="398" y="268" on="0"/>
        <pt x="350" y="323" on="0"/>
        <pt x="327" y="352" on="1"/>
        <pt x="333" y="400" on="1"/>
        <pt x="370" y="359" on="0"/>
        <pt x="444" y="280" on="0"/>
        <pt x="481" y="239" on="1"/>
        <pt x="288" y="77" on="1"/>
      </contour>
    </TTGlyph>
    <TTGlyph name="guilsinglleft" xMin="139" yMin="77" xMax="333" yMax="400">
      <contour>
        <pt x="288" y="77" on="1"/>
        <pt x="139" y="239" on="1"/>
        <pt x="188" y="280" on="0"/>
        <pt x="284" y="359" on="0"/>
        <pt x="333" y="400" on="1"/>
        <pt x="327" y="352" on="1"/>
        <pt x="295" y="323" on="0"/>
        <pt x="231" y="268" on="0"/>
        <pt x="199" y="239" on="1"/>
        <pt x="222" y="210" on="0"/>
        <pt x="271" y="154" on="0"/>
        <pt x="294" y="125" on="1"/>
      </contour>
    </TTGlyph>
    <TTGlyph name="guilsinglright" xMin="117" yMin="77" xMax="310" yMax="400">
      <contour>
        <pt x="123" y="125" on="1"/>
        <pt x="155" y="154" on="0"/>
        <pt x="218" y="210" on="0"/>
        <pt x="250" y="239" on="1"/>
        <pt x="227" y="268" on="0"/>
        <pt x="179" y="323" on="0"/>
        <pt x="156" y="352" on="1"/>
        <pt x="162" y="400" on="1"/>
        <pt x="199" y="359" on="0"/>
        <pt x="273" y="280" on="0"/>
        <pt x="310" y="239" on="1"/>
        <pt x="117" y="77" on="1"/>
      </contour>
    </TTGlyph>
    <TTGlyph name="h" xMin="35" yMin="0" xMax="515" yMax="750">
      <contour>
        <pt x="322" y="40" on="1"/>
        <pt x="400" y="40" on="1"/>
        <pt x="431" y="260" on="1"/>
        <pt x="434" y="292" on="0"/>
        <pt x="398" y="340" on="0"/>
        <pt x="356" y="342" on="1"/>
        <pt x="325" y="342" on="0"/>
        <pt x="267" y="321" on="0"/>
        <pt x="219" y="285" on="0"/>
        <pt x="186" y="235" on="0"/>
        <pt x="182" y="205" on="1"/>
        <pt x="159" y="40" on="1"/>
        <pt x="233" y="40" on="1"/>
        <pt x="228" y="0" on="1"/>
        <pt x="35" y="0" on="1"/>
        <pt x="40" y="40" on="1"/>
        <pt x="118" y="40" on="1"/>
        <pt x="212" y="710" on="1"/>
        <pt x="138" y="710" on="1"/>
        <pt x="144" y="750" on="1"/>
        <pt x="259" y="750" on="1"/>
        <pt x="199" y="323" on="1"/>
        <pt x="190" y="278" on="1"/>
        <pt x="218" y="326" on="0"/>
        <pt x="312" y="381" on="0"/>
        <pt x="369" y="383" on="1"/>
        <pt x="424" y="383" on="0"/>
        <pt x="480" y="321" on="0"/>
        <pt x="474" y="271" on="1"/>
        <pt x="442" y="40" on="1"/>
        <pt x="515" y="40" on="1"/>
        <pt x="510" y="0" on="1"/>
        <pt x="317" y="0" on="1"/>
      </contour>
    </TTGlyph>
    <TTGlyph name="hyphen" xMin="50" yMin="169" xMax="239" yMax="210">
      <contour>
        <pt x="50" y="169" on="1"/>
        <pt x="55" y="210" on="1"/>
        <pt x="239" y="210" on="1"/>
        <pt x="234" y="169" on="1"/>
      </contour>
    </TTGlyph>
    <TTGlyph name="i" xMin="35" yMin="0" xMax="239" yMax="541">
      <contour>
        <pt x="40" y="40" on="1"/>
        <pt x="117" y="40" on="1"/>
        <pt x="159" y="335" on="1"/>
        <pt x="81" y="335" on="1"/>
        <pt x="87" y="375" on="1"/>
        <pt x="206" y="375" on="1"/>
        <pt x="159" y="40" on="1"/>
        <pt x="233" y="40" on="1"/>
        <pt x="228" y="0" on="1"/>
        <pt x="35" y="0" on="1"/>
      </contour>
      <contour>
        <pt x="172" y="508" on="1"/>
        <pt x="174" y="522" on="0"/>
        <pt x="196" y="541" on="0"/>
        <pt x="209" y="541" on="1"/>
        <pt x="222" y="541" on="0"/>
        <pt x="239" y="522" on="0"/>
        <pt x="237" y="508" on="1"/>
        <pt x="235" y="494" on="0"/>
        <pt x="212" y="475" on="0"/>
        <pt x="200" y="475" on="1"/>
        <pt x="187" y="475" on="0"/>
        <pt x="170" y="494" on="0"/>
      </contour>
    </TTGlyph>
    <TTGlyph name="iacute" xMin="35" yMin="0" xMax="338" yMax="612">
      <component glyphName="dotlessi" x="0" y="0" flags="0x204"/>
      <component glyphName="acute" x="87" y="0" flags="0x4"/>
    </TTGlyph>
    <TTGlyph name="icircumflex" xMin="35" yMin="0" xMax="308" yMax="660">
      <component glyphName="dotlessi" x="0" y="0" flags="0x204"/>
      <component glyphName="asciicircum" x="-31" y="0" flags="0x4"/>
    </TTGlyph>
    <TTGlyph name="idieresis" xMin="35" yMin="0" xMax="312" yMax="541">
      <component glyphName="dotlessi" x="0" y="0" flags="0x204"/>
      <component glyphName="dieresis" x="7" y="0" flags="0x4"/>
    </TTGlyph>
    <TTGlyph name="igrave" xMin="35" yMin="0" xMax="233" yMax="612">
      <component glyphName="dotlessi" x="0" y="0" flags="0x204"/>
      <component glyphName="grave" x="117" y="0" flags="0x4"/>
    </TTGlyph>
    <TTGlyph name="j" xMin="6" yMin="-180" xMax="209" yMax="541">
      <contour>
        <pt x="61" y="375" on="1"/>
        <pt x="175" y="375" on="1"/>
        <pt x="122" y="-4" on="1"/>
        <pt x="114" y="-63" on="0"/>
        <pt x="67" y="-151" on="0"/>
        <pt x="32" y="-180" on="1"/>
        <pt x="6" y="-150" on="1"/>
        <pt x="34" y="-125" on="0"/>
        <pt x="74" y="-53" on="0"/>
        <pt x="80" y="-5" on="1"/>
        <pt x="128" y="335" on="1"/>
        <pt x="55" y="335" on="1"/>
      </contour>
      <contour>
        <pt x="142" y="508" on="1"/>
        <pt x="144" y="522" on="0"/>
        <pt x="166" y="541" on="0"/>
        <pt x="179" y="541" on="1"/>
        <pt x="192" y="541" on="0"/>
        <pt x="209" y="522" on="0"/>
        <pt x="207" y="508" on="1"/>
        <pt x="205" y="494" on="0"/>
        <pt x="183" y="475" on="0"/>
        <pt x="170" y="475" on="1"/>
        <pt x="157" y="475" on="0"/>
        <pt x="140" y="494" on="0"/>
      </contour>
    </TTGlyph>
    <TTGlyph name="k" xMin="35" yMin="0" xMax="482" yMax="750">
      <contour>
        <pt x="288" y="40" on="1"/>
        <pt x="336" y="40" on="1"/>
        <pt x="312" y="80" on="0"/>
        <pt x="265" y="159" on="0"/>
        <pt x="242" y="199" on="1"/>
        <pt x="169" y="139" on="1"/>
        <pt x="155" y="40" on="1"/>
        <pt x="233" y="40" on="1"/>
        <pt x="228" y="0" on="1"/>
        <pt x="35" y="0" on="1"/>
        <pt x="40" y="40" on="1"/>
        <pt x="114" y="40" on="1"/>
        <pt x="208" y="710" on="1"/>
        <pt x="138" y="710" on="1"/>
        <pt x="143" y="750" on="1"/>
        <pt x="255" y="750" on="1"/>
        <pt x="176" y="190" on="1"/>
        <pt x="352" y="335" on="1"/>
        <pt x="291" y="335" on="1"/>
        <pt x="297" y="375" on="1"/>
        <pt x="482" y="375" on="1"/>
        <pt x="476" y="335" on="1"/>
        <pt x="404" y="335" on="1"/>
        <pt x="369" y="306" on="0"/>
        <pt x="311" y="256" on="0"/>
        <pt x="276" y="227" on="1"/>
        <pt x="303" y="179" on="0"/>
        <pt x="358" y="87" on="0"/>
        <pt x="386" y="40" on="1"/>
        <pt x="473" y="40" on="1"/>
        <pt x="468" y="0" on="1"/>
        <pt x="283" y="0" on="1"/>
      </contour>
    </TTGlyph>
    <TTGlyph name="l" xMin="35" yMin="0" xMax="255" yMax="750">
      <contour>
        <pt x="40" y="40" on="1"/>
        <pt x="114" y="40" on="1"/>
        <pt x="208" y="710" on="1"/>
        <pt x="138" y="710" on="1"/>
        <pt x="143" y="750" on="1"/>
        <pt x="255" y="750" on="1"/>
        <pt x="155" y="40" on="1"/>
        <pt x="233" y="40" on="1"/>
        <pt x="228" y="0" on="1"/>
        <pt x="35" y="0" on="1"/>
      </contour>
    </TTGlyph>
    <TTGlyph name="less" xMin="115" yMin="-15" xMax="588" yMax="491">
      <contour>
        <pt x="525" y="40" on="1"/>
        <pt x="517" y="-15" on="1"/>
        <pt x="416" y="48" on="0"/>
        <pt x="216" y="175" on="0"/>
        <pt x="115" y="238" on="1"/>
        <pt x="233" y="301" on="0"/>
        <pt x="469" y="428" on="0"/>
        <pt x="588" y="491" on="1"/>
        <pt x="580" y="436" on="1"/>
        <pt x="487" y="386" on="0"/>
        <pt x="303" y="288" on="0"/>
        <pt x="209" y="238" on="1"/>
        <pt x="288" y="188" on="0"/>
        <pt x="445" y="90" on="0"/>
      </contour>
    </TTGlyph>
    <TTGlyph name="logicalnot" xMin="109" yMin="148" xMax="473" yMax="244">
      <contour>
        <pt x="418" y="148" on="1"/>
        <pt x="427" y="211" on="1"/>
        <pt x="109" y="211" on="1"/>
        <pt x="113" y="244" on="1"/>
        <pt x="473" y="244" on="1"/>
        <pt x="460" y="148" on="1"/>
      </contour>
    </TTGlyph>
    <TTGlyph name="m" xMin="35" yMin="0" xMax="798" yMax="383">
      <contour>
        <pt x="605" y="40" on="1"/>
        <pt x="683" y="40" on="1"/>
        <pt x="713" y="260" on="1"/>
        <pt x="716" y="292" on="0"/>
        <pt x="680" y="340" on="0"/>
        <pt x="638" y="342" on="1"/>
        <pt x="608" y="342" on="0"/>
        <pt x="550" y="322" on="0"/>
        <pt x="503" y="286" on="0"/>
        <pt x="470" y="237" on="0"/>
        <pt x="465" y="208" on="1"/>
        <pt x="442" y="40" on="1"/>
        <pt x="516" y="40" on="1"/>
        <pt x="511" y="0" on="1"/>
        <pt x="317" y="0" on="1"/>
        <pt x="322" y="40" on="1"/>
        <pt x="400" y="40" on="1"/>
        <pt x="431" y="260" on="1"/>
        <pt x="434" y="292" on="0"/>
        <pt x="398" y="340" on="0"/>
        <pt x="356" y="342" on="1"/>
        <pt x="325" y="342" on="0"/>
        <pt x="267" y="321" on="0"/>
        <pt x="219" y="285" on="0"/>
        <pt x="186" y="235" on="0"/>
        <pt x="182" y="205" on="1"/>
        <pt x="159" y="40" on="1"/>
        <pt x="233" y="40" on="1"/>
        <pt x="228" y="0" on="1"/>
        <pt x="35" y="0" on="1"/>
        <pt x="40" y="40" on="1"/>
        <pt x="118" y="40" on="1"/>
        <pt x="159" y="335" on="1"/>
        <pt x="88" y="335" on="1"/>
        <pt x="93" y="375" on="1"/>
        <pt x="199" y="375" on="1"/>
        <pt x="195" y="340" on="1"/>
        <pt x="193" y="323" on="0"/>
        <pt x="192" y="295" on="0"/>
        <pt x="190" y="278" on="1"/>
        <pt x="217" y="326" on="0"/>
        <pt x="312" y="382" on="0"/>
        <pt x="369" y="383" on="1"/>
        <pt x="420" y="383" on="0"/>
        <pt x="476" y="328" on="0"/>
        <pt x="475" y="283" on="1"/>
        <pt x="503" y="328" on="0"/>
        <pt x="596" y="382" on="0"/>
        <pt x="651" y="383" on="1"/>
        <pt x="706" y="383" on="0"/>
        <pt x="762" y="321" on="0"/>
        <pt x="757" y="271" on="1"/>
        <pt x="724" y="40" on="1"/>
        <pt x="798" y="40" on="1"/>
        <pt x="793" y="0" on="1"/>
        <pt x="600" y="0" on="1"/>
      </contour>
    </TTGlyph>
    <TTGlyph name="macron" xMin="85" yMin="486" xMax="318" yMax="516">
      <contour>
        <pt x="85" y="486" on="1"/>
        <pt x="88" y="516" on="1"/>
        <pt x="318" y="516" on="1"/>
        <pt x="315" y="486" on="1"/>
      </contour>
    </TTGlyph>
    <TTGlyph name="mu" xMin="103" yMin="-201" xMax="531" yMax="375">
      <contour>
        <pt x="392" y="375" on="1"/>
        <pt x="507" y="375" on="1"/>
        <pt x="460" y="36" on="1"/>
        <pt x="531" y="36" on="1"/>
        <pt x="526" y="0" on="1"/>
        <pt x="418" y="0" on="1"/>
        <pt x="421" y="35" on="1"/>
        <pt x="430" y="97" on="1"/>
        <pt x="403" y="49" on="0"/>
        <pt x="306" y="-8" on="0"/>
        <pt x="251" y="-8" on="1"/>
        <pt x="224" y="-8" on="0"/>
        <pt x="187" y="11" on="0"/>
        <pt x="176" y="28" on="1"/>
        <pt x="145" y="-201" on="1"/>
        <pt x="103" y="-201" on="1"/>
        <pt x="177" y="335" on="1"/>
        <pt x="104" y="335" on="1"/>
        <pt x="109" y="375" on="1"/>
        <pt x="225" y="375" on="1"/>
        <pt x="189" y="115" on="1"/>
        <pt x="186" y="83" on="0"/>
        <pt x="222" y="35" on="0"/>
        <pt x="264" y="33" on="1"/>
        <pt x="295" y="33" on="0"/>
        <pt x="353" y="54" on="0"/>
        <pt x="401" y="90" on="0"/>
        <pt x="433" y="140" on="0"/>
        <pt x="437" y="170" on="1"/>
        <pt x="460" y="335" on="1"/>
        <pt x="386" y="335" on="1"/>
      </contour>
    </TTGlyph>
    <TTGlyph name="multiply" xMin="126" yMin="0" xMax="441" yMax="284">
      <contour>
        <pt x="377" y="0" on="1"/>
        <pt x="351" y="29" on="0"/>
        <pt x="303" y="84" on="0"/>
        <pt x="279" y="113" on="1"/>
        <pt x="216" y="58" on="0"/>
        <pt x="151" y="0" on="1"/>
        <pt x="145" y="8" on="0"/>
        <pt x="131" y="22" on="0"/>
        <pt x="126" y="29" on="1"/>
        <pt x="158" y="58" on="0"/>
        <pt x="222" y="113" on="0"/>
        <pt x="254" y="142" on="1"/>
        <pt x="157" y="254" on="1"/>
        <pt x="192" y="284" on="1"/>
        <pt x="288" y="172" on="1"/>
        <pt x="320" y="201" on="0"/>
        <pt x="384" y="255" on="0"/>
        <pt x="416" y="284" on="1"/>
        <pt x="422" y="277" on="0"/>
        <pt x="435" y="262" on="0"/>
        <pt x="441" y="255" on="1"/>
        <pt x="409" y="227" on="0"/>
        <pt x="345" y="171" on="0"/>
        <pt x="313" y="143" on="1"/>
        <pt x="337" y="114" on="0"/>
        <pt x="385" y="58" on="0"/>
        <pt x="410" y="30" on="1"/>
      </contour>
    </TTGlyph>
    <TTGlyph name="n" xMin="35" yMin="0" xMax="515" yMax="383">
      <contour>
        <pt x="322" y="40" on="1"/>
        <pt x="400" y="40" on="1"/>
        <pt x="431" y="260" on="1"/>
        <pt x="434" y="292" on="0"/>
        <pt x="398" y="340" on="0"/>
        <pt x="356" y="342" on="1"/>
        <pt x="325" y="342" on="0"/>
        <pt x="267" y="321" on="0"/>
        <pt x="219" y="285" on="0"/>
        <pt x="186" y="235" on="0"/>
        <pt x="182" y="205" on="1"/>
        <pt x="159" y="40" on="1"/>
        <pt x="233" y="40" on="1"/>
        <pt x="228" y="0" on="1"/>
        <pt x="35" y="0" on="1"/>
        <pt x="40" y="40" on="1"/>
        <pt x="118" y="40" on="1"/>
        <pt x="159" y="335" on="1"/>
        <pt x="88" y="335" on="1"/>
        <pt x="93" y="375" on="1"/>
        <pt x="199" y="375" on="1"/>
        <pt x="195" y="340" on="1"/>
        <pt x="193" y="323" on="0"/>
        <pt x="192" y="295" on="0"/>
        <pt x="190" y="278" on="1"/>
        <pt x="217" y="325" on="0"/>
        <pt x="313" y="383" on="0"/>
        <pt x="369" y="383" on="1"/>
        <pt x="424" y="383" on="0"/>
        <pt x="480" y="321" on="0"/>
        <pt x="474" y="271" on="1"/>
        <pt x="442" y="40" on="1"/>
        <pt x="515" y="40" on="1"/>
        <pt x="510" y="0" on="1"/>
        <pt x="317" y="0" on="1"/>
      </contour>
    </TTGlyph>
    <TTGlyph name="nine" xMin="53" yMin="-8" xMax="484" yMax="634">
      <contour>
        <pt x="436" y="427" on="1"/>
        <pt x="441" y="461" on="0"/>
        <pt x="423" y="522" on="0"/>
        <pt x="384" y="567" on="0"/>
        <pt x="327" y="593" on="0"/>
        <pt x="293" y="593" on="1"/>
        <pt x="258" y="593" on="0"/>
        <pt x="193" y="567" on="0"/>
        <pt x="141" y="522" on="0"/>
        <pt x="105" y="461" on="0"/>
        <pt x="100" y="427" on="1"/>
        <pt x="95" y="392" on="0"/>
        <pt x="114" y="332" on="0"/>
        <pt x="153" y="286" on="0"/>
        <pt x="211" y="260" on="0"/>
        <pt x="246" y="260" on="1"/>
        <pt x="280" y="260" on="0"/>
        <pt x="345" y="286" on="0"/>
        <pt x="396" y="332" on="0"/>
        <pt x="431" y="392" on="0"/>
      </contour>
      <contour>
        <pt x="478" y="427" on="1"/>
        <pt x="468" y="356" on="0"/>
        <pt x="389" y="232" on="0"/>
        <pt x="276" y="124" on="0"/>
        <pt x="146" y="32" on="0"/>
        <pt x="85" y="-8" on="1"/>
        <pt x="74" y="8" on="0"/>
        <pt x="63" y="25" on="1"/>
        <pt x="180" y="96" on="0"/>
        <pt x="320" y="222" on="0"/>
        <pt x="353" y="269" on="1"/>
        <pt x="330" y="246" on="0"/>
        <pt x="272" y="220" on="0"/>
        <pt x="240" y="220" on="1"/>
        <pt x="196" y="220" on="0"/>
        <pt x="125" y="252" on="0"/>
        <pt x="75" y="308" on="0"/>
        <pt x="53" y="384" on="0"/>
        <pt x="59" y="427" on="1"/>
        <pt x="65" y="470" on="0"/>
        <pt x="109" y="545" on="0"/>
        <pt x="174" y="601" on="0"/>
        <pt x="255" y="634" on="0"/>
        <pt x="298" y="634" on="1"/>
        <pt x="341" y="634" on="0"/>
        <pt x="413" y="601" on="0"/>
        <pt x="462" y="545" on="0"/>
        <pt x="484" y="470" on="0"/>
      </contour>
    </TTGlyph>
    <TTGlyph name="ntilde" xMin="35" yMin="0" xMax="515" yMax="537">
      <component glyphName="n" x="0" y="0" flags="0x204"/>
      <component glyphName="asciitilde" x="65" y="-8" flags="0x4"/>
    </TTGlyph>
    <TTGlyph name="numbersign" xMin="11" yMin="0" xMax="525" yMax="643">
      <contour>
        <pt x="208" y="393" on="1"/>
        <pt x="199" y="357" on="0"/>
        <pt x="181" y="286" on="0"/>
        <pt x="171" y="251" on="1"/>
        <pt x="313" y="251" on="1"/>
        <pt x="323" y="286" on="0"/>
        <pt x="341" y="357" on="0"/>
        <pt x="350" y="393" on="1"/>
      </contour>
      <contour>
        <pt x="248" y="0" on="1"/>
        <pt x="302" y="210" on="1"/>
        <pt x="160" y="210" on="1"/>
        <pt x="106" y="0" on="1"/>
        <pt x="64" y="0" on="1"/>
        <pt x="118" y="210" on="1"/>
        <pt x="11" y="210" on="1"/>
        <pt x="14" y="221" on="0"/>
        <pt x="19" y="240" on="0"/>
        <pt x="22" y="251" on="1"/>
        <pt x="129" y="251" on="1"/>
        <pt x="139" y="286" on="0"/>
        <pt x="157" y="357" on="0"/>
        <pt x="166" y="393" on="1"/>
        <pt x="60" y="393" on="1"/>
        <pt x="62" y="403" on="0"/>
        <pt x="67" y="423" on="0"/>
        <pt x="69" y="433" on="1"/>
        <pt x="176" y="433" on="1"/>
        <pt x="190" y="486" on="0"/>
        <pt x="218" y="590" on="0"/>
        <pt x="232" y="643" on="1"/>
        <pt x="274" y="643" on="1"/>
        <pt x="260" y="590" on="0"/>
        <pt x="232" y="486" on="0"/>
        <pt x="218" y="433" on="1"/>
        <pt x="360" y="433" on="1"/>
        <pt x="374" y="486" on="0"/>
        <pt x="402" y="590" on="0"/>
        <pt x="416" y="643" on="1"/>
        <pt x="458" y="643" on="1"/>
        <pt x="444" y="590" on="0"/>
        <pt x="416" y="486" on="0"/>
        <pt x="402" y="433" on="1"/>
        <pt x="525" y="433" on="1"/>
        <pt x="523" y="423" on="0"/>
        <pt x="517" y="403" on="0"/>
        <pt x="515" y="393" on="1"/>
        <pt x="392" y="393" on="1"/>
        <pt x="383" y="357" on="0"/>
        <pt x="365" y="286" on="0"/>
        <pt x="355" y="251" on="1"/>
        <pt x="477" y="251" on="1"/>
        <pt x="475" y="240" on="0"/>
        <pt x="469" y="221" on="0"/>
        <pt x="467" y="210" on="1"/>
        <pt x="344" y="210" on="1"/>
        <pt x="290" y="0" on="1"/>
      </contour>
    </TTGlyph>
    <TTGlyph name="o" xMin="57" yMin="-7" xMax="463" yMax="384">
      <contour>
        <pt x="63" y="188" on="1"/>
        <pt x="69" y="228" on="0"/>
        <pt x="109" y="300" on="0"/>
        <pt x="169" y="353" on="0"/>
        <pt x="245" y="384" on="0"/>
        <pt x="286" y="384" on="1"/>
        <pt x="327" y="384" on="0"/>
        <pt x="395" y="353" on="0"/>
        <pt x="442" y="300" on="0"/>
        <pt x="463" y="228" on="0"/>
        <pt x="457" y="188" on="1"/>
        <pt x="451" y="147" on="0"/>
        <pt x="411" y="76" on="0"/>
        <pt x="350" y="24" on="0"/>
        <pt x="273" y="-7" on="0"/>
        <pt x="232" y="-7" on="1"/>
        <pt x="191" y="-7" on="0"/>
        <pt x="124" y="24" on="0"/>
        <pt x="78" y="76" on="0"/>
        <pt x="57" y="147" on="0"/>
      </contour>
      <contour>
        <pt x="104" y="188" on="1"/>
        <pt x="99" y="156" on="0"/>
        <pt x="116" y="100" on="0"/>
        <pt x="152" y="58" on="0"/>
        <pt x="204" y="34" on="0"/>
        <pt x="236" y="34" on="1"/>
        <pt x="268" y="34" on="0"/>
        <pt x="328" y="58" on="0"/>
        <pt x="376" y="100" on="0"/>
        <pt x="408" y="156" on="0"/>
        <pt x="413" y="188" on="1"/>
        <pt x="417" y="220" on="0"/>
        <pt x="401" y="276" on="0"/>
        <pt x="365" y="318" on="0"/>
        <pt x="312" y="343" on="0"/>
        <pt x="280" y="343" on="1"/>
        <pt x="248" y="343" on="0"/>
        <pt x="188" y="318" on="0"/>
        <pt x="140" y="276" on="0"/>
        <pt x="108" y="220" on="0"/>
      </contour>
    </TTGlyph>
    <TTGlyph name="oacute" xMin="57" yMin="-7" xMax="463" yMax="612">
      <component glyphName="o" x="0" y="0" flags="0x204"/>
      <component glyphName="acute" x="200" y="0" flags="0x4"/>
    </TTGlyph>
    <TTGlyph name="ocircumflex" xMin="57" yMin="-7" xMax="463" yMax="660">
      <component glyphName="o" x="0" y="0" flags="0x204"/>
      <component glyphName="asciicircum" x="87" y="0" flags="0x4"/>
    </TTGlyph>
    <TTGlyph name="odieresis" xMin="57" yMin="-7" xMax="463" yMax="541">
      <component glyphName="o" x="0" y="0" flags="0x204"/>
      <component glyphName="dieresis" x="111" y="0" flags="0x4"/>
    </TTGlyph>
    <TTGlyph name="ograve" xMin="57" yMin="-7" xMax="463" yMax="612">
      <component glyphName="o" x="0" y="0" flags="0x204"/>
      <component glyphName="grave" x="216" y="0" flags="0x4"/>
    </TTGlyph>
    <TTGlyph name="one" xMin="4" yMin="0" xMax="216" yMax="650">
      <contour>
        <pt x="9" y="40" on="1"/>
        <pt x="89" y="40" on="1"/>
        <pt x="168" y="609" on="1"/>
        <pt x="73" y="609" on="1"/>
        <pt x="79" y="650" on="1"/>
        <pt x="216" y="650" on="1"/>
        <pt x="131" y="40" on="1"/>
        <pt x="210" y="40" on="1"/>
        <pt x="205" y="0" on="1"/>
        <pt x="4" y="0" on="1"/>
      </contour>
    </TTGlyph>
    <TTGlyph name="onehalf" xMin="100" yMin="-19" xMax="864" yMax="735">
      <contour>
        <pt x="103" y="262" on="1"/>
        <pt x="160" y="262" on="1"/>
        <pt x="216" y="666" on="1"/>
        <pt x="149" y="666" on="1"/>
        <pt x="153" y="695" on="1"/>
        <pt x="250" y="695" on="1"/>
        <pt x="190" y="262" on="1"/>
        <pt x="246" y="262" on="1"/>
        <pt x="243" y="234" on="1"/>
        <pt x="100" y="234" on="1"/>
      </contour>
      <contour>
        <pt x="627" y="29" on="1"/>
        <pt x="820" y="29" on="1"/>
        <pt x="830" y="103" on="1"/>
        <pt x="859" y="103" on="1"/>
        <pt x="844" y="0" on="1"/>
        <pt x="550" y="0" on="1"/>
        <pt x="601" y="44" on="0"/>
        <pt x="697" y="128" on="0"/>
        <pt x="774" y="208" on="0"/>
        <pt x="824" y="282" on="0"/>
        <pt x="829" y="316" on="1"/>
        <pt x="834" y="350" on="0"/>
        <pt x="820" y="396" on="0"/>
        <pt x="793" y="425" on="0"/>
        <pt x="758" y="437" on="0"/>
        <pt x="743" y="437" on="1"/>
        <pt x="711" y="437" on="0"/>
        <pt x="667" y="414" on="0"/>
        <pt x="639" y="382" on="0"/>
        <pt x="625" y="343" on="0"/>
        <pt x="622" y="328" on="1"/>
        <pt x="615" y="280" on="0"/>
        <pt x="639" y="250" on="1"/>
        <pt x="619" y="232" on="1"/>
        <pt x="603" y="248" on="0"/>
        <pt x="589" y="300" on="0"/>
        <pt x="593" y="328" on="1"/>
        <pt x="597" y="356" on="0"/>
        <pt x="622" y="406" on="0"/>
        <pt x="661" y="444" on="0"/>
        <pt x="714" y="466" on="0"/>
        <pt x="747" y="466" on="1"/>
        <pt x="777" y="466" on="0"/>
        <pt x="823" y="444" on="0"/>
        <pt x="852" y="406" on="0"/>
        <pt x="864" y="354" on="0"/>
        <pt x="859" y="324" on="1"/>
        <pt x="854" y="286" on="0"/>
        <pt x="808" y="210" on="0"/>
        <pt x="743" y="137" on="0"/>
        <pt x="665" y="64" on="0"/>
      </contour>
      <contour>
        <pt x="226" y="-19" on="1"/>
        <pt x="323" y="171" on="0"/>
        <pt x="513" y="546" on="0"/>
        <pt x="610" y="735" on="1"/>
        <pt x="652" y="735" on="1"/>
        <pt x="555" y="546" on="0"/>
        <pt x="365" y="171" on="0"/>
        <pt x="268" y="-19" on="1"/>
      </contour>
    </TTGlyph>
    <TTGlyph name="onequarter" xMin="110" yMin="-19" xMax="834" yMax="735">
      <contour>
        <pt x="226" y="-19" on="1"/>
        <pt x="323" y="171" on="0"/>
        <pt x="513" y="546" on="0"/>
        <pt x="610" y="735" on="1"/>
        <pt x="652" y="735" on="1"/>
        <pt x="555" y="546" on="0"/>
        <pt x="365" y="171" on="0"/>
        <pt x="268" y="-19" on="1"/>
      </contour>
      <contour>
        <pt x="655" y="30" on="1"/>
        <pt x="712" y="30" on="1"/>
        <pt x="727" y="136" on="1"/>
        <pt x="486" y="136" on="1"/>
        <pt x="808" y="490" on="1"/>
        <pt x="762" y="167" on="1"/>
        <pt x="834" y="167" on="1"/>
        <pt x="830" y="136" on="1"/>
        <pt x="758" y="136" on="1"/>
        <pt x="743" y="30" on="1"/>
        <pt x="805" y="30" on="1"/>
        <pt x="800" y="0" on="1"/>
        <pt x="651" y="0" on="1"/>
      </contour>
      <contour>
        <pt x="763" y="398" on="1"/>
        <pt x="553" y="167" on="1"/>
        <pt x="731" y="167" on="1"/>
      </contour>
      <contour>
        <pt x="113" y="262" on="1"/>
        <pt x="170" y="262" on="1"/>
        <pt x="226" y="666" on="1"/>
        <pt x="159" y="666" on="1"/>
        <pt x="163" y="695" on="1"/>
        <pt x="260" y="695" on="1"/>
        <pt x="200" y="262" on="1"/>
        <pt x="256" y="262" on="1"/>
        <pt x="252" y="234" on="1"/>
        <pt x="110" y="234" on="1"/>
      </contour>
    </TTGlyph>
    <TTGlyph name="onesuperior" xMin="51" yMin="401" xMax="148" yMax="700">
      <contour>
        <pt x="53" y="419" on="1"/>
        <pt x="90" y="419" on="1"/>
        <pt x="126" y="681" on="1"/>
        <pt x="82" y="681" on="1"/>
        <pt x="85" y="700" on="1"/>
        <pt x="148" y="700" on="1"/>
        <pt x="109" y="419" on="1"/>
        <pt x="145" y="419" on="1"/>
        <pt x="143" y="401" on="1"/>
        <pt x="51" y="401" on="1"/>
      </contour>
    </TTGlyph>
    <TTGlyph name="ordfeminine" xMin="98" yMin="301" xMax="425" yMax="582">
      <contour>
        <pt x="103" y="442" on="1"/>
        <pt x="107" y="470" on="0"/>
        <pt x="136" y="522" on="0"/>
        <pt x="180" y="560" on="0"/>
        <pt x="235" y="582" on="0"/>
        <pt x="264" y="582" on="1"/>
        <pt x="285" y="582" on="0"/>
        <pt x="321" y="570" on="0"/>
        <pt x="349" y="551" on="0"/>
        <pt x="367" y="525" on="0"/>
        <pt x="370" y="513" on="1"/>
        <pt x="372" y="529" on="0"/>
        <pt x="378" y="561" on="0"/>
        <pt x="381" y="576" on="1"/>
        <pt x="406" y="576" on="1"/>
        <pt x="372" y="335" on="1"/>
        <pt x="425" y="335" on="1"/>
        <pt x="421" y="306" on="1"/>
        <pt x="341" y="306" on="1"/>
        <pt x="345" y="335" on="1"/>
        <pt x="347" y="344" on="0"/>
        <pt x="348" y="360" on="0"/>
        <pt x="349" y="368" on="1"/>
        <pt x="343" y="356" on="0"/>
        <pt x="319" y="331" on="0"/>
        <pt x="287" y="312" on="0"/>
        <pt x="247" y="301" on="0"/>
        <pt x="225" y="301" on="1"/>
        <pt x="196" y="301" on="0"/>
        <pt x="147" y="323" on="0"/>
        <pt x="114" y="361" on="0"/>
        <pt x="98" y="412" on="0"/>
      </contour>
      <contour>
        <pt x="133" y="442" on="1"/>
        <pt x="129" y="419" on="0"/>
        <pt x="141" y="378" on="0"/>
        <pt x="167" y="348" on="0"/>
        <pt x="205" y="331" on="0"/>
        <pt x="229" y="331" on="1"/>
        <pt x="253" y="331" on="0"/>
        <pt x="296" y="348" on="0"/>
        <pt x="331" y="378" on="0"/>
        <pt x="353" y="419" on="0"/>
        <pt x="357" y="442" on="1"/>
        <pt x="360" y="465" on="0"/>
        <pt x="348" y="506" on="0"/>
        <pt x="322" y="536" on="0"/>
        <pt x="284" y="553" on="0"/>
        <pt x="260" y="553" on="1"/>
        <pt x="236" y="553" on="0"/>
        <pt x="194" y="536" on="0"/>
        <pt x="159" y="506" on="0"/>
        <pt x="136" y="465" on="0"/>
      </contour>
    </TTGlyph>
    <TTGlyph name="ordmasculine" xMin="106" yMin="301" xMax="399" yMax="583">
      <contour>
        <pt x="110" y="442" on="1"/>
        <pt x="115" y="470" on="0"/>
        <pt x="144" y="522" on="0"/>
        <pt x="187" y="561" on="0"/>
        <pt x="242" y="583" on="0"/>
        <pt x="271" y="583" on="1"/>
        <pt x="301" y="583" on="0"/>
        <pt x="350" y="561" on="0"/>
        <pt x="384" y="522" on="0"/>
        <pt x="399" y="470" on="0"/>
        <pt x="395" y="442" on="1"/>
        <pt x="390" y="412" on="0"/>
        <pt x="361" y="361" on="0"/>
        <pt x="317" y="323" on="0"/>
        <pt x="262" y="301" on="0"/>
        <pt x="232" y="301" on="1"/>
        <pt x="203" y="301" on="0"/>
        <pt x="154" y="323" on="0"/>
        <pt x="121" y="361" on="0"/>
        <pt x="106" y="412" on="0"/>
      </contour>
      <contour>
        <pt x="140" y="442" on="1"/>
        <pt x="136" y="419" on="0"/>
        <pt x="149" y="378" on="0"/>
        <pt x="175" y="348" on="0"/>
        <pt x="212" y="331" on="0"/>
        <pt x="235" y="331" on="1"/>
        <pt x="258" y="331" on="0"/>
        <pt x="302" y="348" on="0"/>
        <pt x="336" y="378" on="0"/>
        <pt x="359" y="419" on="0"/>
        <pt x="363" y="442" on="1"/>
        <pt x="366" y="465" on="0"/>
        <pt x="354" y="505" on="0"/>
        <pt x="328" y="535" on="0"/>
        <pt x="290" y="553" on="0"/>
        <pt x="267" y="553" on="1"/>
        <pt x="244" y="553" on="0"/>
        <pt x="201" y="535" on="0"/>
        <pt x="166" y="505" on="0"/>
        <pt x="143" y="465" on="0"/>
      </contour>
    </TTGlyph>
    <TTGlyph name="oslash" xMin="51" yMin="-15" xMax="463" yMax="390">
      <contour>
        <pt x="105" y="188" on="1"/>
        <pt x="100" y="158" on="0"/>
        <pt x="114" y="105" on="0"/>
        <pt x="130" y="85" on="1"/>
        <pt x="187" y="144" on="0"/>
        <pt x="302" y="260" on="0"/>
        <pt x="360" y="319" on="1"/>
        <pt x="325" y="343" on="0"/>
        <pt x="281" y="343" on="1"/>
        <pt x="248" y="343" on="0"/>
        <pt x="188" y="319" on="0"/>
        <pt x="141" y="277" on="0"/>
        <pt x="109" y="220" on="0"/>
      </contour>
      <contour>
        <pt x="238" y="34" on="1"/>
        <pt x="271" y="34" on="0"/>
        <pt x="331" y="58" on="0"/>
        <pt x="379" y="100" on="0"/>
        <pt x="410" y="156" on="0"/>
        <pt x="415" y="188" on="1"/>
        <pt x="420" y="221" on="0"/>
        <pt x="402" y="279" on="0"/>
        <pt x="382" y="300" on="1"/>
        <pt x="324" y="240" on="0"/>
        <pt x="208" y="123" on="0"/>
        <pt x="150" y="64" on="1"/>
        <pt x="185" y="34" on="0"/>
      </contour>
      <contour>
        <pt x="63" y="188" on="1"/>
        <pt x="69" y="228" on="0"/>
        <pt x="109" y="300" on="0"/>
        <pt x="170" y="352" on="0"/>
        <pt x="246" y="383" on="0"/>
        <pt x="287" y="383" on="1"/>
        <pt x="317" y="383" on="0"/>
        <pt x="370" y="366" on="0"/>
        <pt x="391" y="351" on="1"/>
        <pt x="401" y="361" on="0"/>
        <pt x="421" y="380" on="0"/>
        <pt x="430" y="390" on="1"/>
        <pt x="451" y="369" on="1"/>
        <pt x="442" y="360" on="0"/>
        <pt x="422" y="341" on="0"/>
        <pt x="413" y="331" on="1"/>
        <pt x="439" y="305" on="0"/>
        <pt x="463" y="230" on="0"/>
        <pt x="457" y="188" on="1"/>
        <pt x="451" y="147" on="0"/>
        <pt x="411" y="76" on="0"/>
        <pt x="350" y="24" on="0"/>
        <pt x="273" y="-7" on="0"/>
        <pt x="232" y="-7" on="1"/>
        <pt x="198" y="-7" on="0"/>
        <pt x="141" y="14" on="0"/>
        <pt x="118" y="33" on="1"/>
        <pt x="107" y="21" on="0"/>
        <pt x="83" y="-3" on="0"/>
        <pt x="72" y="-15" on="1"/>
        <pt x="67" y="-10" on="0"/>
        <pt x="56" y="0" on="0"/>
        <pt x="51" y="5" on="1"/>
        <pt x="62" y="17" on="0"/>
        <pt x="86" y="41" on="0"/>
        <pt x="98" y="53" on="1"/>
        <pt x="76" y="79" on="0"/>
        <pt x="58" y="148" on="0"/>
      </contour>
    </TTGlyph>
    <TTGlyph name="otilde" xMin="57" yMin="-7" xMax="463" yMax="545">
      <component glyphName="o" x="0" y="0" flags="0x204"/>
      <component glyphName="asciitilde" x="18" y="0" flags="0x4"/>
    </TTGlyph>
    <TTGlyph name="p" xMin="-2" yMin="-250" xMax="524" yMax="382">
      <contour>
        <pt x="3" y="-210" on="1"/>
        <pt x="68" y="-210" on="1"/>
        <pt x="145" y="335" on="1"/>
        <pt x="71" y="335" on="1"/>
        <pt x="77" y="375" on="1"/>
        <pt x="184" y="375" on="1"/>
        <pt x="182" y="353" on="0"/>
        <pt x="177" y="307" on="0"/>
        <pt x="175" y="285" on="1"/>
        <pt x="184" y="303" on="0"/>
        <pt x="219" y="338" on="0"/>
        <pt x="265" y="365" on="0"/>
        <pt x="320" y="382" on="0"/>
        <pt x="349" y="382" on="1"/>
        <pt x="390" y="382" on="0"/>
        <pt x="458" y="351" on="0"/>
        <pt x="503" y="299" on="0"/>
        <pt x="524" y="227" on="0"/>
        <pt x="519" y="187" on="1"/>
        <pt x="513" y="147" on="0"/>
        <pt x="472" y="76" on="0"/>
        <pt x="411" y="23" on="0"/>
        <pt x="335" y="-8" on="0"/>
        <pt x="294" y="-8" on="1"/>
        <pt x="264" y="-8" on="0"/>
        <pt x="214" y="8" on="0"/>
        <pt x="177" y="33" on="0"/>
        <pt x="152" y="66" on="0"/>
        <pt x="147" y="84" on="1"/>
        <pt x="147" y="44" on="1"/>
        <pt x="111" y="-210" on="1"/>
        <pt x="195" y="-210" on="1"/>
        <pt x="191" y="-250" on="1"/>
        <pt x="-2" y="-250" on="1"/>
      </contour>
      <contour>
        <pt x="477" y="187" on="1"/>
        <pt x="481" y="220" on="0"/>
        <pt x="465" y="276" on="0"/>
        <pt x="429" y="317" on="0"/>
        <pt x="376" y="341" on="0"/>
        <pt x="343" y="341" on="1"/>
        <pt x="310" y="341" on="0"/>
        <pt x="250" y="317" on="0"/>
        <pt x="202" y="276" on="0"/>
        <pt x="170" y="220" on="0"/>
        <pt x="166" y="187" on="1"/>
        <pt x="161" y="155" on="0"/>
        <pt x="177" y="98" on="0"/>
        <pt x="213" y="56" on="0"/>
        <pt x="266" y="32" on="0"/>
        <pt x="299" y="32" on="1"/>
        <pt x="332" y="32" on="0"/>
        <pt x="392" y="56" on="0"/>
        <pt x="440" y="98" on="0"/>
        <pt x="472" y="155" on="0"/>
      </contour>
    </TTGlyph>
    <TTGlyph name="paragraph" xMin="115" yMin="0" xMax="603" yMax="750">
      <contour>
        <pt x="243" y="0" on="1"/>
        <pt x="201" y="0" on="1"/>
        <pt x="260" y="423" on="1"/>
        <pt x="226" y="423" on="0"/>
        <pt x="170" y="448" on="0"/>
        <pt x="132" y="492" on="0"/>
        <pt x="115" y="552" on="0"/>
        <pt x="120" y="586" on="1"/>
        <pt x="125" y="620" on="0"/>
        <pt x="159" y="680" on="0"/>
        <pt x="209" y="724" on="0"/>
        <pt x="272" y="750" on="0"/>
        <pt x="306" y="750" on="1"/>
        <pt x="603" y="750" on="1"/>
        <pt x="598" y="714" on="1"/>
        <pt x="505" y="714" on="1"/>
        <pt x="410" y="36" on="1"/>
        <pt x="502" y="36" on="1"/>
        <pt x="498" y="0" on="1"/>
        <pt x="364" y="0" on="1"/>
        <pt x="464" y="714" on="1"/>
        <pt x="342" y="714" on="1"/>
      </contour>
    </TTGlyph>
    <TTGlyph name="parenleft" xMin="123" yMin="-163" xMax="390" yMax="747">
      <contour>
        <pt x="134" y="292" on="1"/>
        <pt x="144" y="367" on="0"/>
        <pt x="191" y="503" on="0"/>
        <pt x="254" y="619" on="0"/>
        <pt x="326" y="714" on="0"/>
        <pt x="362" y="747" on="1"/>
        <pt x="369" y="741" on="0"/>
        <pt x="383" y="730" on="0"/>
        <pt x="390" y="724" on="1"/>
        <pt x="357" y="691" on="0"/>
        <pt x="289" y="601" on="0"/>
        <pt x="230" y="491" on="0"/>
        <pt x="186" y="363" on="0"/>
        <pt x="176" y="292" on="1"/>
        <pt x="166" y="221" on="0"/>
        <pt x="174" y="93" on="0"/>
        <pt x="202" y="-17" on="0"/>
        <pt x="245" y="-107" on="0"/>
        <pt x="269" y="-140" on="1"/>
        <pt x="261" y="-146" on="0"/>
        <pt x="243" y="-157" on="0"/>
        <pt x="235" y="-163" on="1"/>
        <pt x="208" y="-130" on="0"/>
        <pt x="162" y="-35" on="0"/>
        <pt x="132" y="81" on="0"/>
        <pt x="123" y="217" on="0"/>
      </contour>
    </TTGlyph>
    <TTGlyph name="parenright" xMin="35" yMin="-165" xMax="302" yMax="745">
      <contour>
        <pt x="292" y="290" on="1"/>
        <pt x="281" y="215" on="0"/>
        <pt x="234" y="79" on="0"/>
        <pt x="171" y="-37" on="0"/>
        <pt x="99" y="-132" on="0"/>
        <pt x="63" y="-165" on="1"/>
        <pt x="56" y="-159" on="0"/>
        <pt x="42" y="-148" on="0"/>
        <pt x="35" y="-142" on="1"/>
        <pt x="68" y="-109" on="0"/>
        <pt x="136" y="-19" on="0"/>
        <pt x="195" y="91" on="0"/>
        <pt x="240" y="219" on="0"/>
        <pt x="250" y="290" on="1"/>
        <pt x="260" y="361" on="0"/>
        <pt x="251" y="489" on="0"/>
        <pt x="223" y="599" on="0"/>
        <pt x="180" y="689" on="0"/>
        <pt x="156" y="722" on="1"/>
        <pt x="164" y="728" on="0"/>
        <pt x="182" y="739" on="0"/>
        <pt x="190" y="745" on="1"/>
        <pt x="217" y="712" on="0"/>
        <pt x="263" y="617" on="0"/>
        <pt x="293" y="501" on="0"/>
        <pt x="302" y="365" on="0"/>
      </contour>
    </TTGlyph>
    <TTGlyph name="percent" xMin="116" yMin="-4" xMax="623" yMax="504">
      <contour>
        <pt x="427" y="112" on="1"/>
        <pt x="422" y="80" on="0"/>
        <pt x="460" y="37" on="0"/>
        <pt x="492" y="37" on="1"/>
        <pt x="524" y="37" on="0"/>
        <pt x="572" y="80" on="0"/>
        <pt x="577" y="112" on="1"/>
        <pt x="582" y="143" on="0"/>
        <pt x="544" y="187" on="0"/>
        <pt x="512" y="187" on="1"/>
        <pt x="480" y="187" on="0"/>
        <pt x="432" y="143" on="0"/>
      </contour>
      <contour>
        <pt x="486" y="-4" on="1"/>
        <pt x="462" y="-4" on="0"/>
        <pt x="422" y="14" on="0"/>
        <pt x="394" y="45" on="0"/>
        <pt x="382" y="88" on="0"/>
        <pt x="385" y="112" on="1"/>
        <pt x="388" y="136" on="0"/>
        <pt x="413" y="178" on="0"/>
        <pt x="449" y="209" on="0"/>
        <pt x="494" y="227" on="0"/>
        <pt x="518" y="227" on="1"/>
        <pt x="542" y="227" on="0"/>
        <pt x="582" y="209" on="0"/>
        <pt x="610" y="178" on="0"/>
        <pt x="623" y="136" on="0"/>
        <pt x="619" y="112" on="1"/>
        <pt x="616" y="88" on="0"/>
        <pt x="591" y="45" on="0"/>
        <pt x="555" y="14" on="0"/>
        <pt x="510" y="-4" on="0"/>
      </contour>
      <contour>
        <pt x="162" y="388" on="1"/>
        <pt x="157" y="357" on="0"/>
        <pt x="195" y="314" on="0"/>
        <pt x="227" y="314" on="1"/>
        <pt x="259" y="314" on="0"/>
        <pt x="307" y="357" on="0"/>
        <pt x="312" y="388" on="1"/>
        <pt x="317" y="420" on="0"/>
        <pt x="279" y="463" on="0"/>
        <pt x="247" y="463" on="1"/>
        <pt x="215" y="463" on="0"/>
        <pt x="167" y="420" on="0"/>
      </contour>
      <contour>
        <pt x="221" y="273" on="1"/>
        <pt x="197" y="273" on="0"/>
        <pt x="157" y="291" on="0"/>
        <pt x="129" y="322" on="0"/>
        <pt x="116" y="365" on="0"/>
        <pt x="120" y="389" on="1"/>
        <pt x="123" y="413" on="0"/>
        <pt x="148" y="455" on="0"/>
        <pt x="184" y="486" on="0"/>
        <pt x="229" y="504" on="0"/>
        <pt x="253" y="504" on="1"/>
        <pt x="277" y="504" on="0"/>
        <pt x="317" y="486" on="0"/>
        <pt x="344" y="455" on="0"/>
        <pt x="357" y="413" on="0"/>
        <pt x="354" y="389" on="1"/>
        <pt x="351" y="365" on="0"/>
        <pt x="326" y="322" on="0"/>
        <pt x="290" y="291" on="0"/>
        <pt x="245" y="273" on="0"/>
      </contour>
      <contour>
        <pt x="158" y="0" on="1"/>
        <pt x="251" y="126" on="0"/>
        <pt x="434" y="374" on="0"/>
        <pt x="527" y="500" on="1"/>
        <pt x="573" y="500" on="1"/>
        <pt x="480" y="374" on="0"/>
        <pt x="297" y="126" on="0"/>
        <pt x="204" y="0" on="1"/>
      </contour>
    </TTGlyph>
    <TTGlyph name="period" xMin="50" yMin="0" xMax="120" yMax="66">
      <contour>
        <pt x="52" y="33" on="1"/>
        <pt x="54" y="47" on="0"/>
        <pt x="77" y="66" on="0"/>
        <pt x="90" y="66" on="1"/>
        <pt x="102" y="66" on="0"/>
        <pt x="120" y="47" on="0"/>
        <pt x="118" y="33" on="1"/>
        <pt x="116" y="19" on="0"/>
        <pt x="93" y="0" on="0"/>
        <pt x="81" y="0" on="1"/>
        <pt x="68" y="0" on="0"/>
        <pt x="50" y="19" on="0"/>
      </contour>
    </TTGlyph>
    <TTGlyph name="periodcentered" xMin="50" yMin="248" xMax="120" yMax="314">
      <contour>
        <pt x="52" y="281" on="1"/>
        <pt x="54" y="295" on="0"/>
        <pt x="77" y="314" on="0"/>
        <pt x="90" y="314" on="1"/>
        <pt x="102" y="314" on="0"/>
        <pt x="120" y="295" on="0"/>
        <pt x="118" y="281" on="1"/>
        <pt x="116" y="267" on="0"/>
        <pt x="93" y="248" on="0"/>
        <pt x="81" y="248" on="1"/>
        <pt x="68" y="248" on="0"/>
        <pt x="50" y="267" on="0"/>
      </contour>
    </TTGlyph>
    <TTGlyph name="plus" xMin="83" yMin="51" xMax="449" yMax="411">
      <contour>
        <pt x="219" y="51" on="1"/>
        <pt x="242" y="211" on="1"/>
        <pt x="83" y="211" on="1"/>
        <pt x="89" y="252" on="1"/>
        <pt x="248" y="252" on="1"/>
        <pt x="270" y="411" on="1"/>
        <pt x="312" y="411" on="1"/>
        <pt x="290" y="252" on="1"/>
        <pt x="449" y="252" on="1"/>
        <pt x="443" y="211" on="1"/>
        <pt x="284" y="211" on="1"/>
        <pt x="261" y="51" on="1"/>
      </contour>
    </TTGlyph>
    <TTGlyph name="plusminus" xMin="86" yMin="122" xMax="486" yMax="571">
      <contour>
        <pt x="257" y="211" on="1"/>
        <pt x="279" y="371" on="1"/>
        <pt x="120" y="371" on="1"/>
        <pt x="126" y="412" on="1"/>
        <pt x="285" y="412" on="1"/>
        <pt x="308" y="571" on="1"/>
        <pt x="350" y="571" on="1"/>
        <pt x="327" y="412" on="1"/>
        <pt x="486" y="412" on="1"/>
        <pt x="480" y="371" on="1"/>
        <pt x="321" y="371" on="1"/>
        <pt x="299" y="211" on="1"/>
      </contour>
      <contour>
        <pt x="446" y="122" on="1"/>
        <pt x="86" y="122" on="1"/>
        <pt x="91" y="162" on="1"/>
        <pt x="451" y="162" on="1"/>
      </contour>
    </TTGlyph>
    <TTGlyph name="q" xMin="90" yMin="-250" xMax="592" yMax="382">
      <contour>
        <pt x="308" y="-210" on="1"/>
        <pt x="392" y="-210" on="1"/>
        <pt x="427" y="44" on="1"/>
        <pt x="429" y="54" on="0"/>
        <pt x="435" y="74" on="0"/>
        <pt x="437" y="84" on="1"/>
        <pt x="427" y="66" on="0"/>
        <pt x="393" y="33" on="0"/>
        <pt x="348" y="8" on="0"/>
        <pt x="295" y="-8" on="0"/>
        <pt x="265" y="-8" on="1"/>
        <pt x="224" y="-8" on="0"/>
        <pt x="156" y="23" on="0"/>
        <pt x="111" y="76" on="0"/>
        <pt x="90" y="147" on="0"/>
        <pt x="96" y="187" on="1"/>
        <pt x="102" y="227" on="0"/>
        <pt x="142" y="299" on="0"/>
        <pt x="203" y="351" on="0"/>
        <pt x="279" y="382" on="0"/>
        <pt x="320" y="382" on="1"/>
        <pt x="349" y="382" on="0"/>
        <pt x="399" y="365" on="0"/>
        <pt x="437" y="338" on="0"/>
        <pt x="462" y="303" on="0"/>
        <pt x="467" y="285" on="1"/>
        <pt x="470" y="307" on="0"/>
        <pt x="479" y="352" on="0"/>
        <pt x="482" y="375" on="1"/>
        <pt x="592" y="375" on="1"/>
        <pt x="586" y="335" on="1"/>
        <pt x="510" y="335" on="1"/>
        <pt x="434" y="-210" on="1"/>
        <pt x="502" y="-210" on="1"/>
        <pt x="497" y="-250" on="1"/>
        <pt x="303" y="-250" on="1"/>
      </contour>
      <contour>
        <pt x="138" y="187" on="1"/>
        <pt x="133" y="155" on="0"/>
        <pt x="149" y="98" on="0"/>
        <pt x="185" y="56" on="0"/>
        <pt x="238" y="32" on="0"/>
        <pt x="271" y="32" on="1"/>
        <pt x="304" y="32" on="0"/>
        <pt x="364" y="56" on="0"/>
        <pt x="412" y="98" on="0"/>
        <pt x="443" y="155" on="0"/>
        <pt x="448" y="187" on="1"/>
        <pt x="452" y="220" on="0"/>
        <pt x="436" y="276" on="0"/>
        <pt x="400" y="317" on="0"/>
        <pt x="347" y="341" on="0"/>
        <pt x="314" y="341" on="1"/>
        <pt x="281" y="341" on="0"/>
        <pt x="222" y="317" on="0"/>
        <pt x="174" y="276" on="0"/>
        <pt x="142" y="220" on="0"/>
      </contour>
    </TTGlyph>
    <TTGlyph name="question" xMin="65" yMin="15" xMax="451" yMax="732">
      <contour>
        <pt x="100" y="578" on="1"/>
        <pt x="92" y="582" on="0"/>
        <pt x="73" y="588" on="0"/>
        <pt x="65" y="591" on="1"/>
        <pt x="77" y="617" on="0"/>
        <pt x="117" y="667" on="0"/>
        <pt x="170" y="707" on="0"/>
        <pt x="236" y="732" on="0"/>
        <pt x="276" y="732" on="1"/>
        <pt x="317" y="732" on="0"/>
        <pt x="385" y="701" on="0"/>
        <pt x="430" y="648" on="0"/>
        <pt x="451" y="577" on="0"/>
        <pt x="445" y="537" on="1"/>
        <pt x="437" y="483" on="0"/>
        <pt x="373" y="400" on="0"/>
        <pt x="322" y="368" on="1"/>
        <pt x="303" y="355" on="0"/>
        <pt x="268" y="335" on="0"/>
        <pt x="239" y="310" on="0"/>
        <pt x="217" y="272" on="0"/>
        <pt x="213" y="242" on="1"/>
        <pt x="202" y="164" on="1"/>
        <pt x="160" y="164" on="1"/>
        <pt x="174" y="261" on="1"/>
        <pt x="178" y="292" on="0"/>
        <pt x="206" y="331" on="0"/>
        <pt x="245" y="361" on="0"/>
        <pt x="294" y="388" on="0"/>
        <pt x="321" y="408" on="1"/>
        <pt x="358" y="435" on="0"/>
        <pt x="397" y="500" on="0"/>
        <pt x="402" y="537" on="1"/>
        <pt x="406" y="570" on="0"/>
        <pt x="391" y="626" on="0"/>
        <pt x="356" y="668" on="0"/>
        <pt x="303" y="691" on="0"/>
        <pt x="270" y="691" on="1"/>
        <pt x="212" y="691" on="0"/>
        <pt x="124" y="631" on="0"/>
      </contour>
      <contour>
        <pt x="160" y="15" on="1"/>
        <pt x="148" y="15" on="0"/>
        <pt x="130" y="34" on="0"/>
        <pt x="132" y="48" on="1"/>
        <pt x="134" y="62" on="0"/>
        <pt x="157" y="81" on="0"/>
        <pt x="169" y="81" on="1"/>
        <pt x="181" y="81" on="0"/>
        <pt x="199" y="62" on="0"/>
        <pt x="197" y="48" on="1"/>
        <pt x="195" y="34" on="0"/>
        <pt x="172" y="15" on="0"/>
      </contour>
    </TTGlyph>
    <TTGlyph name="questiondown" xMin="6" yMin="-193" xMax="392" yMax="524">
      <component glyphName="question" x="457" y="539" scale="-0.999877929688" flags="0x4"/>
    </TTGlyph>
    <TTGlyph name="quotedbl" xMin="45" yMin="472" xMax="257" yMax="720">
      <contour>
        <pt x="178" y="472" on="1"/>
        <pt x="213" y="720" on="1"/>
        <pt x="257" y="720" on="1"/>
        <pt x="247" y="657" on="0"/>
        <pt x="228" y="535" on="0"/>
        <pt x="218" y="472" on="1"/>
      </contour>
      <contour>
        <pt x="45" y="472" on="1"/>
        <pt x="80" y="720" on="1"/>
        <pt x="124" y="720" on="1"/>
        <pt x="114" y="657" on="0"/>
        <pt x="95" y="535" on="0"/>
        <pt x="85" y="472" on="1"/>
      </contour>
    </TTGlyph>
    <TTGlyph name="quotedblbase" xMin="22" yMin="-49" xMax="211" yMax="92">
      <contour>
        <pt x="40" y="-49" on="1"/>
        <pt x="35" y="-44" on="0"/>
        <pt x="27" y="-34" on="0"/>
        <pt x="22" y="-29" on="1"/>
        <pt x="46" y="-9" on="0"/>
        <pt x="73" y="50" on="0"/>
        <pt x="71" y="85" on="1"/>
        <pt x="79" y="87" on="0"/>
        <pt x="96" y="90" on="0"/>
        <pt x="104" y="92" on="1"/>
        <pt x="107" y="51" on="0"/>
        <pt x="72" y="-23" on="0"/>
      </contour>
      <contour>
        <pt x="144" y="-49" on="1"/>
        <pt x="139" y="-44" on="0"/>
        <pt x="131" y="-34" on="0"/>
        <pt x="126" y="-29" on="1"/>
        <pt x="150" y="-9" on="0"/>
        <pt x="177" y="50" on="0"/>
        <pt x="175" y="85" on="1"/>
        <pt x="183" y="87" on="0"/>
        <pt x="200" y="90" on="0"/>
        <pt x="208" y="92" on="1"/>
        <pt x="211" y="51" on="0"/>
        <pt x="176" y="-23" on="0"/>
      </contour>
    </TTGlyph>
    <TTGlyph name="quotedblleft" xMin="36" yMin="570" xMax="203" yMax="711">
      <contour>
        <pt x="203" y="590" on="1"/>
        <pt x="197" y="585" on="0"/>
        <pt x="185" y="575" on="0"/>
        <pt x="180" y="570" on="1"/>
        <pt x="154" y="596" on="0"/>
        <pt x="140" y="670" on="0"/>
        <pt x="154" y="711" on="1"/>
        <pt x="162" y="709" on="0"/>
        <pt x="178" y="706" on="0"/>
        <pt x="186" y="704" on="1"/>
        <pt x="174" y="669" on="0"/>
        <pt x="185" y="610" on="0"/>
      </contour>
      <contour>
        <pt x="99" y="590" on="1"/>
        <pt x="93" y="585" on="0"/>
        <pt x="81" y="575" on="0"/>
        <pt x="76" y="570" on="1"/>
        <pt x="50" y="596" on="0"/>
        <pt x="36" y="670" on="0"/>
        <pt x="50" y="711" on="1"/>
        <pt x="58" y="709" on="0"/>
        <pt x="74" y="706" on="0"/>
        <pt x="82" y="704" on="1"/>
        <pt x="70" y="669" on="0"/>
        <pt x="81" y="610" on="0"/>
      </contour>
    </TTGlyph>
    <TTGlyph name="quotedblright" xMin="33" yMin="570" xMax="222" yMax="711">
      <contour>
        <pt x="51" y="570" on="1"/>
        <pt x="46" y="575" on="0"/>
        <pt x="38" y="585" on="0"/>
        <pt x="33" y="590" on="1"/>
        <pt x="57" y="610" on="0"/>
        <pt x="84" y="669" on="0"/>
        <pt x="82" y="704" on="1"/>
        <pt x="90" y="706" on="0"/>
        <pt x="107" y="709" on="0"/>
        <pt x="115" y="711" on="1"/>
        <pt x="118" y="670" on="0"/>
        <pt x="83" y="596" on="0"/>
      </contour>
      <contour>
        <pt x="155" y="570" on="1"/>
        <pt x="150" y="575" on="0"/>
        <pt x="142" y="585" on="0"/>
        <pt x="137" y="590" on="1"/>
        <pt x="161" y="610" on="0"/>
        <pt x="188" y="669" on="0"/>
        <pt x="186" y="704" on="1"/>
        <pt x="194" y="706" on="0"/>
        <pt x="211" y="709" on="0"/>
        <pt x="219" y="711" on="1"/>
        <pt x="222" y="670" on="0"/>
        <pt x="187" y="596" on="0"/>
      </contour>
    </TTGlyph>
    <TTGlyph name="quoteleft" xMin="42" yMin="570" xMax="104" yMax="711">
      <contour>
        <pt x="104" y="590" on="1"/>
        <pt x="98" y="585" on="0"/>
        <pt x="87" y="575" on="0"/>
        <pt x="82" y="570" on="1"/>
        <pt x="56" y="596" on="0"/>
        <pt x="42" y="670" on="0"/>
        <pt x="56" y="711" on="1"/>
        <pt x="64" y="709" on="0"/>
        <pt x="79" y="706" on="0"/>
        <pt x="87" y="704" on="1"/>
        <pt x="76" y="669" on="0"/>
        <pt x="86" y="610" on="0"/>
      </contour>
    </TTGlyph>
    <TTGlyph name="quoteright" xMin="52" yMin="570" xMax="137" yMax="711">
      <contour>
        <pt x="69" y="570" on="1"/>
        <pt x="64" y="575" on="0"/>
        <pt x="57" y="585" on="0"/>
        <pt x="52" y="590" on="1"/>
        <pt x="76" y="610" on="0"/>
        <pt x="103" y="669" on="0"/>
        <pt x="101" y="704" on="1"/>
        <pt x="109" y="706" on="0"/>
        <pt x="126" y="709" on="0"/>
        <pt x="134" y="711" on="1"/>
        <pt x="137" y="670" on="0"/>
        <pt x="101" y="596" on="0"/>
      </contour>
    </TTGlyph>
    <TTGlyph name="quotesinglbase" xMin="22" yMin="-49" xMax="107" yMax="92">
      <contour>
        <pt x="40" y="-49" on="1"/>
        <pt x="35" y="-44" on="0"/>
        <pt x="27" y="-34" on="0"/>
        <pt x="22" y="-29" on="1"/>
        <pt x="46" y="-9" on="0"/>
        <pt x="73" y="50" on="0"/>
        <pt x="71" y="85" on="1"/>
        <pt x="79" y="87" on="0"/>
        <pt x="96" y="90" on="0"/>
        <pt x="104" y="92" on="1"/>
        <pt x="107" y="51" on="0"/>
        <pt x="72" y="-23" on="0"/>
      </contour>
    </TTGlyph>
    <TTGlyph name="quotesingle" xMin="39" yMin="472" xMax="118" yMax="720">
      <contour>
        <pt x="39" y="472" on="1"/>
        <pt x="74" y="720" on="1"/>
        <pt x="118" y="720" on="1"/>
        <pt x="108" y="657" on="0"/>
        <pt x="89" y="535" on="0"/>
        <pt x="79" y="472" on="1"/>
      </contour>
    </TTGlyph>
    <TTGlyph name="r" xMin="35" yMin="0" xMax="362" yMax="383">
      <contour>
        <pt x="40" y="40" on="1"/>
        <pt x="118" y="40" on="1"/>
        <pt x="159" y="335" on="1"/>
        <pt x="88" y="335" on="1"/>
        <pt x="93" y="375" on="1"/>
        <pt x="199" y="375" on="1"/>
        <pt x="195" y="340" on="1"/>
        <pt x="193" y="323" on="0"/>
        <pt x="192" y="295" on="0"/>
        <pt x="190" y="278" on="1"/>
        <pt x="204" y="302" on="0"/>
        <pt x="244" y="341" on="0"/>
        <pt x="290" y="368" on="0"/>
        <pt x="339" y="383" on="0"/>
        <pt x="362" y="383" on="1"/>
        <pt x="354" y="342" on="1"/>
        <pt x="322" y="341" on="0"/>
        <pt x="264" y="320" on="0"/>
        <pt x="217" y="284" on="0"/>
        <pt x="186" y="234" on="0"/>
        <pt x="182" y="205" on="1"/>
        <pt x="159" y="40" on="1"/>
        <pt x="233" y="40" on="1"/>
        <pt x="228" y="0" on="1"/>
        <pt x="35" y="0" on="1"/>
      </contour>
    </TTGlyph>
    <TTGlyph name="registered" xMin="169" yMin="115" xMax="702" yMax="630">
      <contour>
        <pt x="402" y="138" on="1"/>
        <pt x="451" y="138" on="0"/>
        <pt x="541" y="173" on="0"/>
        <pt x="614" y="236" on="0"/>
        <pt x="662" y="321" on="0"/>
        <pt x="669" y="371" on="1"/>
        <pt x="676" y="422" on="0"/>
        <pt x="652" y="508" on="0"/>
        <pt x="597" y="571" on="0"/>
        <pt x="517" y="607" on="0"/>
        <pt x="468" y="607" on="1"/>
        <pt x="420" y="607" on="0"/>
        <pt x="330" y="571" on="0"/>
        <pt x="258" y="508" on="0"/>
        <pt x="209" y="422" on="0"/>
        <pt x="202" y="371" on="1"/>
        <pt x="195" y="321" on="0"/>
        <pt x="219" y="236" on="0"/>
        <pt x="274" y="173" on="0"/>
        <pt x="354" y="138" on="0"/>
      </contour>
      <contour>
        <pt x="400" y="115" on="1"/>
        <pt x="346" y="115" on="0"/>
        <pt x="257" y="154" on="0"/>
        <pt x="197" y="223" on="0"/>
        <pt x="169" y="317" on="0"/>
        <pt x="177" y="372" on="1"/>
        <pt x="185" y="428" on="0"/>
        <pt x="239" y="522" on="0"/>
        <pt x="318" y="591" on="0"/>
        <pt x="418" y="630" on="0"/>
        <pt x="472" y="630" on="1"/>
        <pt x="526" y="630" on="0"/>
        <pt x="615" y="591" on="0"/>
        <pt x="675" y="522" on="0"/>
        <pt x="702" y="428" on="0"/>
        <pt x="694" y="372" on="1"/>
        <pt x="686" y="317" on="0"/>
        <pt x="633" y="223" on="0"/>
        <pt x="553" y="154" on="0"/>
        <pt x="454" y="115" on="0"/>
      </contour>
      <contour>
        <pt x="313" y="229" on="1"/>
        <pt x="342" y="229" on="1"/>
        <pt x="383" y="522" on="1"/>
        <pt x="354" y="522" on="1"/>
        <pt x="357" y="541" on="1"/>
        <pt x="457" y="541" on="1"/>
        <pt x="471" y="541" on="0"/>
        <pt x="505" y="531" on="0"/>
        <pt x="533" y="510" on="0"/>
        <pt x="549" y="477" on="0"/>
        <pt x="546" y="454" on="1"/>
        <pt x="541" y="421" on="0"/>
        <pt x="498" y="376" on="0"/>
        <pt x="463" y="368" on="1"/>
        <pt x="509" y="229" on="1"/>
        <pt x="550" y="229" on="1"/>
        <pt x="548" y="210" on="1"/>
        <pt x="494" y="210" on="1"/>
        <pt x="442" y="367" on="1"/>
        <pt x="437" y="366" on="0"/>
        <pt x="425" y="366" on="0"/>
        <pt x="420" y="366" on="1"/>
        <pt x="381" y="366" on="1"/>
        <pt x="361" y="229" on="1"/>
        <pt x="408" y="229" on="1"/>
        <pt x="406" y="210" on="1"/>
        <pt x="311" y="210" on="1"/>
      </contour>
      <contour>
        <pt x="383" y="385" on="1"/>
        <pt x="432" y="385" on="1"/>
        <pt x="457" y="385" on="0"/>
        <pt x="491" y="398" on="0"/>
        <pt x="513" y="419" on="0"/>
        <pt x="524" y="443" on="0"/>
        <pt x="526" y="454" on="1"/>
        <pt x="530" y="481" on="0"/>
        <pt x="488" y="522" on="0"/>
        <pt x="452" y="522" on="1"/>
        <pt x="403" y="522" on="1"/>
      </contour>
    </TTGlyph>
    <TTGlyph name="ring" xMin="102" yMin="467" xMax="257" yMax="613">
      <contour>
        <pt x="137" y="540" on="1"/>
        <pt x="135" y="523" on="0"/>
        <pt x="156" y="497" on="0"/>
        <pt x="173" y="497" on="1"/>
        <pt x="191" y="497" on="0"/>
        <pt x="220" y="523" on="0"/>
        <pt x="222" y="540" on="1"/>
        <pt x="224" y="557" on="0"/>
        <pt x="202" y="582" on="0"/>
        <pt x="185" y="582" on="1"/>
        <pt x="168" y="582" on="0"/>
        <pt x="139" y="557" on="0"/>
      </contour>
      <contour>
        <pt x="107" y="540" on="1"/>
        <pt x="111" y="570" on="0"/>
        <pt x="159" y="613" on="0"/>
        <pt x="189" y="613" on="1"/>
        <pt x="220" y="613" on="0"/>
        <pt x="257" y="570" on="0"/>
        <pt x="252" y="540" on="1"/>
        <pt x="247" y="510" on="0"/>
        <pt x="199" y="467" on="0"/>
        <pt x="169" y="467" on="1"/>
        <pt x="139" y="467" on="0"/>
        <pt x="102" y="510" on="0"/>
      </contour>
    </TTGlyph>
    <TTGlyph name="s" xMin="56" yMin="-8" xMax="325" yMax="381">
      <contour>
        <pt x="104" y="103" on="1"/>
        <pt x="98" y="52" on="1"/>
        <pt x="115" y="39" on="0"/>
        <pt x="156" y="33" on="0"/>
        <pt x="177" y="33" on="1"/>
        <pt x="186" y="33" on="0"/>
        <pt x="214" y="40" on="0"/>
        <pt x="240" y="57" on="0"/>
        <pt x="261" y="83" on="0"/>
        <pt x="264" y="102" on="1"/>
        <pt x="268" y="128" on="0"/>
        <pt x="245" y="156" on="0"/>
        <pt x="207" y="173" on="0"/>
        <pt x="160" y="186" on="0"/>
        <pt x="122" y="208" on="0"/>
        <pt x="99" y="244" on="0"/>
        <pt x="104" y="277" on="1"/>
        <pt x="108" y="303" on="0"/>
        <pt x="134" y="342" on="0"/>
        <pt x="169" y="368" on="0"/>
        <pt x="209" y="381" on="0"/>
        <pt x="227" y="381" on="1"/>
        <pt x="231" y="381" on="0"/>
        <pt x="256" y="379" on="0"/>
        <pt x="286" y="372" on="0"/>
        <pt x="316" y="358" on="0"/>
        <pt x="325" y="346" on="1"/>
        <pt x="315" y="272" on="1"/>
        <pt x="277" y="272" on="1"/>
        <pt x="284" y="325" on="1"/>
        <pt x="278" y="331" on="0"/>
        <pt x="259" y="337" on="0"/>
        <pt x="241" y="340" on="0"/>
        <pt x="225" y="340" on="0"/>
        <pt x="222" y="340" on="1"/>
        <pt x="198" y="340" on="0"/>
        <pt x="151" y="312" on="0"/>
        <pt x="146" y="278" on="1"/>
        <pt x="144" y="256" on="0"/>
        <pt x="168" y="231" on="0"/>
        <pt x="207" y="214" on="0"/>
        <pt x="252" y="199" on="0"/>
        <pt x="289" y="175" on="0"/>
        <pt x="311" y="137" on="0"/>
        <pt x="306" y="105" on="1"/>
        <pt x="304" y="88" on="0"/>
        <pt x="286" y="49" on="0"/>
        <pt x="253" y="15" on="0"/>
        <pt x="203" y="-8" on="0"/>
        <pt x="170" y="-8" on="1"/>
        <pt x="160" y="-8" on="0"/>
        <pt x="129" y="-5" on="0"/>
        <pt x="96" y="3" on="0"/>
        <pt x="66" y="17" on="0"/>
        <pt x="56" y="29" on="1"/>
        <pt x="66" y="103" on="1"/>
      </contour>
    </TTGlyph>
    <TTGlyph name="section" xMin="187" yMin="-26" xMax="436" yMax="743">
      <contour>
        <pt x="231" y="331" on="1"/>
        <pt x="236" y="305" on="0"/>
        <pt x="273" y="276" on="0"/>
        <pt x="300" y="276" on="1"/>
        <pt x="318" y="276" on="0"/>
        <pt x="353" y="292" on="0"/>
        <pt x="380" y="317" on="0"/>
        <pt x="396" y="351" on="0"/>
        <pt x="396" y="369" on="1"/>
        <pt x="396" y="406" on="0"/>
        <pt x="347" y="445" on="0"/>
        <pt x="315" y="445" on="1"/>
        <pt x="295" y="443" on="0"/>
        <pt x="263" y="426" on="0"/>
        <pt x="241" y="401" on="0"/>
        <pt x="228" y="368" on="0"/>
        <pt x="228" y="352" on="1"/>
        <pt x="228" y="341" on="0"/>
      </contour>
      <contour>
        <pt x="260" y="152" on="1"/>
        <pt x="239" y="195" on="0"/>
        <pt x="211" y="254" on="0"/>
        <pt x="194" y="295" on="0"/>
        <pt x="187" y="326" on="0"/>
        <pt x="187" y="341" on="1"/>
        <pt x="187" y="365" on="0"/>
        <pt x="206" y="415" on="0"/>
        <pt x="240" y="455" on="0"/>
        <pt x="286" y="481" on="0"/>
        <pt x="314" y="481" on="1"/>
        <pt x="324" y="481" on="0"/>
        <pt x="344" y="477" on="0"/>
        <pt x="354" y="474" on="1"/>
        <pt x="344" y="494" on="0"/>
        <pt x="323" y="540" on="0"/>
        <pt x="305" y="584" on="0"/>
        <pt x="294" y="623" on="0"/>
        <pt x="294" y="637" on="1"/>
        <pt x="294" y="659" on="0"/>
        <pt x="315" y="691" on="0"/>
        <pt x="347" y="715" on="0"/>
        <pt x="386" y="734" on="0"/>
        <pt x="403" y="743" on="1"/>
        <pt x="407" y="734" on="0"/>
        <pt x="414" y="716" on="0"/>
        <pt x="419" y="708" on="1"/>
        <pt x="370" y="681" on="1"/>
        <pt x="355" y="673" on="0"/>
        <pt x="340" y="652" on="0"/>
        <pt x="340" y="637" on="1"/>
        <pt x="340" y="613" on="0"/>
        <pt x="359" y="572" on="1"/>
        <pt x="426" y="421" on="1"/>
        <pt x="431" y="410" on="0"/>
        <pt x="436" y="387" on="0"/>
        <pt x="436" y="375" on="1"/>
        <pt x="436" y="351" on="0"/>
        <pt x="416" y="302" on="0"/>
        <pt x="381" y="262" on="0"/>
        <pt x="333" y="237" on="0"/>
        <pt x="305" y="237" on="1"/>
        <pt x="283" y="237" on="0"/>
        <pt x="268" y="244" on="1"/>
        <pt x="277" y="222" on="0"/>
        <pt x="298" y="176" on="0"/>
        <pt x="316" y="132" on="0"/>
        <pt x="328" y="93" on="0"/>
        <pt x="328" y="80" on="1"/>
        <pt x="328" y="57" on="0"/>
        <pt x="307" y="25" on="0"/>
        <pt x="275" y="1" on="0"/>
        <pt x="237" y="-17" on="0"/>
        <pt x="221" y="-26" on="1"/>
        <pt x="216" y="-17" on="0"/>
        <pt x="209" y="1" on="0"/>
        <pt x="204" y="9" on="1"/>
        <pt x="254" y="36" on="1"/>
        <pt x="268" y="44" on="0"/>
        <pt x="282" y="63" on="0"/>
        <pt x="282" y="78" on="1"/>
        <pt x="282" y="104" on="0"/>
      </contour>
    </TTGlyph>
    <TTGlyph name="semicolon" xMin="-28" yMin="-120" xMax="171" yMax="316">
      <contour>
        <pt x="104" y="283" on="1"/>
        <pt x="106" y="297" on="0"/>
        <pt x="128" y="316" on="0"/>
        <pt x="141" y="316" on="1"/>
        <pt x="154" y="316" on="0"/>
        <pt x="171" y="297" on="0"/>
        <pt x="169" y="283" on="1"/>
        <pt x="167" y="269" on="0"/>
        <pt x="145" y="250" on="0"/>
        <pt x="132" y="250" on="1"/>
        <pt x="119" y="250" on="0"/>
        <pt x="102" y="269" on="0"/>
      </contour>
      <contour>
        <pt x="125" y="86" on="1"/>
        <pt x="96" y="34" on="0"/>
        <pt x="39" y="-68" on="0"/>
        <pt x="10" y="-120" on="1"/>
        <pt x="-28" y="-120" on="1"/>
        <pt x="-2" y="-68" on="0"/>
        <pt x="50" y="34" on="0"/>
        <pt x="77" y="86" on="1"/>
      </contour>
    </TTGlyph>
    <TTGlyph name="seven" xMin="33" yMin="0" xMax="465" yMax="650">
      <contour>
        <pt x="465" y="650" on="1"/>
        <pt x="82" y="0" on="1"/>
        <pt x="33" y="0" on="1"/>
        <pt x="393" y="609" on="1"/>
        <pt x="93" y="609" on="1"/>
        <pt x="85" y="549" on="1"/>
        <pt x="45" y="549" on="1"/>
        <pt x="59" y="650" on="1"/>
      </contour>
    </TTGlyph>
    <TTGlyph name="six" xMin="27" yMin="-8" xMax="458" yMax="635">
      <contour>
        <pt x="75" y="199" on="1"/>
        <pt x="70" y="164" on="0"/>
        <pt x="88" y="104" on="0"/>
        <pt x="127" y="59" on="0"/>
        <pt x="183" y="33" on="0"/>
        <pt x="218" y="33" on="1"/>
        <pt x="252" y="33" on="0"/>
        <pt x="317" y="59" on="0"/>
        <pt x="370" y="104" on="0"/>
        <pt x="406" y="164" on="0"/>
        <pt x="411" y="199" on="1"/>
        <pt x="415" y="233" on="0"/>
        <pt x="397" y="294" on="0"/>
        <pt x="357" y="340" on="0"/>
        <pt x="299" y="366" on="0"/>
        <pt x="265" y="366" on="1"/>
        <pt x="230" y="366" on="0"/>
        <pt x="166" y="340" on="0"/>
        <pt x="115" y="294" on="0"/>
        <pt x="80" y="233" on="0"/>
      </contour>
      <contour>
        <pt x="32" y="195" on="1"/>
        <pt x="42" y="267" on="0"/>
        <pt x="121" y="392" on="0"/>
        <pt x="233" y="501" on="0"/>
        <pt x="364" y="594" on="0"/>
        <pt x="426" y="635" on="1"/>
        <pt x="431" y="627" on="0"/>
        <pt x="442" y="609" on="0"/>
        <pt x="448" y="601" on="1"/>
        <pt x="331" y="531" on="0"/>
        <pt x="191" y="404" on="0"/>
        <pt x="158" y="358" on="1"/>
        <pt x="180" y="380" on="0"/>
        <pt x="239" y="407" on="0"/>
        <pt x="271" y="407" on="1"/>
        <pt x="314" y="407" on="0"/>
        <pt x="386" y="374" on="0"/>
        <pt x="435" y="318" on="0"/>
        <pt x="458" y="242" on="0"/>
        <pt x="452" y="199" on="1"/>
        <pt x="446" y="156" on="0"/>
        <pt x="402" y="81" on="0"/>
        <pt x="337" y="25" on="0"/>
        <pt x="255" y="-8" on="0"/>
        <pt x="212" y="-8" on="1"/>
        <pt x="170" y="-8" on="0"/>
        <pt x="99" y="24" on="0"/>
        <pt x="50" y="79" on="0"/>
        <pt x="27" y="153" on="0"/>
      </contour>
    </TTGlyph>
    <TTGlyph name="slash" xMin="-36" yMin="-19" xMax="390" yMax="736">
      <contour>
        <pt x="-36" y="-19" on="1"/>
        <pt x="61" y="171" on="0"/>
        <pt x="251" y="546" on="0"/>
        <pt x="348" y="736" on="1"/>
        <pt x="390" y="736" on="1"/>
        <pt x="293" y="546" on="0"/>
        <pt x="103" y="171" on="0"/>
        <pt x="6" y="-19" on="1"/>
      </contour>
    </TTGlyph>
    <TTGlyph name="sterling" xMin="27" yMin="0" xMax="543" yMax="634">
      <contour>
        <pt x="510" y="0" on="1"/>
        <pt x="27" y="0" on="1"/>
        <pt x="32" y="41" on="1"/>
        <pt x="76" y="41" on="1"/>
        <pt x="93" y="41" on="0"/>
        <pt x="116" y="53" on="0"/>
        <pt x="131" y="82" on="0"/>
        <pt x="141" y="132" on="0"/>
        <pt x="147" y="171" on="1"/>
        <pt x="164" y="296" on="1"/>
        <pt x="99" y="296" on="1"/>
        <pt x="105" y="337" on="1"/>
        <pt x="170" y="337" on="1"/>
        <pt x="193" y="500" on="1"/>
        <pt x="203" y="570" on="0"/>
        <pt x="311" y="634" on="0"/>
        <pt x="396" y="634" on="1"/>
        <pt x="463" y="634" on="0"/>
        <pt x="529" y="581" on="0"/>
        <pt x="543" y="541" on="1"/>
        <pt x="509" y="522" on="1"/>
        <pt x="501" y="539" on="0"/>
        <pt x="484" y="565" on="0"/>
        <pt x="458" y="583" on="0"/>
        <pt x="419" y="593" on="0"/>
        <pt x="390" y="593" on="1"/>
        <pt x="312" y="593" on="0"/>
        <pt x="241" y="540" on="0"/>
        <pt x="234" y="494" on="1"/>
        <pt x="212" y="337" on="1"/>
        <pt x="336" y="337" on="1"/>
        <pt x="330" y="296" on="1"/>
        <pt x="206" y="296" on="1"/>
        <pt x="183" y="131" on="1"/>
        <pt x="178" y="102" on="0"/>
        <pt x="165" y="55" on="0"/>
        <pt x="148" y="41" on="1"/>
        <pt x="473" y="41" on="1"/>
        <pt x="488" y="145" on="1"/>
        <pt x="531" y="145" on="1"/>
      </contour>
    </TTGlyph>
    <TTGlyph name="t" xMin="81" yMin="0" xMax="331" yMax="619">
      <contour>
        <pt x="208" y="619" on="1"/>
        <pt x="250" y="619" on="1"/>
        <pt x="216" y="375" on="1"/>
        <pt x="331" y="375" on="1"/>
        <pt x="325" y="334" on="1"/>
        <pt x="210" y="334" on="1"/>
        <pt x="169" y="40" on="1"/>
        <pt x="251" y="40" on="1"/>
        <pt x="246" y="0" on="1"/>
        <pt x="122" y="0" on="1"/>
        <pt x="168" y="334" on="1"/>
        <pt x="81" y="334" on="1"/>
        <pt x="87" y="375" on="1"/>
        <pt x="174" y="375" on="1"/>
      </contour>
    </TTGlyph>
    <TTGlyph name="thorn" xMin="-54" yMin="-250" xMax="483" yMax="750">
      <contour>
        <pt x="-48" y="-210" on="1"/>
        <pt x="28" y="-210" on="1"/>
        <pt x="157" y="710" on="1"/>
        <pt x="80" y="710" on="1"/>
        <pt x="86" y="750" on="1"/>
        <pt x="279" y="750" on="1"/>
        <pt x="274" y="710" on="1"/>
        <pt x="199" y="710" on="1"/>
        <pt x="146" y="337" on="1"/>
        <pt x="144" y="324" on="0"/>
        <pt x="137" y="298" on="0"/>
        <pt x="134" y="286" on="1"/>
        <pt x="144" y="304" on="0"/>
        <pt x="179" y="338" on="0"/>
        <pt x="225" y="365" on="0"/>
        <pt x="279" y="381" on="0"/>
        <pt x="308" y="381" on="1"/>
        <pt x="349" y="381" on="0"/>
        <pt x="417" y="350" on="0"/>
        <pt x="462" y="298" on="0"/>
        <pt x="483" y="227" on="0"/>
        <pt x="478" y="187" on="1"/>
        <pt x="472" y="147" on="0"/>
        <pt x="431" y="76" on="0"/>
        <pt x="370" y="23" on="0"/>
        <pt x="294" y="-8" on="0"/>
        <pt x="253" y="-8" on="1"/>
        <pt x="223" y="-8" on="0"/>
        <pt x="174" y="8" on="0"/>
        <pt x="137" y="33" on="0"/>
        <pt x="112" y="66" on="0"/>
        <pt x="108" y="84" on="1"/>
        <pt x="107" y="74" on="0"/>
        <pt x="106" y="54" on="0"/>
        <pt x="106" y="44" on="1"/>
        <pt x="70" y="-210" on="1"/>
        <pt x="152" y="-210" on="1"/>
        <pt x="146" y="-250" on="1"/>
        <pt x="-54" y="-250" on="1"/>
      </contour>
      <contour>
        <pt x="436" y="187" on="1"/>
        <pt x="440" y="220" on="0"/>
        <pt x="424" y="276" on="0"/>
        <pt x="388" y="317" on="0"/>
        <pt x="335" y="341" on="0"/>
        <pt x="302" y="341" on="1"/>
        <pt x="269" y="341" on="0"/>
        <pt x="210" y="317" on="0"/>
        <pt x="162" y="276" on="0"/>
        <pt x="130" y="220" on="0"/>
        <pt x="126" y="187" on="1"/>
        <pt x="121" y="155" on="0"/>
        <pt x="137" y="98" on="0"/>
        <pt x="173" y="56" on="0"/>
        <pt x="226" y="32" on="0"/>
        <pt x="259" y="32" on="1"/>
        <pt x="292" y="32" on="0"/>
        <pt x="352" y="56" on="0"/>
        <pt x="400" y="98" on="0"/>
        <pt x="431" y="155" on="0"/>
      </contour>
    </TTGlyph>
    <TTGlyph name="three" xMin="42" yMin="-8" xMax="472" yMax="650">
      <contour>
        <pt x="171" y="347" on="1"/>
        <pt x="391" y="609" on="1"/>
        <pt x="183" y="609" on="1"/>
        <pt x="175" y="549" on="1"/>
        <pt x="135" y="549" on="1"/>
        <pt x="149" y="650" on="1"/>
        <pt x="472" y="650" on="1"/>
        <pt x="260" y="404" on="1"/>
        <pt x="300" y="401" on="0"/>
        <pt x="366" y="368" on="0"/>
        <pt x="411" y="314" on="0"/>
        <pt x="432" y="243" on="0"/>
        <pt x="426" y="201" on="1"/>
        <pt x="420" y="158" on="0"/>
        <pt x="375" y="82" on="0"/>
        <pt x="310" y="25" on="0"/>
        <pt x="229" y="-8" on="0"/>
        <pt x="186" y="-8" on="1"/>
        <pt x="140" y="-8" on="0"/>
        <pt x="67" y="29" on="0"/>
        <pt x="42" y="60" on="1"/>
        <pt x="77" y="91" on="1"/>
        <pt x="95" y="65" on="0"/>
        <pt x="153" y="33" on="0"/>
        <pt x="190" y="33" on="1"/>
        <pt x="225" y="33" on="0"/>
        <pt x="291" y="60" on="0"/>
        <pt x="343" y="106" on="0"/>
        <pt x="379" y="167" on="0"/>
        <pt x="384" y="201" on="1"/>
        <pt x="389" y="235" on="0"/>
        <pt x="370" y="296" on="0"/>
        <pt x="330" y="342" on="0"/>
        <pt x="272" y="368" on="0"/>
        <pt x="237" y="368" on="1"/>
        <pt x="220" y="368" on="0"/>
        <pt x="187" y="357" on="0"/>
      </contour>
    </TTGlyph>
    <TTGlyph name="threequarters" xMin="118" yMin="-19" xMax="1033" yMax="736">
      <contour>
        <pt x="218" y="474" on="1"/>
        <pt x="388" y="677" on="1"/>
        <pt x="227" y="677" on="1"/>
        <pt x="221" y="630" on="1"/>
        <pt x="190" y="630" on="1"/>
        <pt x="201" y="708" on="1"/>
        <pt x="450" y="708" on="1"/>
        <pt x="287" y="518" on="1"/>
        <pt x="317" y="516" on="0"/>
        <pt x="368" y="490" on="0"/>
        <pt x="403" y="449" on="0"/>
        <pt x="419" y="394" on="0"/>
        <pt x="415" y="361" on="1"/>
        <pt x="410" y="328" on="0"/>
        <pt x="375" y="269" on="0"/>
        <pt x="325" y="225" on="0"/>
        <pt x="263" y="200" on="0"/>
        <pt x="230" y="200" on="1"/>
        <pt x="194" y="200" on="0"/>
        <pt x="138" y="228" on="0"/>
        <pt x="118" y="252" on="1"/>
        <pt x="145" y="276" on="1"/>
        <pt x="159" y="256" on="0"/>
        <pt x="204" y="231" on="0"/>
        <pt x="233" y="231" on="1"/>
        <pt x="260" y="231" on="0"/>
        <pt x="311" y="252" on="0"/>
        <pt x="351" y="288" on="0"/>
        <pt x="378" y="335" on="0"/>
        <pt x="382" y="361" on="1"/>
        <pt x="386" y="388" on="0"/>
        <pt x="371" y="435" on="0"/>
        <pt x="341" y="470" on="0"/>
        <pt x="296" y="490" on="0"/>
        <pt x="269" y="490" on="1"/>
        <pt x="256" y="490" on="0"/>
        <pt x="230" y="482" on="0"/>
      </contour>
      <contour>
        <pt x="401" y="-19" on="1"/>
        <pt x="498" y="171" on="0"/>
        <pt x="688" y="546" on="0"/>
        <pt x="785" y="736" on="1"/>
        <pt x="827" y="736" on="1"/>
        <pt x="730" y="546" on="0"/>
        <pt x="540" y="171" on="0"/>
        <pt x="443" y="-19" on="1"/>
      </contour>
      <contour>
        <pt x="853" y="30" on="1"/>
        <pt x="910" y="30" on="1"/>
        <pt x="925" y="136" on="1"/>
        <pt x="684" y="136" on="1"/>
        <pt x="1006" y="490" on="1"/>
        <pt x="961" y="167" on="1"/>
        <pt x="1033" y="167" on="1"/>
        <pt x="1029" y="136" on="1"/>
        <pt x="956" y="136" on="1"/>
        <pt x="941" y="30" on="1"/>
        <pt x="1003" y="30" on="1"/>
        <pt x="999" y="0" on="1"/>
        <pt x="849" y="0" on="1"/>
      </contour>
      <contour>
        <pt x="962" y="398" on="1"/>
        <pt x="752" y="167" on="1"/>
        <pt x="930" y="167" on="1"/>
      </contour>
    </TTGlyph>
    <TTGlyph name="threesuperior" xMin="70" yMin="376" xMax="282" yMax="700">
      <contour>
        <pt x="133" y="551" on="1"/>
        <pt x="242" y="680" on="1"/>
        <pt x="139" y="680" on="1"/>
        <pt x="135" y="650" on="1"/>
        <pt x="116" y="650" on="1"/>
        <pt x="122" y="700" on="1"/>
        <pt x="282" y="700" on="1"/>
        <pt x="177" y="579" on="1"/>
        <pt x="197" y="577" on="0"/>
        <pt x="229" y="561" on="0"/>
        <pt x="252" y="535" on="0"/>
        <pt x="262" y="500" on="0"/>
        <pt x="259" y="479" on="1"/>
        <pt x="256" y="458" on="0"/>
        <pt x="234" y="420" on="0"/>
        <pt x="202" y="392" on="0"/>
        <pt x="162" y="376" on="0"/>
        <pt x="141" y="376" on="1"/>
        <pt x="118" y="376" on="0"/>
        <pt x="82" y="394" on="0"/>
        <pt x="70" y="410" on="1"/>
        <pt x="87" y="425" on="1"/>
        <pt x="96" y="412" on="0"/>
        <pt x="124" y="396" on="0"/>
        <pt x="143" y="396" on="1"/>
        <pt x="160" y="396" on="0"/>
        <pt x="192" y="410" on="0"/>
        <pt x="218" y="432" on="0"/>
        <pt x="236" y="462" on="0"/>
        <pt x="238" y="479" on="1"/>
        <pt x="241" y="496" on="0"/>
        <pt x="231" y="526" on="0"/>
        <pt x="212" y="548" on="0"/>
        <pt x="183" y="561" on="0"/>
        <pt x="166" y="561" on="1"/>
        <pt x="157" y="561" on="0"/>
        <pt x="141" y="556" on="0"/>
      </contour>
    </TTGlyph>
    <TTGlyph name="two" xMin="6" yMin="0" xMax="449" yMax="658">
      <contour>
        <pt x="114" y="41" on="1"/>
        <pt x="387" y="41" on="1"/>
        <pt x="402" y="146" on="1"/>
        <pt x="442" y="146" on="1"/>
        <pt x="421" y="0" on="1"/>
        <pt x="6" y="0" on="1"/>
        <pt x="78" y="62" on="0"/>
        <pt x="214" y="181" on="0"/>
        <pt x="322" y="294" on="0"/>
        <pt x="393" y="399" on="0"/>
        <pt x="400" y="446" on="1"/>
        <pt x="407" y="495" on="0"/>
        <pt x="387" y="560" on="0"/>
        <pt x="349" y="600" on="0"/>
        <pt x="300" y="617" on="0"/>
        <pt x="278" y="617" on="1"/>
        <pt x="233" y="617" on="0"/>
        <pt x="171" y="585" on="0"/>
        <pt x="131" y="539" on="0"/>
        <pt x="111" y="485" on="0"/>
        <pt x="108" y="463" on="1"/>
        <pt x="98" y="396" on="0"/>
        <pt x="132" y="353" on="1"/>
        <pt x="103" y="328" on="1"/>
        <pt x="80" y="351" on="0"/>
        <pt x="61" y="424" on="0"/>
        <pt x="66" y="463" on="1"/>
        <pt x="72" y="503" on="0"/>
        <pt x="107" y="574" on="0"/>
        <pt x="162" y="627" on="0"/>
        <pt x="238" y="658" on="0"/>
        <pt x="284" y="658" on="1"/>
        <pt x="326" y="658" on="0"/>
        <pt x="391" y="627" on="0"/>
        <pt x="432" y="573" on="0"/>
        <pt x="449" y="500" on="0"/>
        <pt x="443" y="458" on="1"/>
        <pt x="435" y="404" on="0"/>
        <pt x="371" y="297" on="0"/>
        <pt x="279" y="193" on="0"/>
        <pt x="168" y="91" on="0"/>
      </contour>
    </TTGlyph>
    <TTGlyph name="twosuperior" xMin="80" yMin="375" xMax="299" yMax="700">
      <contour>
        <pt x="133" y="395" on="1"/>
        <pt x="268" y="395" on="1"/>
        <pt x="276" y="447" on="1"/>
        <pt x="296" y="447" on="1"/>
        <pt x="285" y="375" on="1"/>
        <pt x="80" y="375" on="1"/>
        <pt x="116" y="406" on="0"/>
        <pt x="183" y="464" on="0"/>
        <pt x="236" y="520" on="0"/>
        <pt x="271" y="572" on="0"/>
        <pt x="275" y="595" on="1"/>
        <pt x="278" y="619" on="0"/>
        <pt x="268" y="652" on="0"/>
        <pt x="250" y="671" on="0"/>
        <pt x="225" y="680" on="0"/>
        <pt x="215" y="680" on="1"/>
        <pt x="192" y="680" on="0"/>
        <pt x="162" y="664" on="0"/>
        <pt x="142" y="641" on="0"/>
        <pt x="132" y="615" on="0"/>
        <pt x="130" y="604" on="1"/>
        <pt x="125" y="571" on="0"/>
        <pt x="142" y="549" on="1"/>
        <pt x="128" y="537" on="1"/>
        <pt x="117" y="548" on="0"/>
        <pt x="107" y="584" on="0"/>
        <pt x="110" y="604" on="1"/>
        <pt x="113" y="623" on="0"/>
        <pt x="130" y="658" on="0"/>
        <pt x="157" y="685" on="0"/>
        <pt x="195" y="700" on="0"/>
        <pt x="217" y="700" on="1"/>
        <pt x="238" y="700" on="0"/>
        <pt x="270" y="685" on="0"/>
        <pt x="291" y="658" on="0"/>
        <pt x="299" y="622" on="0"/>
        <pt x="296" y="601" on="1"/>
        <pt x="292" y="575" on="0"/>
        <pt x="261" y="522" on="0"/>
        <pt x="215" y="470" on="0"/>
        <pt x="160" y="420" on="0"/>
      </contour>
    </TTGlyph>
</ttFont>
